<?xml version="1.0" encoding="UTF-8"?>
<svg id="Layer_1" xmlns="http://www.w3.org/2000/svg" version="1.1" viewBox="0 0 500 500">
  <!-- Generator: Adobe Illustrator 29.8.1, SVG Export Plug-In . SVG Version: 2.1.1 Build 2)  -->
  <defs>
    <style>
      .st0 {
        fill: #3b130e;
      }
    </style>
  </defs>
  <path class="st0" d="M343.33,208.96h81.67v81.74l-81.83-.27.16-81.46ZM393.79,276.16v-59.34l-20.13,6.54v59.48l20.13-6.69Z"/>
  <path class="st0" d="M101.83,208.96v23.72c.22,1.6.23,3.59,2.2,3.9,7.64,1.19,5.24-3.4,5.71-8.53,1.06-11.62,12.41-8.75,20.66-7.44.79,4.22-2.44,15.89,4.24,16,1.08.02,3.36-.63,3.36-1.91v-14.11h6.42v15.27c0,.82-1.24,3.29-1.9,3.92-2.91,2.78-11.37,2.25-14.54-.26-2.62,2.52-6.68,3.07-9.91,1.37-1.19-.63-1.83-1.69-2.96-2.28-.45.76-1.03,1.52-1.8,1.99-2.03,1.25-9.37,1.17-11.91.92-4.12-.41-5.51-3.05-5.98-6.84v-25.74s6.41,0,6.41,0ZM124,225.54c-2.68-.66-6.35-.66-7.22,2.54-.2.75-.44,2.95-.38,3.73.13,1.73,3.52,5.25,5.39,5.07,1.01-.1,2.22-1.6,2.22-2.47v-8.87Z"/>
  <path class="st0" d="M157.54,208.96v27.63h4.52c1.37,0,1.8-2.92,1.89-3.93v-23.7h6.42l-.03,26.87c.02,2.36-2.71,5.7-5.07,5.7h-16.77l1.5-4.91,2.59-.04v-27.63s4.96,0,4.96,0Z"/>
  <rect class="st0" x="176.79" y="208.96" width="6.71" height="32.58"/>
  <path class="st0" d="M142.38,208.96c2.81,1.09,3.75,4.65,1.02,6.4-4.31,2.77-7.92-4.32-3.06-6.4h2.04Z"/>
  <path class="st0" d="M260.21,224.53l6.28-2.18.14,3.19c10.03-2.45,23.66-7.5,27.78,5.89.52,1.69.73,3.42,1.13,5.13,4.23-.07,6.56,1.28,6.97-3.88.29-3.74-.86-6.91,1.75-10.18,4.09-5.13,12.79-2.68,18.35-1.88-.32,4.48.5,9.67-.02,14.06-.9,7.68-10.12,9.4-14.7,3.67-1.55,2.81-4.13,2.86-7,3.19h-48.95c-1.7,5.58-6.59,9.18-12.46,8.89l-1.45-4.81c2.86-.04,5.77-1.61,6.96-4.26.24-.53.91-2.44.91-2.87v-17.89h6.42v16h7.88v-12.07ZM316.79,225.54c-5.82-1.24-8.2.62-7.6,6.56.23,2.25,4.89,6.58,6.69,4.02.32-.45.91-2.96.91-3.45v-7.13ZM288.79,236.89c.09-3.2-1.87-7.33-5.23-8.02-5.23-1.07-11.76,1.44-16.93,2.2v5.82h22.17Z"/>
  <path class="st0" d="M187.29,290.41h-5.83v-13.53c0-.4-.59-2.52-.82-2.97-1.43-2.74-5.66-1.64-7.93-.67v17.45h-5.83v-14.4c0-.36-.85-2.48-1.16-2.83-1.55-1.8-5.24-.95-7.3-.8v17.6l-.44.44h-5.69v-22.25c4.36-1.58,10.73-2.36,15.25-.95.61.19,1.67.99,2.11.99.72,0,4.03-1.45,5.58-1.6,3.69-.37,8.64-.04,10.85,3.36.3.46,1.22,2.46,1.22,2.86v17.31Z"/>
  <path class="st0" d="M220.54,236.6c-4.83-5.8-4.19-16.4,4.8-17.17,4.21-.36,8.58.41,12.68,1.19-.29,4.54.43,9.63.03,14.11-.39,4.24-3.82,6.39-7.78,6.79-7.76.77-16.6-.51-24.47.05-7.55-.87-7.58-7.69-7.1-13.79l6.38-2.22v8c0,1.41,2.37,3.05,3.65,3.05h11.81ZM231.62,225.54h-4.81c-.11,0-1.42.81-1.61,1.01-2.78,2.94.99,11.84,5.07,9.71.48-.25,1.35-1.38,1.35-1.85v-8.87Z"/>
  <path class="st0" d="M233.96,257.54v9.6c9.61-1.8,15.39,2.4,14.89,12.37-.61,12.04-11.56,12.87-21.01,10.31v-32.29h6.12ZM233.96,285.76c6.3,1.5,8.8-2.17,8.47-8.01s-3.17-6.28-8.47-5.37v13.38Z"/>
  <path class="st0" d="M308.62,257.54v19.78l8.6-9.89h6.27l-8.08,9.45,8.38,13.82h-6.56c-.5-.41-.79-.96-1.14-1.48-.88-1.27-5.01-8.95-5.48-9.22-.43-.25-1.43.03-1.98-.06v10.33l-.44.44h-5.69v-33.16h6.12Z"/>
  <path class="st0" d="M146.75,290.7h-6.12v-14.4c0-.35-.76-2.08-1.04-2.45-1.65-2.25-5.33-1.37-7.71-1.18v17.6l-.44.44h-5.69v-22.25c2.09-.85,5.14-1.43,7.44-1.6,4.76-.34,10.57-.31,12.74,4.74.2.46.82,2.33.82,2.67v16.43Z"/>
  <path class="st0" d="M296.96,290.7h-5.83v-13.53c0-.4-.59-2.52-.82-2.97-1.44-2.77-5.72-1.66-8.22-1.54v18.03h-5.83v-22.69c5.74-.75,16.4-3.57,19.7,2.89.21.42,1.01,2.49,1.01,2.78v17.02Z"/>
  <path class="st0" d="M205.96,290.7l-.43-1.16c-4.64,2.89-12.71,1.69-13.49-4.59-.89-7.21,6.96-8.68,12.47-8.96.51-6.44-6.27-3.9-10.2-3.33l-1.18-4.65c5.55-1,14.9-3.52,17.01,3.83.1.36.49,2.2.49,2.42v16l-.44.44h-4.23ZM204.5,279.94c-2.33-.03-6.77.4-6.89,3.39-.18,4.15,4.54,4.34,6.89,1.99v-5.38Z"/>
  <path class="st0" d="M93.96,290.7h-4.23l-.44-1.17c-6.02,3.12-14.61,1.39-13.7-6.84.62-5.58,8.2-6.32,12.55-6.71.69-6.46-6.36-3.86-10.2-3.33l-1.11-4.22c.1-.56,5.36-1.47,6.24-1.55,3.67-.32,8.39-.36,10.19,3.44.15.32.71,1.71.71,1.91v18.47ZM88.12,279.94c-2.41.01-6.72.44-6.71,3.64,0,3.69,4.45,3.97,6.71,2.04v-5.67Z"/>
  <path class="st0" d="M270.71,290.7h-4.38l-.43-1.16c-5.65,3.36-14.63,1.04-13.54-6.81.66-4.76,6.12-5.96,10.07-6.53.69-.1,2.53.23,2.7-.49-.09-6.12-6.57-3.55-10.46-3.03l-1.15-4.22c.05-.49,5.49-1.49,6.29-1.56,3.46-.31,7.98-.32,9.98,3.06.15.25.92,2.16.92,2.28v18.47ZM264.88,279.94c-3.15-.12-8.24.84-6.49,5.16.97,2.39,4.84,1.9,6.49.51v-5.67Z"/>
  <path class="st0" d="M105.92,257.54v26.32c0,2.04,2.91,2.08,4.38,1.89v4.94h-5.69c-.13,0-1.74-.75-2-.92-1.34-.87-2.04-2.2-2.4-3.72-.09-.38-.42-2.24-.42-2.49v-25.6l.44-.44h5.69Z"/>
  <path class="st0" d="M75,241.54l1.31-4.66,2.19-.29c-1.68-4.19,0-7.83,4.18-9.36,2.7-.99,5-.84,7.79-.53l-1.31,4.95c-.46.55-2.68-.07-4.09,1.16-1.55,1.35-.47,3.78,1.17,3.78h5.1l-1.6,4.94h-14.73Z"/>
  <polygon class="st0" points="120.21 290.41 114.08 290.41 114.08 267.43 119.77 267.43 120.21 267.87 120.21 290.41"/>
  <path class="st0" d="M225.89,214.97c-3.57-3.56,2.44-8.26,5.15-4.41,2.49,3.55-2.3,7.25-5.15,4.41Z"/>
  <path class="st0" d="M119.53,263.55c-3,3-7.51-1.5-4.73-4.57,2.75-3.03,7.78,1.53,4.73,4.57Z"/>
  <path class="st0" d="M150.83,250.27l.65-1.99.81-.05c-1.37-3.5,2.61-5.37,5.54-4.36l-.63,1.84-2.1.75-.43,1c.23,1.16,2.55.69,3.45.77l-.58,2.03h-6.71Z"/>
</svg>