<?xml version="1.0" encoding="UTF-8"?>
<svg id="Layer_1" xmlns="http://www.w3.org/2000/svg" version="1.1" viewBox="0 0 500 500">
  <!-- Generator: Adobe Illustrator 29.8.1, SVG Export Plug-In . SVG Version: 2.1.1 Build 2)  -->
  <defs>
    <style>
      .st0 {
        fill: #221afb;
      }
    </style>
  </defs>
  <g id="_x39_u7Tlw">
    <g>
      <path class="st0" d="M416.41,236.91c4.51,2.6,8.91,5.13,13.3,7.67,3.24,1.87,6.5,3.72,9.72,5.62,5.88,3.48,9.29,8.66,10.42,15.37.12.73.13,1.49.13,2.24,0,7.5.03,15,0,22.49-.03,5.09-1.95,9.47-5.22,13.3-1.75,2.05-3.92,3.57-6.25,4.9-5.7,3.26-11.4,6.55-17.08,9.85-3.74,2.17-7.76,3.17-12.06,2.94-3.15-.17-6.17-.98-8.91-2.55-7.33-4.19-14.64-8.42-21.93-12.68-1.07-.62-1.86-.75-3.03-.06-7.13,4.2-14.33,8.29-21.5,12.43-3.71,2.14-7.7,3.09-11.95,2.87-3.68-.19-7.05-1.42-10.23-3.28-5.78-3.38-11.64-6.64-17.37-10.09-6.78-4.09-10.43-10.13-10.53-18.1-.09-7.16-.02-14.33-.02-21.49,0-5.13,1.77-9.59,5.02-13.5,1.7-2.04,3.78-3.6,6.08-4.92,7.18-4.12,14.33-8.29,21.51-12.4.78-.44.99-.94.99-1.77-.03-8.5-.13-17,.02-25.49.13-7.65,3.48-13.73,10-17.79,5.22-3.25,10.64-6.2,15.97-9.27,1.41-.81,2.81-1.62,4.25-2.36,2.28-1.17,4.72-1.77,7.28-2.02,4.74-.47,9.05.7,13.11,3.06,5.68,3.3,11.36,6.61,17.08,9.84,4.69,2.65,7.99,6.44,9.9,11.46.84,2.2,1.26,4.49,1.27,6.83.03,8.5.01,17,.01,25.49,0,.45,0,.91,0,1.44ZM376.89,291.83c.17-.05.21-.05.25-.07,7.2-4.15,14.46-8.22,21.59-12.49,3.93-2.36,6.02-5.99,6.02-10.68,0-7.95-.01-15.91.02-23.86,0-.81-.23-1.25-.95-1.66-6.89-3.94-13.73-7.98-20.65-11.87-4.16-2.34-8.45-2.25-12.6.11-6.79,3.86-13.54,7.81-20.33,11.68-.78.45-1.09.93-1.08,1.84.04,7.83.03,15.66.02,23.48,0,5.04,2.29,8.73,6.54,11.29,1.89,1.13,3.82,2.2,5.72,3.31,5.15,2.97,10.3,5.94,15.46,8.92ZM337.5,250.33c-.56.3-.89.46-1.21.64-5.19,3-10.35,6.03-15.56,8.98-3.47,1.96-5.26,4.91-5.3,8.84-.06,6.87-.05,13.75,0,20.62.03,3.8,1.75,6.7,5.04,8.61,6.04,3.51,12.08,7.03,18.16,10.47,3,1.7,6.16,1.77,9.17.09,5.59-3.12,11.11-6.38,16.65-9.59.22-.13.42-.31.68-.51-.34-.23-.57-.41-.82-.55-4.72-2.72-9.44-5.45-14.17-8.14-3.81-2.17-6.88-5.07-9.15-8.82-2.38-3.94-3.49-8.23-3.49-12.83,0-5.42,0-10.83,0-16.25,0-.45,0-.91,0-1.57ZM388.7,298.49c.44.29.76.54,1.11.74,5.29,3.05,10.59,6.1,15.89,9.14,3.23,1.85,6.51,1.88,9.72.06,6.11-3.47,12.18-7,18.25-10.55,3.17-1.85,4.78-4.71,4.81-8.35.06-6.95.07-13.91,0-20.86-.04-3.77-1.73-6.67-5.07-8.58-4.69-2.68-9.36-5.41-14.04-8.12-.92-.53-1.86-1.04-2.96-1.65v1.55c0,5.58.01,11.16-.01,16.74,0,1.12-.07,2.25-.25,3.35-1.25,7.57-5.09,13.43-11.7,17.4-2.89,1.73-5.82,3.38-8.74,5.07-2.3,1.33-4.6,2.66-7.01,4.06ZM349.16,230.17c.5-.25.83-.4,1.14-.58,4.83-2.77,9.63-5.6,14.5-8.31,8.06-4.48,16.21-4.44,24.27-.06,4.93,2.68,9.73,5.6,14.59,8.4.3.18.64.31,1.02.49.03-.35.06-.56.06-.76,0-6.58,0-13.16,0-19.74,0-.45-.08-.91-.18-1.35-.64-2.85-2.31-4.93-4.81-6.37-5.94-3.42-11.88-6.86-17.84-10.26-3.31-1.89-6.65-1.85-9.96.03-1.77,1-3.53,2.03-5.29,3.05-4.28,2.47-8.6,4.9-12.84,7.44-3.04,1.82-4.65,4.56-4.65,8.15,0,6.12,0,12.24,0,18.36,0,.44,0,.88,0,1.49Z"/>
      <path class="st0" d="M120.02,243.79c-.03-1.68-.03-3.3-.11-4.91-.04-.74-.14-1.5-.38-2.19-.99-2.9-4.17-3.92-6.69-2.19-.27.19-.53.39-.88.66-1.14-.94-2.28-1.89-3.49-2.89,1.35-1.5,3-2.28,4.86-2.64,2.17-.41,4.31-.24,6.33.69,3,1.39,4.65,3.82,5.07,7.06.19,1.44.16,2.9.19,4.35.03,1.8.29,2.08,2.08,2.15.16,0,.33.04.63.08.01.65.03,1.3.04,1.95,0,.66,0,1.32,0,1.96-.92.3-46.5.42-48.71.13v-14.13c-3.74-1.11-6.71,1.01-6.78,4.77-.05,2.71,0,5.42-.01,8.12,0,.41-.03.81-.06,1.3-.48.02-.88.06-1.29.06-3.96,0-7.92,0-11.87,0-5,0-8.81-3.85-8.95-8.98-.06-2.33.51-4.44,1.95-6.3.1-.13.21-.26.33-.37.06-.06.14-.08.35-.2,1.09.9,2.23,1.84,3.37,2.78-.32.84-.75,1.61-.92,2.44-.42,2.03-.09,3.94,1.53,5.37.56.49,1.38.93,2.09.96,2.78.11,5.57.04,8.5.04.02-.5.04-.94.05-1.38.06-1.87-.07-3.76.2-5.6.59-4.06,3.78-7.02,7.85-7.32,2.65-.19,5.32-.13,7.98-.18.16,0,.31.06.6.13v14.28h16.65c-.1-2.04-.12-4.07-.32-6.08-.19-1.94-1.51-3.67-3.83-4.01-1.13-.17-2.14.12-3.07.74-.28.18-.52.42-.91.73-1.15-.95-2.31-1.91-3.52-2.91,1.3-1.46,2.85-2.25,4.59-2.6,2.88-.58,5.64-.25,8.08,1.52,2.39,1.72,3.53,4.14,3.67,7.04.06,1.29-.01,2.58.02,3.87.03,1.14.58,1.76,1.64,1.77,4.25.02,8.5,0,12.75,0,.16,0,.31-.07.36-.08Z"/>
      <path class="st0" d="M251.68,243.58c.95.36,5.1.44,6.68.16-.15-.35-.3-.68-.43-1.03-1.29-3.38-1.05-6.6,1.02-9.62.95-1.38,2.25-2.34,3.79-2.94,2.41-.95,4.87-1.02,7.3-.15,3.04,1.09,5.01,3.22,5.7,6.41.67,3.08.26,5.96-1.77,8.48-1.66,2.06-3.87,3.18-6.49,3.22-4.79.08-9.58.02-14.37.03-1.2,0-2.16-.51-2.96-1.36-.17-.18-.33-.36-.6-.66-1.96,2.07-4.48,2.06-7.06,2.04-6.37-.06-12.74-.02-19.12-.01-.91,0-1.82.04-2.58-.65-.96,5.72-3.69,8.23-9.46,8.71v-4.03c.2-.08.46-.21.73-.27,2.27-.54,3.61-2.16,3.68-4.54.04-1.46,0-2.92,0-4.37v-11.78h5v1.37c0,3.17,0,6.33,0,9.5,0,.29-.02.59.02.87.08.55.35.93.97.94,1.7,0,3.4,0,5.22,0v-12.18c1.54-.11,2.97-.07,4.52-.03v4.21c.75-.35,1.12-.85,1.52-1.28,1.36-1.45,2.96-2.56,4.79-3.31,3.19-1.3,6.44-1.62,9.66-.17,2.96,1.33,4.54,3.74,5.06,6.93.27,1.66.02,3.21-.59,4.74-.09.23-.15.47-.24.78ZM232.47,243.72c.11.06.17.14.24.14,3.74.01,7.49.07,11.23,0,1.85-.03,3.16-1.25,3.58-3.08.38-1.62.08-3.14-.83-4.52-.91-1.37-2.31-1.92-3.87-1.83-1.77.1-3.39.77-4.84,1.81-2.5,1.81-4.12,4.29-5.44,7.02-.07.14-.06.31-.08.46ZM262.16,238.75c0,1.35.23,2.21.71,3.11,1.42,2.68,5.69,2.66,7.17.37,1.31-2.02,1.47-4.11.38-6.24-1.35-2.65-4.85-3.13-6.94-1-1.03,1.05-1.38,2.33-1.32,3.76Z"/>
      <path class="st0" d="M179.88,232.2c1.26,1.04,2.38,1.96,3.52,2.9-.26.57-.54,1.07-.72,1.61-.77,2.26-.52,4.37,1.23,6.09.53.52,1.35.98,2.06,1.02,2.27.13,4.55.05,6.95.05-.18-.43-.31-.73-.42-1.03-1.38-3.8-1.1-7.35,1.63-10.5,1.18-1.36,2.7-2.19,4.45-2.58,3.3-.72,6.36-.28,8.99,1.99,1.4,1.2,2.3,2.74,2.7,4.52.69,3.1.32,6.03-1.72,8.59-1.65,2.06-3.85,3.22-6.47,3.26-5.41.08-10.83.08-16.24,0-4.38-.06-8.15-3.82-8.41-8.19-.13-2.29.1-4.49,1.45-6.44.28-.4.6-.78,1-1.28ZM196.67,238.82c-.09,1.03.23,2.1.8,3.09,1.33,2.29,4.66,2.74,6.58.92,1.85-1.76,2.18-5.09.72-7.22-1.06-1.55-2.84-2.24-4.67-1.79-2.12.51-3.41,2.35-3.43,5.01Z"/>
      <path class="st0" d="M187.54,291.11c-.09.32-.17.59-.25.87h-4.8v-28.34h4.93v10.39c.34-.18.53-.25.69-.36,3.01-2.05,7.36-1.47,10.07.58,2.79,2.12,4.29,4.93,4.24,8.47-.07,5.24-3.91,9-7.94,9.75-2.13.4-4.23.31-6.13-.93-.24-.16-.5-.27-.8-.42ZM197.45,281.99c-.16-.51-.32-1.56-.77-2.46-1.6-3.18-5.92-3.44-7.86-1.12-1.68,2.01-1.9,4.25-1.03,6.64,1.35,3.72,5.9,3.81,7.92,1.85,1.23-1.2,1.68-2.72,1.75-4.92Z"/>
      <path class="st0" d="M150.36,243.88c1.61,0,3.19,0,4.77,0,.96,0,1.6-.47,1.85-1.37.17-.63.26-1.31.26-1.96.02-5.5.01-11,.01-16.5v-1.42h4.65c.03.31.09.63.09.95,0,5.92,0,11.83,0,17.75,0,1.21-.13,2.41-.64,3.53-.96,2.1-2.66,3.16-4.92,3.26-1.62.08-3.25.05-4.87,0-.56-.02-1.11-.26-1.74-.42-.36,2.54-1.28,4.83-3.37,6.52-1.76,1.42-3.8,1.95-6.1,2.02v-4.06c.29-.09.63-.21.98-.29,1.61-.36,2.66-1.37,3.13-2.91.27-.9.44-1.87.45-2.81.04-4.5.02-9,.02-13.5v-1.45h4.77c.02.45.06.89.06,1.33,0,3.12,0,6.25,0,9.37,0,.67,0,1.34.61,1.96Z"/>
      <path class="st0" d="M219.79,274.03c.09-.34.16-.6.24-.93h4.68c.26.97.37,15.99.13,18.88-.79.02-1.6.05-2.41.06-.79,0-1.58,0-2.38,0-.08-.33-.15-.6-.23-.9-.14.02-.28,0-.37.06-5.77,4.09-14.54-.67-14.56-8.49,0-4.03,1.62-7.1,5.11-9.05,3.06-1.71,6.23-1.89,9.31.1.13.09.27.15.47.26ZM209.79,282.52s.09.02.13.03c0,.29-.02.58,0,.87.16,2.23,1.67,4.07,3.76,4.6,2.17.54,4.35-.3,5.48-2.24.99-1.7,1.07-3.55.49-5.42-.62-2.01-2.47-3.42-4.54-3.48-2.25-.06-4.09,1.14-4.82,3.23-.27.77-.35,1.61-.51,2.41Z"/>
      <path class="st0" d="M70.39,274.09c.08-.37.14-.63.21-.97h4.75v18.84h-4.69c-.08-.24-.18-.53-.32-.96-2.62,1.96-5.49,2.12-8.42,1.06-2.96-1.07-4.97-3.23-5.92-6.18-1.3-4.05-.52-7.75,2.57-10.78,1.58-1.55,3.55-2.37,5.79-2.64,2.23-.27,4.17.36,6.04,1.63ZM70.66,282.58c-.22-.92-.33-1.88-.67-2.75-.7-1.79-2.15-2.74-4.01-2.92-1.81-.18-3.38.42-4.45,1.96-1.31,1.88-1.43,3.94-.67,6.06.66,1.85,2.01,2.94,3.94,3.18,2.12.26,3.85-.46,4.96-2.38.55-.96.81-2,.9-3.15Z"/>
      <path class="st0" d="M117.41,273.86c.05-.19.11-.43.19-.74h4.68c.27.82.37,16.94.1,18.84h-4.75c-.07-.25-.15-.51-.24-.81-.11.02-.25,0-.33.07-4.92,3.56-13.01.47-14.35-6.69-.68-3.64.21-6.88,2.96-9.43,2.42-2.25,5.34-3.18,8.62-2.47,1.03.22,1.99.78,3.12,1.23ZM112.59,288.13c2.24,0,3.89-1.19,4.64-3.28.56-1.55.56-3.08,0-4.63-.68-1.91-2.03-3.07-4-3.3-1.99-.23-3.69.43-4.82,2.21-.79,1.25-1.05,2.63-.9,4.06.37,3.51,2.7,5.02,5.07,4.94Z"/>
      <path class="st0" d="M137.75,263.6h4.73c0,1.7.02,3.39.02,5.07,0,1.66,0,3.33,0,5.13.34-.16.6-.25.82-.39,3.55-2.38,9.9-.46,11.08,4.54.27,1.12.47,2.29.49,3.44.07,3.25.02,6.5.02,9.74,0,.24-.04.49-.06.82h-4.86c-.02-.41-.07-.85-.07-1.28,0-3.04.01-6.08-.01-9.12,0-.74-.1-1.49-.25-2.22-.29-1.36-1.17-2.16-2.54-2.41-2.13-.39-3.95.8-4.35,2.92-.16.85-.25,1.73-.26,2.6-.03,2.75-.01,5.5-.01,8.25v1.29h-4.76c0-9.45,0-18.84,0-28.37Z"/>
      <path class="st0" d="M251.99,263.6h4.73c0,1.74.02,3.48.02,5.21,0,1.79,0,3.58,0,5.37v5.47c.39-.29.65-.44.86-.64,1.66-1.64,3.32-3.27,4.94-4.95.68-.7,1.39-1.07,2.41-1.02,1.61.08,3.23.02,4.97.24-2.62,2.56-5.25,5.12-7.96,7.76,2.85,3.62,5.66,7.2,8.67,11.02-1.25,0-2.23.01-3.21,0-.95-.01-2.03.21-2.82-.16-.74-.35-1.19-1.34-1.76-2.05-1.41-1.79-2.82-3.59-4.3-5.48-.55.54-1.1,1-1.53,1.54-.2.26-.25.69-.26,1.04-.03,1.25-.01,2.5-.01,3.75v1.29h-4.75v-28.37Z"/>
      <path class="st0" d="M229.84,273.06c1.47,0,2.88-.03,4.28.03.26.01.51.36.71.51.94-.34,1.92-.8,2.95-1.03,3.34-.77,8.23,1.33,8.94,6.26.08.57.2,1.15.2,1.73.03,3.7.03,7.41.04,11.11,0,.07-.06.15-.12.3h-4.79c-.02-.45-.06-.89-.06-1.33,0-3.08.02-6.16-.02-9.24,0-.78-.11-1.58-.3-2.34-.27-1.1-1-1.76-2.13-2.04-2.31-.57-4.17.53-4.65,2.86-.16.77-.23,1.56-.24,2.35-.03,2.79-.01,5.58-.01,8.37v1.35h-4.82c0-6.22,0-12.45,0-18.89Z"/>
      <path class="st0" d="M123.23,302v-3.9c.99-.48,1.96-.79,2.72-1.37,1.43-1.09,1.81-2.71,1.81-4.45,0-5.91,0-11.81,0-17.72v-1.43h4.84c.03.4.07.76.07,1.13,0,6.28.04,12.56,0,18.84-.03,4.48-3.57,8.43-8.44,8.93-.28.03-.57-.02-.99-.04Z"/>
      <path class="st0" d="M80.34,263.55h4.85v28.39h-4.85v-28.39Z"/>
      <path class="st0" d="M166.34,222.6h4.69c.27.86.35,23.75.07,25.53h-4.76c0-8.53,0-16.96,0-25.53Z"/>
      <path class="st0" d="M138.42,248.08h-4.53c-.26-.85-.35-23.57-.09-25.45h4.62c0,8.45,0,16.88,0,25.45Z"/>
      <path class="st0" d="M94.76,292.07h-4.91c-.03-.41-.08-.77-.08-1.13,0-3.33-.04-6.66.02-9.98.02-1.15.18-2.33.5-3.43.69-2.39,2.32-3.89,4.74-4.47,1.91-.45,3.84-.64,5.84-.16v4.11c-.6.01-1.16.02-1.73.04-.54.02-1.08.02-1.62.08-1.88.22-2.74,1.2-2.75,3.18-.02,3.2,0,6.41,0,9.61v2.15Z"/>
      <path class="st0" d="M159.89,273.12h4.71v18.84h-4.62c-.27-.82-.37-16.92-.09-18.84Z"/>
      <path class="st0" d="M162.22,269.63c-1.84,0-3.07-1.21-3.05-3.02.02-1.67,1.33-2.94,3.02-2.99,1.55-.04,3.11,1.3,3.11,3.02,0,1.54-1.42,3.24-3.08,2.99Z"/>
      <path class="st0" d="M130.25,269.63c-1.76.26-3.18-1.57-3.09-2.98.1-1.69,1.33-2.99,3-3.02,1.81-.03,3.09,1.21,3.1,2.98,0,1.88-1.12,3.01-3.01,3.02Z"/>
      <path class="st0" d="M59.33,257.88c-1.66,0-2.83-1.16-2.82-2.81,0-1.64,1.19-2.78,2.86-2.77,1.53.01,2.78,1.23,2.8,2.74.02,1.55-1.26,2.84-2.84,2.84Z"/>
      <path class="st0" d="M70.17,255.05c.02,1.61-1.18,2.83-2.81,2.84-1.59,0-2.87-1.24-2.86-2.8,0-1.51,1.24-2.75,2.76-2.78,1.64-.03,2.88,1.14,2.9,2.74Z"/>
      <path class="st0" d="M193.25,226.05c-.04,1.64-1.18,2.64-2.96,2.59-1.55-.05-2.68-1.27-2.62-2.86.06-1.53,1.3-2.71,2.83-2.73,1.55-.01,2.93,1.3,2.75,3Z"/>
      <path class="st0" d="M119.25,255.08c.22,1.49-1.34,2.93-2.77,2.83-1.59-.11-2.83-1.28-2.81-2.86.01-1.53,1.23-2.65,2.78-2.76,1.57-.11,3.02,1.44,2.8,2.79Z"/>
    </g>
  </g>
</svg>