<?xml version="1.0" encoding="UTF-8"?>
<svg id="Layer_1" xmlns="http://www.w3.org/2000/svg" version="1.1" viewBox="0 0 500 500">
  <!-- Generator: Adobe Illustrator 29.8.1, SVG Export Plug-In . SVG Version: 2.1.1 Build 2)  -->
  <defs>
    <style>
      .st0 {
        fill: #4ba33c;
      }

      .st1 {
        fill: #c2cf31;
      }
    </style>
  </defs>
  <path class="st0" d="M270.03,105.38c-.08.42-.45.35-.74.42-1.76.45-3.81.74-5.56,1.19-29.71,7.77-50.93,29.39-59.22,58.85-.58,2.05-1.31,4.25-1.33,6.37-.34.08-.43-.12-.64-.31-5.46-5.12-9.76-12.99-11.9-20.14-3.61-12.08-2.75-24.1.89-36,.39-1.26,3.29-9.73,3.85-10.07l74.64-.31Z"/>
  <path class="st0" d="M249.16,258.67c-1.43,5.4-4.07,10.83-7.29,15.37-9.88,13.91-24.25,20.52-40.65,23.45-1.95.35-3.88,1.03-5.89.79l-37.25-64.7c6.73,8.26,15.15,15.17,24.53,20.28,18.7,10.19,41.39,11.3,61.8,6.06.73-.19,4.43-1.49,4.76-1.25Z"/>
  <path class="st0" d="M325.9,265.83c.47-1.86,1.26-3.63,1.79-5.48,4.35-15.1,4.34-30,0-45.13s-14.06-29.01-25.62-39.96c-.1-.46.19-.27.46-.37,17.93-6.57,40.18,4.56,52.57,17.34,2.91,3,5.48,6.29,8.28,9.38l-30.98,53.31c-2.07,3.14-3.54,7.16-5.57,10.24-.2.3-.52.71-.93.65Z"/>
  <path class="st0" d="M343.83,170.11c-.22.23-1.09-.76-1.27-.94-2.85-2.98-5.51-6.15-8.64-8.86-22.48-19.51-52.95-23.6-80.97-14.76-.25.08-.32.22-.21-.21,5.44-21.16,25.34-34.26,45.71-38.42,1.28-.26,7.29-1.37,8.13-1.08l37.25,64.27Z"/>
  <path class="st0" d="M200.87,231.25l-6.22,1.27c-16.22,1.6-30.4-4.29-42.49-14.65-4.67-4-8.61-8.53-12.2-13.54l36.98-64.16-3.03,11.1c-6.53,29.98,4.76,58.85,26.76,79.24l.2.74Z"/>
  <path class="st1" d="M311.15,247.91c.48-.08.34.02.47.27.28.5.71,1.94.95,2.63,1.83,5.02,2.78,9.99,3,15.34.15,3.75.07,7.57-.42,11.28-.46.53-.76-1.55-.86-1.77-1.12-2.55-2.66.28-2.25,2.25.12.58.68,1.1.78,1.75.44,2.79-.68,3-1.65,5.07-1.11,2.37-1.02,5.17-.87,7.78.05.9.7,1.58.21,2.63-.26.02-.52-.08-.71-.23-.54-.42-1.05-4.59-1.18-5.57-.17-1.23-.07-2.77-.26-3.95-.21-1.28-1.22-2.25-1.4-3.87-.29-2.69.3-6.24-.89-8.81-.97-2.09-1.71.29-1.66,1.66.07,2.25.66,4.7.84,6.96.16,2.03,0,4.26.22,6.32.28,2.7,1.29,5.82,1.44,8.46.04.65.23,1.54-.29,1.97-.44,0-1.44-2.65-1.7-3.14-.19-.34-.61-.55-.82-.87-1.82-2.91-.94-9.71-1.65-13.11-.17-.79-.88-3.76-2.05-2.6-1,.99-1.12,2.49-1.05,3.81.22,4.48,2.31,9.54,2.55,13.9.06,1.01-.06,2.05,0,3.07l-2.29-.24c-.2-1.68-.11-3.66-.51-5.29-.26-1.05-.9-1.97-1.15-3.07-.68-2.96-.8-6.38-1.39-9.37-.28-1.4-.86-2.73-1.14-4.13-.76-3.8-.42-8.81-3.43-11.64-1.19,7.42,1.5,14.66,2.38,21.97.83,3.85,1.26,7.84,1.63,11.76h-11.6c.06-1.33-.73-3.15-.26-4.37.23-.61.97-1.09,1.09-1.86.39-2.54-2.47-10.67-3.26-13.58-.29-1.07-.28-2.37-.63-3.37-.27-.78-.81-1.09-1.14-1.77,10.98-11.31,17.46-26.23,21.07-41.46.29-.22,4.37,5.02,4.72,5.5.7.96,3.01,4.11,3.2,5.04.07.36-.48,1.77-.54,2.43-.26,2.81.82,10.83,2.07,13.32.41.81,1.91,2.21,2.15.8s-1.65-5.48-1.69-7.16v-4.74ZM302.61,253.82c-.45,0-.7,2.35-.74,2.84-.25,3.54.17,7.11-.23,10.73-.12,1.04-.96,2.6-.36,3.57.87,1.42,1.98-1.54,2.17-2.18.73-2.4,0-6.57-.11-9.16-.06-1.4.24-3.61,0-4.85-.09-.45-.44-.66-.73-.95Z"/>
  <path d="M216.37,341.95c.11-.03.33-.47.68-.58.56-.19,1.31-.05,1.94-.38.36-.19,2.67-3.17,2.94-1.86l-.19,1.98c1.8-.11,2.36,1.23,4.28.8,1.74-.4,1.59-2.17,2.58-3.33,1.05.48.57,1.65,1.78,2.44.55.35.96.22,1.28.42.16.1.14.47.36.52,1.02.27,4.71-.03,6.08-.01s2.81,0,4.2,0c3.75,0,9.59.49,13.06,0,.35-.05,2.83-1,2.87-1.15-.2-.51-.63-1.14-1.05-1.48-.59-.48-1.17-.45-1.55-.71-.94-.65.83-2.37,1.01-3.18.47.22,2.79,2.43,3,2.9.48,1.06-.16,3.11.03,4.34-1.47.89-2.92,1.4-4.67,1.41-.19.04-.18.35-.3.41-1.18.58-13.24.22-15.55.2-1.9-.02-5.31.31-6.97.01-.53-.1-.43-.64-.93-.77-.55-.14-1.24.23-1.9-.2-.26-.17-1.11-1.57-1.38-1.56-.56.65-.96,1.57-1.89,1.69-.77.1-4.16.13-4.86,0-.61-.12-.5-.82-1.03-.84-1.14-.03-2.15.69-2.99.82-1.92.3-2.81.24-4.62,0-1.23-.16-4.61.08-5.48.87-5.94-.09-11.79.38-17.71-.03-.78-.05-1.83.14-2.54,0-.43-.08-.57-.46-.9-.57-1.26-.44-2.08-.46-3.12-1.52-1.11-1.15-.63-1.48-.98-2.6-.61-1.96-.5-2.27-.81-4.25-.08-.53-.48-.88-.57-1.33-.23-1.17-.08-2.7-.3-3.7-.1-.43-.52-.82-.67-1.44-.16-.68-.03-1.4-.18-1.93-.11-.39-.81-.72-.8-1.31.02-.66.91-.81,1.02-.99.14-.23-.51-1.85.35-1.64.13.03,1.29,2.13,1.33,2.26,1.03,3.6,1.3,7.18,1.75,10.9.11.93.64,1.38.78,1.96.24,1.07-.21,1.7,1.1,2.48.61.36,1.29.18,1.51.9l22.15.05c.66-1.39,1.87-.42,2.87-.97.71-.38,1.71-2.07,2.44-2.2.54-.1.36,1.07.28,1.34-.14.46-2.07,1.46-1.65,2.04.16.05.25-.21.31-.21.78,0,3.05.16,3.58,0Z"/>
  <path d="M297.99,326.22s-.24-.08-.32-.24c-.76-1.54,1.3-1.54.83-3.21l.65.13c-.19,1.16,2.67,2.97,2.73,3.18.26.93-.91.55-.86,2.07.05,1.66.59,2.87.85,4.23.14.76-.05,1.66.23,2.51.59,1.75.8,2.85.75,4.83-.03,1.28-.15,2.36-1.07,3.31-2.87,2.95-10.16,1.94-12.64-1.29l-2.23-5.68c-.2.39.02,1.2-.11,1.47-2.58,5.48-7.87,7.23-13.44,8.07-.88.13-1.47.68-2.37.79-.49.06-2.96.14-3.06-.32-.14-.67,1.68-.55,2.21-.74,2.61-.94,5.24-1.96,7.76-3.2,1.67-.82,3.66-1.48,4.57-3.22-.74-1.42-1.62-2.86-2.84-3.91-1.33-1.14-5.72-4.22-7.27-4.56-2.47-.53-4,.58-6.65-1.13-2.17-1.4-.47-3.29.21-5.06.67,1.09,1.65.64,2.49.88.33.09.55.57.93.76,5.24,2.54,12.77,5.79,14.1,12.16.35,1.68.67-.41.76-.57.33-.58,1.07-1.19,1.32-1.66s.26-9.03.14-10.01c-.06-.5-.86-.34-.66-1.22.69-.25,1.55-2.21,2.21-2.03.49.13.4,2.64.58,3.22.51,1.62.42,1.42.59,3.2.12,1.25.7,2.15.83,2.96.3,1.88.37,3.28.95,5.17.32,1.04,1.12,3.85,2.17,4.16.37.11.81-.03,1.17.09.29.1.51.42.78.49,1.27.33,5.8.48,6.43-.75.11-.21.29-1.13.3-1.39.04-1.77-1.23-4.71-1.64-6.54-.22-1-.08-2.08-.24-2.93-.08-.45-.6-.74-.75-1.36-.24-.99.12-1.69-.39-2.68Z"/>
  <path class="st1" d="M236.19,299.15l-.21-.42c.27-.37,2.7-.34,3.33-.47,3.12-.63,8.28-2.45,11.33-3.64.83-.32,4.57-2.23,4.96-2.23.62,0,1.46,1.02,1.9,1.49,1.03,1.12,1.93,2.48,2.83,3.71,1.18.97,1.23-.59.91-1.54-.28-.82-3.25-4.41-3.19-4.77l8.73-4.99c.47-.06.25.09.32.32.41,1.3.87,2.86,1.37,4.11.46,1.13,1.66,2.8,1.77,3.93.16,1.49-.76,3.2-1.36,4.51h-32.68Z"/>
  <path d="M364.28,338.79l-1.68,3.16,3.91.02c.93-1.07.94-.58,1.88-.66,1.15-.1,2.75-2.76,3.18-2.72.78.08-.23,1.51-.1,1.68l.42-.08c.02.38.12.59.44.81.59.43,3.48.08,4.42.11.09-.49-.47-.6-.59-.99-.47-1.54,1.73-3.28,2.39-1.13.38,1.24-.72,4.31-2,4.77-.28.1-1.5.31-1.81.31-1.13.01-3.4-.53-4.3-1.18-.23-.17-.3-.54-.54-.72-2.4,2.75-6.77,1.44-10.12,1.69-1.35.1-2.17.68-2.96.84-2.69.53-6.18-.25-8.12-2.2-1.06-1.07-1.46-2.47-2.52-3.49l-.52,1.28c-.61.47-4.7,2.04-4.87,2.3-.27.4.14,1.05-.07,1.6-.81,2.19-2.46,5.02-4.38,6.39-2.57,1.82-8.48,3.27-11.49,2.34-.15-.05-.14-.31-.47-.42-1.23-.39-2.5,0-3.59-.19-.64-.12-.68-.81-.42-.84l6.32-.21c1.93-.88,4.03-1.01,6.09-1.92,1.49-.66,3.79-2.36,4.74-3.7.29-.41,1.46-2.54,1.51-2.93.1-.75-1.87-.32-2.27-.78l-.37-3.11c.45-.72.85.48,1.01.58.51.33,4.65.13,5.22-.04.17-.05,2.95-1.66,3.06-1.8.12-.16-.06-.52.04-.78.16-.4.66-.63.79-.91.22-.49-.08-1.1.43-1.47,1.32.74,1.17,2.44,1.46,3.6.2.8,1.3,2.86,2.07,3.2,1.53.68,6.07,1.22,7.6.75.27-.08.42-.43.72-.54,1.1-.39,2.28-.43,3.49-1.15.75-.45,1.11-1.47,2.05-1.43Z"/>
  <path d="M232.71,372.52l3.98-.18c.2,1.08.72,1.92,1.26,2.86,2.41,4.25,5.15,8.98,7.79,13.08.13.21-.02.37.47.27v-15.92c.61-.62,1.72-.21,2.53-.32v21.3c-.96-.27-2.51.59-3.18-.09l-10-17.41-.32,17.5h-2.53v-21.09Z"/>
  <path d="M296.49,372.31c.3.05,2.04.82,2.36,1.01,1.78,1.05,3.21,3.54,3.2,5.61,0,1.14-1,3.71-2.01,4.31-.6.36-1.62.27-1.56,1.18l3.39,9.18-2.7-.04-3.94-8.82c-.1-.1-1.55-.42-1.69-.42h-4.11l-.21,9.28h-2.74v-20.98l.32-.32c2.98.32,6.83-.43,9.7,0ZM289.53,375.26l-.32.32v6.54l.32.32h6.11c.11,0,1.68-.89,1.9-1.05,1.41-1.05,1.95-2.23,1.48-4.01-.11-.42-1.46-2.1-1.69-2.1h-7.8Z"/>
  <path d="M160.28,372.31c1.42.29,3.59,2.22,4.29,3.52,1.06,1.99,1,6-1.03,7.33-.64.42-1.72.34-1.69,1.26l3.6,9.18c-.73,0-2.25.26-2.84-.21-.37-.3-1.37-2.26-1.62-2.81-.59-1.28-1.66-5.21-2.47-5.91-.76-.65-4.59-.22-5.71-.35l-.21,9.28h-2.74v-20.98l.32-.32h10.12ZM152.59,382.43h6.43c.11,0,1.68-.89,1.9-1.05,1.41-1.05,1.95-2.23,1.48-4.01-.11-.42-1.46-2.1-1.69-2.1h-7.8l-.32.32v6.85Z"/>
  <path d="M213.61,375.77c.39-.54,2.92-2.99,3.45-3.2,1.63-.65,6.13-.34,7.63.7,2.91,2.03,3.97,5.17,4.6,8.47.33,1.73-.76,6.22-1.6,7.79-1.07,2-3.53,4.54-5.85,4.91-9.84,1.56-13.01-12.05-8.23-18.67ZM220.21,374.26c-1.22.11-3.43,1.81-4.13,2.83-1.01,1.49-1.95,5.58-1.73,7.35.07.53.73,3.21.91,3.73.15.42,1.11,2.09,1.41,2.38.12.11,1.89,1.06,2.05,1.11,3.03.96,5.86-1.31,6.76-4.11.77-2.41.54-8.91-1.11-11.03-.71-.92-3.03-2.37-4.17-2.27Z"/>
  <path class="st1" d="M274.14,299.15l-5.95-14.02c.82-1.04,2.06-1.45,3.11-2.31,1.66-1.38,3.3-3.3,4.95-4.74.52.41.22,1.08.41,1.69.34,1.1,1.13,2.36,1.54,3.52,1.15,3.27,1.32,7.17,2.01,10.64.3,1.53.74,3.24,1.18,4.74.09.17-.22.48-.29.48h-6.96ZM273.76,284.01c-1.51.46.57,3.24,1.76,2.4.61-.43-.12-2.9-1.76-2.4Z"/>
  <path d="M368.57,374.28c2.94-2.96,9.6-2.73,12.12.7,3.1,4.22,3.12,11.97,0,16.16-4.05,5.44-11.3,3.94-14.06-1.89-1.82-3.84-1.17-11.83,1.94-14.97ZM373.5,374.47c-5.44,1.14-6.12,10.68-3.78,14.65.38.65,2.19,2.51,2.88,2.6,1.87.25,4.15.19,5.39-1.38,2.85-3.6,3.23-12.79-1.33-15.12-.17-.09-1.85-.77-1.95-.79-.37-.07-.84-.04-1.21.04Z"/>
  <path d="M120.91,372.37c4.1-.6,7.38.08,9.53,3.85.88,1.53.18,1.04-.7,1.61-.31.2-.68.8-.99.73-.63-.15-.83-1.32-1.26-1.92-.75-1.05-2.64-2.05-3.89-2.22s-4.4.88-4.71,2.27c-.78,3.45,1.35,3.6,3.8,4.33.3.09.46.46.73.54.72.21,1.73-.13,2.44.09.37.11.52.61.93.75,1.13.39,1.6-.05,2.77,1.02,2.62,2.39,2.82,7.38-.25,9.4-2.87,1.89-6.81,2.27-9.93.78-1.44-.69-5.52-4.27-3.6-5.88,1.14-.96,2.13,1.27,2.73,1.9.4.42,1.81,1.81,2.22,2,.21.1,2.64.34,3.05.34,2.81,0,6.43-2.51,4.32-5.4-.84-1.16-2.39-1.56-3.75-1.95-2.26-.65-4.77-.53-6.59-2.26-1.7-1.62-1.89-3.19-1.67-5.49.23-2.47,2.41-4.14,4.8-4.48Z"/>
  <path d="M264.27,390.59c1.06-1.06,1.5-2.45.67-3.8-1.27-2.06-4.07-1.97-6.13-2.52-1.02-.27-2.77-.72-3.54-1.31-1.23-.94-2.36-2.22-2.52-3.8-.26-2.56.03-4.49,2.34-5.88,1.89-1.14,5.07-1.2,7.23-.94s4.27,3.06,5.18,4.91l-2.2,1.2c-.53-.04-.78-1.27-1.16-1.81-.97-1.35-3.7-2.54-5.32-2.16-.62.14-2.56,1.01-2.9,1.52-1.15,1.71-.39,3.88,1.49,4.62,1.62.64,3.61.72,5.14,1.19.68.21,2.68.91,3.17,1.25,2.76,1.92,3.29,5.72,1.55,8.51-.73,1.17-4.01,2.76-5.34,2.89-2.86.28-5.43-.23-7.61-2.11-1.04-.9-2.71-2.53-2.28-3.97.76-2.55,3.2,1.39,4.08,2.18,1.24,1.11,1.99,1.33,3.69,1.38,1.51.04,3.38-.26,4.47-1.35Z"/>
  <path d="M305.24,372.52l3.37-.21c.62,5.7-.22,11.42.04,17.14.09.41,1.51,1.99,1.86,2.15.28.13,1.82.24,2.25.24,2.27.02,4.01-.62,4.82-2.86.44-4.73-.25-9.77.09-14.46.13-1.74.23-2.8,2.39-2.16,1.15.34.37,4.1.35,5.11-.12,6.08,1.92,15.11-5.84,16.93-2.83.66-7.27-.66-8.36-3.56-.17-.46-.97-4.14-.97-4.51v-13.81Z"/>
  <path d="M388.95,393.4l-1.56.39c-1.07-.24-.32-3.51-.33-4.28-.07-4.9-.59-10.06-.23-14.99.05-.67.23-1.34.31-2.01.24-.36,2.77-.3,3.22.07l9.86,16.81.32-17.08,1.34.03.35.28v20.98c-1.55.03-2.29.28-3.25-1.07-3.26-4.56-5.92-10.64-9.02-15.44-.27-.42-.54-.98-1.01-1.2v17.5Z"/>
  <path d="M340.66,379.27h-3.37c0-1.09-.66-2.56-1.36-3.38-.36-.42-2.65-1.64-3.17-1.65-2.09-.03-4.73,2.65-5.32,4.56-.51,1.68-.51,7.63.1,9.26.1.27,1.53,2.73,1.67,2.82.29.18.7,0,.91.11.49.23.48.7,1.46.83,2.17.29,3.96-.66,5.16-2.45,1.14-1.68.05-3.11,3.19-2.74,1.52.18.32.93.15,1.43-.18.54-.15,1.04-.44,1.67-1.05,2.31-4.32,4.83-6.89,4.87-9.44.16-11.67-14.38-6.02-20.1.4-.4,2.03-1.74,2.49-1.94,1.04-.47,6.14-.44,7.12.15,1.53.93,3.53,4.25,4.2,5.92.09.22.16.37.12.62Z"/>
  <path d="M207.12,374.07c1.61,1.54,1.48,1.78,2.11,3.69.21.65.89.93.7,1.72l-3.25-.4c-.26-.89-.2-1.64-.75-2.45s-2.49-2.09-3.47-2.22c-3.13-.41-5.8,3.14-6.03,6.01-.28,3.59-.23,9.34,3.61,11.16,1.68.8,4.28-.02,5.46-1.45,1.45-1.76,1.06-4.19,4.43-3.48.19.66-.37,1-.53,1.47-.89,2.71-1.16,3.98-3.89,5.39-3.01,1.55-7.36,1.17-9.61-1.59-1.28-1.56-2.97-6.23-3.01-8.17-.04-2.04.79-5.76,1.88-7.51.45-.72,3.05-3.34,3.76-3.62,1.14-.44,5.91-.53,6.95.02.2.11,1.36,1.17,1.63,1.43Z"/>
  <path d="M177,372.57l6.8,21.03h-2.22c-1.27-.53-1.1-1.86-1.42-2.8s-.9-1.87-.98-2.98l-7.8-.11c-.17.13-.99,3.31-1.18,3.79-.1.26-.78,1.82-.84,1.9-.37.45-2.01.1-2.64.2.89-.93.72-1.81,1.06-2.84,1.8-5.33,3.87-10.89,5.67-16.09.24-.7-.3-2.18.75-2.37.47-.09,2.53-.06,2.8.26ZM177.89,384.96c-.09-1.07-2.31-8.41-2.85-8.43l-2.85,8.43h5.69Z"/>
  <path d="M114.64,393.61h-3.06l-1.93-5.71-7.45-.09c-1.6,2.14-.57,6.46-4.42,6.01l6.95-21.41,3.07.11,6.85,21.09ZM108.73,384.96c-.53-2.3-1.26-4.86-2.1-7.07-.23-.62-.57-1.56-1.06-1.99-.39,3-1.59,5.88-2.53,8.76-.09.6.53.31.74.31h4.95Z"/>
  <path d="M145,339.42c.55-.54-2.3-3.85-3.37-3.37-.18-.57.7-.72.8-.88.3-.52-.48-2.06,1.11-1.55.52.17,2.99,2.68,3.11,3.22.08.38.18,2.81.07,3.12-.34.95-2.26,1.77-3.19,2.1-1.94.68-3.84.82-5.78,1.18-5.78,1.08-17.36,3.07-22.36-.65-1.69-1.25-1.86-2.72-1.59-4.76.02-.14,1.07-2.32,1.16-2.42.43-.44,1.5-.22,1.37.32-1.08.72-1.19,3.14-.43,4.02,1.31,1.54,2.05,1.23,3.66,1.62,3.72.89,6.9.91,10.8.58s8.95-1.19,12.49-2.27c.59-.18,1.53-.19,2.17-.26Z"/>
  <path d="M138.04,375.26l-5.71-.3c-.32-.22-.31-2.34,0-2.56l14.85-.06.32.32.24,2.4-6.75.21v18.34h-2.95v-18.34Z"/>
  <path d="M274.67,375.26l-5.71-.3c-.31-.21-.4-2.44.15-2.62l14.85.06.2,2.65-6.53.21v18.03c-.73.65-2.02.18-2.95.32v-18.34Z"/>
  <path d="M355.84,372.31v2.74s-5.69.21-5.69.21l-.21,18.35h-2.74v-18.34s-4.74,0-4.74,0c-1.53,0-1.44-2-.84-2.95h14.23Z"/>
  <path d="M359.01,374.32c0-.08.19-.35.23-.64.05-.42-.36-.87.07-1.17l2.45-.2c-.12.9.17,1.74.22,2.63.11,2.08.01,4.27,0,6.33-.03,4.12-.36,8.21-.22,12.35h-2.74c.29-6.33-.38-13,0-19.29Z"/>
  <path d="M171.96,337.92l-2.19,1.71c-.62.24-.15-1.28-.33-1.46-1.35-.19-2.75-.3-3.99.3.5.34,1.12,1.33,1.57,1.59.87.5,4.63.15,5.92.19.28,0,2.34.13,2.4.23.81,1.38-2.89,1.78-3.61,1.94-2.48.57-5.52.91-7.85,1.64-.66.21-1.37,1.14-2,.28-.9-1.23,2.28-2.29,3.15-2.4-.89-.71-2.06-1.01-2.49-2.24-.06-.63,1.64-2.22,2.2-2.57,1.19-.75,2.08-.84,3.33-1.1.53-.11.87-.47,1.49-.43.69.04,2.75,1.7,2.4,2.31Z"/>
  <path d="M322.39,343.07c-.27.43-.27,1.12-.28,1.62l-.71-.03-.31-.32c-.19-.96.14-2.22-.03-3.13-.08-.4-.5-.67-.67-1.23-.32-1.03,0-2.02-.22-2.95-.11-.49-.63-.91-.75-1.57-.14-.76.07-1.57-.06-2.26-.08-.42-.45-.68-.57-1.12-.29-1.13-.08-2.4-.32-3.27-.09-.35-.48-.57-.57-1.11-.26-1.52.39-1.29.72-2,.15-.33.06-.76.22-1.05.24-.42,1.35-.67,1.55-.07.29.88-.08,3.12.25,4.39.81,3.06,1.84,6.51,2.29,9.73.1.69.14,3.15.02,3.78-.09.48-.47.43-.57.58Z"/>
  <path d="M386,340.37c-.03-.1-.45-.33-.58-.69-.35-1-.1-2.02-.27-2.9-.08-.4-.46-.59-.62-1.07-.37-1.08,0-2.59-.26-3.33-.09-.26-.45-.19-.62-.65-.34-.96-.25-2.59-.03-3.6-1.78-.78-.37-1.06-.06-1.57.17-.28.06-.72.23-1.04.15-.29,1.17-1.62,1.47-1.07-.12,2.04.42,3.6.85,5.48.48,2.13.71,4.59,1.19,6.61.1.42.5.66.58,1.11.15.81.11,4.58-.08,5.38-.09.37-.66,1.41-.96,1.57-.32.17-.85.04-.85-.22,0-.86.18-3.42,0-4.01Z"/>
  <path d="M156.24,342.22c-.48.7-.22,1.67-.28,2.47h-.84c-.03-.76-.04-1.88-.26-2.59-1.34-4.24-1.85-8.86-3.06-13.18-.21-.74-.47-2-.03-2.66.18-.28.63-.39.72-.54.12-.2-.42-1.28.21-1.48.78-.25.8.91.99,1.32.84,1.79.41,2.44.82,4.24.28,1.26.56,3.45.86,4.41.1.32.5.44.59.89.19.96-.02,2.17.27,3.31.09.37.48.59.56,1.12.07.43.09,1.69.01,2.1-.09.5-.47.43-.57.58Z"/>
  <path d="M387.58,316.86c.46.14.45,2.2.12,2.44-.74.53-1.99-1.28-3.55-.59-.23.1-.32-.02-.25.36.85,1.65,2.33.94,3.68,1,.97.04,2.03.32,3.06.17.12.74-.53,1.06-1.12,1.31-1.49.63-3.31.26-4.85.6-.18.04-.14.43-.55.54-.65.18-1.32.02-1.98.14-.52.09-1.64.79-1.74.79-.24,0-.4-.37-.11-.74.45-.57,2.5-1.2,2.51-1.47-.48-.86-1.15-1.81-.71-2.85.15-.35,1.97-1.69,2.31-1.69h3.16Z"/>
  <path class="st1" d="M283.6,291.84c-.23.37-.42.77-.5,1.2l-.53-.21-2.63-10.65c-.26-.63-.55-1.26-.89-1.85-.28-.48-1.57-2.04-1.62-2.2-.32-1.17,2.04-2.26,2.08-3.43.33.04.33.3.4.55,1.37,4.87,1.22,9,3.36,13.93.3.69,1.09,1.55.85,2.25-.09.27-.46.3-.53.41Z"/>
  <path d="M269.88,350.31c-.14-.1-.14-.41-.58-.59-.84-.34-2.5.57-1.81,1.19.76.16,2.43.93,3.06.96,1,.05,2.32-.76,3.48-.44-.03.43.15,1.07-.21,1.37s-2.81.45-3.48.48c-.32.02-.7-.24-1.02-.19-.22.04-.23.68-.71.82-.51.15-1.31,0-1.98.13-.86.16-1.1.7-1.88.75-.16-1.91,1.34-1.52,2.53-2.21l-1.69-.31c-.34-1.38,1-2.88,2.2-3.39s2.71-.87,3.62.21c.72.87-.28,2.06-1.53,1.2Z"/>
  <path d="M225.11,334.56c-1.1.29-1.92,1.25-3.15.74-.25-.1-.46-.52-.84-.64-1.69-.55-2.29,1.29-3.1,1.35-.59-.22-3.05-1.06-3.05-1.75,0-.75.57-.72.98-1.15.46-.47.65-1.26,1.43-1.08.17.04.2.44.49.6.56.32,1.33.35,1.84.87.68-.46,1.23-1.58,2.14-1.58.75,0,3.76,1.91,3.26,2.64Z"/>
  <path d="M346.35,330.35h-.41c-.48,1.18-1.73,2.27-3.07,1.71-.79-.33-1.02-1.2-2.21-.87-.54-.53,1.9-2.43,2.46-2.7,1.14.62,2.1,1.27,3.5.97.6-.12,1.05-.92,1.56-.97.12-.01,1.97.8,2.17.92,1.5.88-.13,2.12-.96,2.79-.25.05-3.16-1.2-3.03-1.85Z"/>
  <path d="M133.97,331.47c.2.18.64,1.02.49,1.2-1.1-.11-1.04.88-2.02,1.04-1.85.31-1.82-.76-2.52-.84-.46-.05-1.61.69-2.37.79-1.65.23-2.36-.55-3.85-1.11l2.24-2.2c.41-.07.69.72,1.05.78.3.05.59-.27.92-.07.26.17.34.84,1,.93.83.12,1.65-1.68,2.49-1.88.64-.06.75.51,1.17.73s1.07.32,1.39.61Z"/>
  <path d="M221.72,331.17c-.04.08-1.34.96-1.43.99-.89.29-2.92-.51-3.59-1.07-1.15-.96,1.64-2.03,2.18-2.41.45.47,3.42,1.49,2.85,2.49Z"/>
  <path d="M255.54,329.23c.56.39,2,.29,2.46,1.46.08.44-1.74,1.79-2.21,1.99l-3.26-2.01c.39-.51,1-.65,1.48-1.05s.59-1.18,1.14-.94c.22.09.25.46.39.56Z"/>
</svg>