<?xml version="1.0" encoding="UTF-8"?>
<svg id="Layer_1" xmlns="http://www.w3.org/2000/svg" version="1.1" viewBox="0 0 500 500">
  <!-- Generator: Adobe Illustrator 29.8.1, SVG Export Plug-In . SVG Version: 2.1.1 Build 2)  -->
  <defs>
    <style>
      .st0 {
        fill: #f4b32e;
      }

      .st1 {
        fill: #ce2030;
      }

      .st2 {
        fill: #72645b;
      }
    </style>
  </defs>
  <path class="st0" d="M430.93,165.12c9.92,1.29,18.19,9.16,19.07,19.27v45.04c-36.76-23.13-84.08-24.29-122.49-4.3-.45.23-3.58,2.12-3.75,1.95v-61.98s107.17,0,107.17,0Z"/>
  <path class="st2" d="M50.07,229.59c-.1-.87-.08-2.69,0-3.59.15-1.76.72-3.73,1.21-5.43.23-.81,2.27-6.66,2.62-6.75.23-.06.36.19.39.39.08.45-.85,2.89-1.02,3.66-3.32,14.92,7.92,11.93,17.19,8.75,4-1.38,8.01-2.99,11.9-4.66,1.8-.77,4.55-1.78,6.15-2.75.37-.23.65-.45.93-.79-6.92-6.01-13.97-12.1-20.07-18.97-.61-.68-3.94-4.54-3.98-5.08l.78-5.69.47.23c4.2,4.03,8.07,8.38,12.26,12.42,3.17,3.05,11.17,9.29,12.58,13.03.85,2.24,1.19,7.28-.25,9.28-.23.32-.57.61-.9.82-3.2,2.11-9.1,4.46-12.77,5.97-6.38,2.64-26.05,11.12-27.49-.85Z"/>
  <path class="st2" d="M50.07,254.73c4.25.23,8.83-.31,13.04,0,8.07.6,12.53,8.15,6.8,14.59l-2.5,1.64c3.14.38,6.1,3.1,6.68,6.21,1.03,5.53-2.02,9.8-7.43,10.92s-11.18.24-16.59.51v-33.88ZM55.07,268.78h7.73c1.16,0,3.19-1.1,3.91-2.03,1.21-1.55.88-4.67-.54-6.02-.73-.7-2.36-1.48-3.36-1.48h-7.73v9.52ZM55.07,284.7c3.73-.1,7.86.42,11.4-1.02s3.75-7.27.42-9c-.42-.22-2.97-1.06-3.31-1.06h-8.51v11.08Z"/>
  <path class="st1" d="M449.99,288.44h-105.38c-11.18-.61-20.23-9.07-20.86-20.37l.03-32.84c7.19-4.04,14.87-7.26,22.94-9.16,24.4-5.75,50.01-.96,70.35,13.53,16.27,11.59,28.57,29.21,32.91,48.83Z"/>
  <path class="st2" d="M269.25,224.21c.87,6.85,12.73,6.23,17.5,4.84,3-.87,3.46-1.86,2.51-4.84-.78-2.45-2.51-4.44-3.87-6.57.54-1.86,1-3.8,1.66-5.62.23-.63.41.12.6.37,4.55,5.73,5.95,9.73,3.71,17.06-1.23,4.01-2.33,5.06-6.45,5.73-6.19,1.01-14.73.84-16.91-6.35-3.37,4.65-8.63,6.58-14.3,6.25-8.39-.48-11.99-5.38-12.41-13.36,0-.18.1-.43-.15-.39-.02.22-.12.43-.25.61-4.6,6.99-19.31,11.2-27.22,12.61-6.55,1.16-13.63,1.79-20.23.86-2.32,1.59-4.61,3.24-7.14,4.5l4.37-5.15c-7.05-1.79-10.83-7.61-8.79-14.8,1.06-3.73,3.22-7.91,6.13-10.5l-2.21,4.11c-1.63,3.73-2.58,8.3.19,11.73,2.25,2.79,5.01,4,8.52,4.55.54-.09,1.55-2.94,1.71-3.53,2.81-10.57-6.2-26.01-11.73-34.8l-8.97-13.28,2.5,28.02c-.13,8.06,3.22,24.01-6.48,27.87-3.2,1.27-8.83,1.55-11.65-.7-2.1-1.68-2.03-5.16-2.26-7.57-3.8,3.71-8.09,7.2-13.16,9.01s-10.46,1.98-15.45-.25c-6.79-3.02-7.61-9.75-7.94-16.42-.92,2.63-1.94,5.18-3.33,7.6-3.16,5.47-7.61,10.17-13.58,12.5-5.39,2.11-11.6,3.11-17.38,3,1.44-1.01,3.29-1.59,4.9-2.36,5.02-2.4,11.35-5.64,15.48-9.35,5.26-4.72.74-12.74-2.45-17.37-7.17-10.44-16.36-19.35-23.31-30.25-.47-.74-2.13-3.13-2.14-3.81-.02-.89,1.01-4.75,1.41-5.64.08-.18-.07-.28.32-.22,2.26,3.72,4.39,7.58,6.91,11.13,4.25,5.99,9.47,11.43,14.03,17.21,5.2,6.59,11.39,14.77,10.09,23.65l-.79,2.34c3.26-2.96,5.79-6.73,6.94-11.02,1.63-6.09.43-13.37.16-19.65-.34-7.98-.59-15.91-.93-23.89.1-.82.9-1.98,1.34-2.72.76-1.26,1.72-2.71,2.72-3.76.09,1.53.09,3.07.16,4.6.45,10.17.43,20.4.63,30.59.23,11.74-.05,32.29,17.62,28.55,7.64-1.62,14.1-6.6,18.93-12.54.29,2.84.65,5.91,1.85,8.53.57,1.24,1.71,2.97,3.14,3.26.6.12,2.67-.02,3.37-.09,2.14-.21,6.69-1.06,7.1-3.68.47-3.02-.34-7.16.02-10.3-.92-12.64-1.68-25.3-2.82-37.93-.16-1.75-.92-4.79-.39-6.32.49-1.41,1.52-2.8,2.03-4.22,7.54,11.94,16.48,23.08,22.4,36.01,3.87,8.46,7.5,19.49,2.37,28.15,6.61.59,13.25-.5,19.69-1.95,5.98-1.35,16.63-4.27,21.17-8.35,3.15-2.83,1.5-4.41-.65-7.17-5.71-7.33-12.72-13.5-18.31-21.2-.84-1.15-3.23-4.28-3.66-5.4-.29-.77-.04-2.57.05-3.45.08-.75.66-4.51,1.08-4.86,5.58-1.82,11.32-3.16,17.02-4.53,12.14-2.92,24.36-5.54,36.6-8.01,1.92.34.59,4.75.26,5.97-.66,2.44-1.75,5.08-2.73,7.42-2.16,5.17-4.79,10.14-7.57,14.99l-.31-.08c1.62-3.73,3.19-7.49,4.65-11.28,1-2.6,3.71-8.67,3.31-11.19-.16-1-1.11-.92-1.92-.85-2.11.19-4.99,1-7.16,1.43-11.72,2.37-24.12,4.94-35.62,8.11-.64.18-5.11,1.36-5.12,1.75,3.37,5.32,6.81,10.2,11.01,14.91,5.54,6.21,12.96,12.16,13.96,21.02.08.71-.04,1.43.04,2.15.61,5.62,4.72,8.89,10.1,9.73,7.09,1.1,11.67-3.63,15.5-8.85.11,1.16-.14,2.54,0,3.67Z"/>
  <path class="st2" d="M189.57,288.91h-5.78l-3.59-9.45-13.99-.09-3.9,9.53h-5.08l13.66-33.89c1.49.15,3.25-.17,4.7,0,.22.03.41.01.52.26l13.45,33.63ZM178.64,275.18l-5.55-14.52-5.55,14.52h11.09Z"/>
  <path class="st2" d="M292.68,255.04l-.31,34.19h-4.69c-.19-.42-.03-2.66-.39-2.65-1.15,1.34-3.44,2.81-5.19,3.08-5.56.87-10.58-1.41-12.38-6.91-3.28-9.98,3.68-19.25,14.25-17.99,1.42.17,2.54.95,3.87,1.36v-11.08h4.84ZM287.65,270.67c-2.29-1.27-4.41-1.96-7.09-1.75-9.25.73-9.17,18.72,2.43,16.32,2.27-.47,3.35-1.63,4.24-3.72.65-1.53.45-1.65.43-3.14-.02-2.57.05-5.14-.02-7.71Z"/>
  <path class="st2" d="M205.51,254.73v12.65c.26-.09.28-.4.55-.63,4.28-3.63,11.47-2.89,15.07,1.33,2.84,3.32,3.61,9.38,2.01,13.4-3.38,8.53-12.76,9.3-20.66,7.26-.56-.15-1.23-.29-1.66-.68v-33.33h4.69ZM210.47,268.5c-1.02.15-2.76,1.41-3.4,2.22-2.73,3.46-1.15,9.72-1.54,13.87,1.53.84,3.61.99,5.37.88,11.7-.77,10.58-18.59-.43-16.97Z"/>
  <path class="st2" d="M93.34,289.23v-2.65c-3.27,3.38-9.73,4.22-13.73,1.78-4.27-2.59-4.11-8.8-.56-11.93,3.72-3.3,9.4-2.34,13.99-2.49.89-7.42-8.95-6.2-12.89-3.27l-2.41-3.05c.73-.49,1.5-1.23,2.28-1.62,5.87-2.98,17.87-2.22,17.87,6.46v16.55l-.23.23h-4.3ZM93.03,277.67h-6.48c-.51,0-2.73.7-3.23.99-2.35,1.39-2.75,5.38-.08,6.69s6.65.39,8.7-1.82c.28-.3,1.09-2.02,1.09-2.34v-3.51Z"/>
  <path class="st2" d="M265.97,289.23h-4.3l-.23-.23v-2.42c-3.44,3.9-12.14,4.45-15.46.23-2.03-2.58-1.79-6.78.23-9.29,3.67-4.56,9.88-3.44,15.08-3.59.69-7.45-8.95-6.17-13.02-3.3l-2.3-3.16c4.42-3.61,13.95-4.44,18.14-.18.83.84,1.87,3.06,1.87,4.22v17.72ZM261.44,277.67h-6.48c-.6,0-2.87.76-3.41,1.12-2.12,1.43-2.46,5.04-.05,6.4,2.72,1.54,6.68.65,8.78-1.58.31-.33,1.17-1.9,1.17-2.27v-3.67Z"/>
  <polygon class="st2" points="133.18 255.04 133.18 274.86 143.41 265.18 148.96 265.18 139.93 274 150.36 288.91 144.66 288.91 136.38 277.21 133.18 280.25 133.18 288.91 128.49 288.91 128.49 255.04 133.18 255.04"/>
  <path class="st2" d="M124.27,288.91h-4.84v-15.53c0-.41-.57-1.89-.81-2.31-1.48-2.62-5.54-3.01-7.99-1.65-1.6.89-3.54,4.02-3.54,5.83v13.35h-4.84v-23.57h4.53c.17.57,0,3.11.39,3.28,2.15-3.37,6.84-4.42,10.58-3.54,4.62,1.09,6.27,5.2,6.53,9.56.28,4.77-.21,9.8,0,14.6Z"/>
  <rect class="st2" x="191.45" y="255.04" width="4.84" height="33.88"/>
  <rect class="st2" x="237.22" y="255.04" width="4.69" height="33.88"/>
  <polygon class="st2" points="227.38 288.91 227.38 265.18 231.99 265.18 232.22 265.42 232.22 288.68 231.99 288.91 227.38 288.91"/>
  <path class="st2" d="M218.47,199.46c.12.12-.38,2.48-.56,2.8-.37.67-2.8,2.06-2.87,2.45-.09.53,3.1,1.7,3.69,2.06.4.25.87.49,1.12.92.13.52-1.59,4.03-1.98,4.68-2.63,4.37-8.4,4.65-12.99,4.27l6.15-2.52c1.9-1.02,4.02-1.79,5.57-3.34-1.24-.54-4.51-1.52-4.81-3-.47-2.34,2.88-5.74,4.58-7.06.27-.21,1.89-1.47,2.1-1.25Z"/>
  <path class="st2" d="M275.38,244.38c-.22-.24-.14-.38-.03-.62.17-.38,2.65-3.8,2.89-3.85,1.47,1.13,3.53,2.15,4.89,3.36.19.17.47.31.48.61,0,.25-2.82,3.91-3.07,3.96l-5.17-3.46Z"/>
  <path class="st2" d="M267.95,204.63c.35-.09,4.75,3.17,5.34,3.69l-.16.73-2.87,3.49-5.22-3.66c-.08-.26.03-.4.13-.61.17-.36,2.55-3.59,2.77-3.64Z"/>
  <path class="st2" d="M159.52,239.91c.65.51,4.9,3.29,5.04,3.68.11.31,0,.5-.13.77-.16.37-2.4,3.45-2.61,3.48l-5.19-3.69.06-.51,2.83-3.74Z"/>
  <rect class="st2" x="227.22" y="255.82" width="5.16" height="5.15"/>
</svg>