<?xml version="1.0" encoding="UTF-8"?>
<svg id="Layer_1" xmlns="http://www.w3.org/2000/svg" version="1.1" viewBox="0 0 500 500">
  <!-- Generator: Adobe Illustrator 29.8.1, SVG Export Plug-In . SVG Version: 2.1.1 Build 2)  -->
  <defs>
    <style>
      .st0 {
        fill: #eb654c;
      }

      .st1 {
        fill: #243143;
      }
    </style>
  </defs>
  <g>
    <path class="st1" d="M157.46,385.76v-64.01h28.36c.47,0,5.54,1.77,6.4,2.14,22.08,9.73,22.87,47.36,1.77,58.44-2.06,1.08-8.52,3.42-10.61,3.42h-25.92ZM170.27,373.57h11.28c.46,0,3.47-1,4.2-1.29,12.7-4.99,14.28-25.92,4.85-34.58-1.03-.95-5.49-3.76-6.61-3.76h-13.72v39.62Z"/>
    <path class="st1" d="M322,321.3c28.36-4.06,28.99,21.43,27.59,42.2-1.09,16.09-10.93,25.13-27.47,22.59-20.04-3.07-18.74-27.25-17.68-42.73.72-10.56,6.23-20.44,17.57-22.07ZM325.04,332.87c-5.52.83-7.95,4.62-8.4,9.89s-.6,22.2,1.12,26.35c3.45,8.32,17.43,7.22,19.37-2.22.93-4.52.76-19.78.26-24.72-.68-6.78-5.62-10.32-12.35-9.31Z"/>
    <path class="st1" d="M291.04,321.14l-12.8,23.77c21.81-5.25,31.22,25.27,15.19,37.44-9.8,7.44-29.8,5.34-35.25-6.73-8.58-19.01,12.11-38,18.83-54.48h14.03ZM276.24,354.82c-9.63,1.64-10.66,16.1-2.11,19.49,17.66,6.99,20.35-22.6,2.11-19.49Z"/>
    <path class="st1" d="M252,321.75l-12.82,23.46c-.19,1.38.28.71.92.92,10.96,3.64,13.96,12.86,12.24,23.8-3.7,23.51-41.13,21.45-40.59-3.08h10.98c.08,9.49,14.2,11.01,17.37,2.42,4.05-10.99-6.12-17.5-16.14-14.62l.47-2.87,10.5-19.68h-21.35c-.16-.45.61-.73.61-.91v-9.45h37.82Z"/>
  </g>
  <path class="st0" d="M329.31,115.78v150.21c0,.65-.26,1.28-.72,1.74l-25.05,25.05c-.46.46-1.09.72-1.74.72h-60.95c-1.36,0-2.46-1.1-2.46-2.46v-25.43l-25.68,25.69c-.48.48-1.26.48-1.74,0l-60.62-60.62c-.48-.48-.48-1.26,0-1.74l60.48-60.68c.48-.48,1.26-.48,1.74,0l25.83,25.83v-52.47c0-.65.26-1.27.72-1.73l25.74-25.83c.46-.46,1.09-.72,1.74-.72h60.26c1.36,0,2.46,1.1,2.46,2.46Z"/>
</svg>