<?xml version="1.0" encoding="UTF-8"?>
<svg id="Layer_1" xmlns="http://www.w3.org/2000/svg" version="1.1" viewBox="0 0 500 500">
  <!-- Generator: Adobe Illustrator 29.8.1, SVG Export Plug-In . SVG Version: 2.1.1 Build 2)  -->
  <defs>
    <style>
      .st0 {
        fill: #004728;
      }

      .st1 {
        stroke: #aa9832;
        stroke-miterlimit: 10;
      }

      .st1, .st2 {
        fill: #aa9832;
      }
    </style>
  </defs>
  <g>
    <path class="st2" d="M318.1,180.98c-7.72-1.98-16.06,2.89-20.02,9.29-7.98,12.87-1.39,27.74,14.51,20.31-.18.76-2.3,9.46-10.45,12.48-13.16,4.88-14.98-4.72-15.96-18.57-1.96.97-4.93,2.8-6.96,6.09-4.81,7.79.33,16.16-4.65,22.35-1.16,1.44-3.36,3.37-7.83,4.35,5.21-6.31,6.72-14.7,3.77-21.76-1.67-4.02-11.66-19.01-28.15-7.84-7.58,5.14-12.67,15.27-10.73,25.54,1.77,9.37,8.59,14.62,10.44,15.96-13.17,14.35-30.07,24.13-48.92,20.97-36.31-6.09-39.54-36.73-38.13-76.98.71-20.25,3.82-37.65,7.25-51.36l-4.64,3.19c-4.38,12.88-9.96,31.1-14.8,53.4-9.37,43.2-8.27,77.05,46.14,82.41,37.2,3.67,62.31-26.56,65.58-30.47.66.17,13.68,3.4,22.63-5.52,5.42-5.39,6.22-12.1,6.39-14.21,2.58.92,15.78,5.37,29.31-1.46,28.28-14.27,19-44.63,5.22-48.17ZM250.74,236.38c-4.57,0-8.27-4.15-8.27-9.26s3.7-9.27,8.27-9.27,8.28,4.15,8.28,9.27-3.71,9.26-8.28,9.26ZM310.9,202.78c-3.24,0-5.88-3.08-5.88-6.87s2.64-6.87,5.88-6.87,5.88,3.08,5.88,6.87-2.63,6.87-5.88,6.87Z"/>
    <circle class="st2" cx="301.23" cy="170.35" r="8.44" transform="translate(-31.08 73.77) rotate(-13.28)"/>
    <circle class="st2" cx="238.09" cy="194.43" r="8.19"/>
  </g>
  <path class="st2" d="M166.17,320.96l-11.97,6.13-.78,27.14c-.42,4.84-1.78,12.83-6.62,21.19-2.92,5.05-10.64,18.4-26.48,21.85-17.78,3.87-31.72-7.79-33.43-9.27,1.24.75,15.99,9.28,31.78,1.98,11.73-5.42,19.36-17.44,19.53-30.78l.15-23.99-13.23,6.77-.33-7.28,13.61-7.14.13-21.33c.38-2.54,1.64-8.65,6.62-14.23,6.54-7.33,14.95-8.66,17.21-8.94l-.9,1.11c-4.14,5.07-6.45,11.38-6.59,17.92l-.12,6.13-.32,10.94,10.75-5.64.99,7.44Z"/>
  <path class="st2" d="M408.65,234.23c-6.7-6.91-17.59-4.2-19.2-3.8-9.06,2.25-14.75,9.28-24,21.02-8.89,11.28-11.72,18.19-17.71,18.37-3.89.12-7.15-2.66-9.27-4.97l-1.32-33.93c-1.39.19-6.9,1.09-10.93,5.96-2.67,3.23-3.4,6.65-3.64,8.28-35.71-7.27-39.36,58.43-5.13,41.21,7.57-3.81,11.16-10.2,12.42-12.74,7.89,3.71,13.62,3.5,17.38,2.64,9.11-2.07,16.09-10.13,27.97-24.16,6.46-7.64,10.2-13.06,14.89-12.41,2.33.32,7.18,2.3,8.11,6.28.68,2.89-4.17,9.79-11.74,13.57l-118.81,59.32v7.57c73.12-35.83,122.2-59.88,132.54-64.73,2.53-1.19,10.04-4.65,12.25-11.75,1.6-5.16.2-11.59-3.81-15.73ZM326.25,264.89c-.76,7.43-6.03,12.98-11.76,12.39-5.72-.59-9.75-7.1-8.98-14.53.76-7.43,6.03-12.98,11.76-12.39,5.72.59,9.75,7.09,8.98,14.53ZM156.9,380.72c30.08-14.73,58.28-28.55,84.07-41.18.09-1.01.13-2.03.14-3.05v-4.35l-85.7,42.78,1.49,5.8Z"/>
  <path class="st2" d="M251.08,274.95v36.75h-15.89v-25.66h-9.77v37.08c-.28.57-2.05,3.92-6.12,5.13-4.3,1.27-7.76-.84-8.28-1.16l-1.15-35.59c-1.16.49-3.14,1.49-4.97,3.48-2.17,2.36-2.99,4.86-3.31,6.12-1.45-.51-10.26-3.47-18.37,1.33-8.15,4.81-9.89,13.86-10.26,18.2-2.62,30.91,27.2,31.24,34.42,11.92,5.05,3.19,11.37,3.32,16.22.33,5.92-3.65,6.85-10.21,6.96-11.09h16.55v14.74c-.08,10.6-3.7,20.87-10.3,29.17l-5.1,6.41c3.87-1.13,12.13-4.12,19.2-11.92,10.25-11.29,10.74-24.63,10.76-28.14v-57.1h-10.59ZM205.34,324.23c-.76,7.43-6.03,12.98-11.76,12.39-5.72-.59-9.75-7.1-8.98-14.53.76-7.43,6.03-12.98,11.76-12.39,5.72.59,9.75,7.09,8.98,14.53Z"/>
  <path class="st2" d="M270.78,311.2c6.86-5.27,9.67-10.81,10.92-14.07,2.45-6.38,2.27-12.79,2.15-17.05-.23-8.24-2.03-11.68,0-17.21,1.27-3.47,3.38-5.92,4.97-7.45-1.78.32-5.2,1.19-8.61,3.81-3.84,2.95-5.49,6.44-5.79,7.12-1.51,3.33-1.49,6.13-1.49,9.93,0,5.29-.02,15.86-.5,22.68-.2,2.81-.62,7.05-1.66,12.25Z"/>
  <polygon class="st1" points="265.81 283.56 266.47 289.35 289.32 278.76 287.99 273.46 265.81 283.56"/>
  <circle class="st2" cx="275.16" cy="252.68" r="5.05"/>
  <circle class="st2" cx="284.16" cy="253.68" r="5.05"/>
  <path class="st0" d="M173.87,101.95c-6.11,0-11.33,3.78-13.48,9.12-2.27-3.68-6.33-6.14-10.98-6.14h0c-7.13,0-12.91,5.78-12.91,12.91,0,2.58.77,4.98,2.07,7-3.09,2.66-5.05,6.6-5.05,11,0,8.02,6.5,14.52,14.52,14.52h0c4.44,0,8.4-1.99,11.06-5.13,2.26,1.95,5.2,3.14,8.43,3.14,7.13,0,12.91-5.78,12.91-12.91h0c0-1.97-.45-3.83-1.24-5.5,5.38-2.13,9.19-7.36,9.19-13.5h0c0-8.02-6.5-14.52-14.52-14.52Z"/>
</svg>