<?xml version="1.0" encoding="UTF-8"?>
<svg id="Layer_1" xmlns="http://www.w3.org/2000/svg" version="1.1" viewBox="0 0 500 500">
  <!-- Generator: Adobe Illustrator 29.8.1, SVG Export Plug-In . SVG Version: 2.1.1 Build 2)  -->
  <defs>
    <style>
      .st0 {
        fill: #306681;
      }

      .st1 {
        fill: #2f6780;
      }

      .st2 {
        fill: #8ac042;
      }

      .st3 {
        fill: #00c0f3;
      }
    </style>
  </defs>
  <polygon class="st3" points="199.53 135.1 199.53 235.8 144.91 262.24 144.91 161.91 199.53 135.1"/>
  <polygon class="st1" points="249.62 50 249.62 308.81 237.28 305.12 237.25 144.83 209.33 130.7 209.47 76.69 249.62 50"/>
  <polygon class="st2" points="328.65 129.81 328.65 163.8 314.06 157 314.06 250.15 276.3 231.65 276.34 162.2 300.46 150.2 300.46 116.21 328.65 129.81"/>
  <path class="st2" d="M354.83,295.22c.12.58-.06.4-.32.57-.54.34-1.61.69-2.28.99-53.47,23.68-107.91,45.25-161.38,68.94h-80.92c.42-.65,1.59-.83,2.32-1.07,74.51-24.74,149.83-47.02,225.09-69.42h17.49Z"/>
  <path class="st0" d="M253.9,431.42h45.43c2.8,0,5.29-3.5,5.85-5.99,1.17-5.23.78-8.91,3.64-13.98,8.44-14.96,34.47-14.97,42.87.07,5.47,9.79,4.06,25.08-4.66,32.61-10.9,9.42-32.22,7.5-38.52-6.42-2.91,3.94-7.2,5.27-11.94,5.55h-91v-11.84h36.24v-11.96c0-2.89-4.19-7.68-7.17-7.68h-17.87l-.38-.38v-11.46c10.43.66,24.05-2.59,32.23,5.65,6.32,6.38,5.13,17.58,5.28,25.82ZM328.34,410.34c-14.45,1.96-13.38,30.32,2.45,29.64,16.07-.69,15.24-32.04-2.45-29.64Z"/>
  <path class="st1" d="M308.9,365.71l-53.74-22.91.32-.56,26.73-11.23c34.32,11.02,68.74,21.73,103.02,32.87,1.35.44,2.84.87,4.15,1.39.27.11.75.07.69.44h-81.17Z"/>
  <path class="st0" d="M156.49,399.95v27.57c0,13.7,26.59,14.39,27.62.94.7-9.46.14-19.01.32-28.51h11.83v29.08c-.74,18.23-17.37,22.66-32.78,20.45-25.63-3.68-17.75-30.24-19.09-48.66l.39-.87h11.7Z"/>
  <polygon class="st3" points="340.23 169.84 355.09 177.06 355.1 242.48 340.23 249.9 340.23 169.84"/>
  <path class="st3" d="M163.16,295.47l79.41,23.67c-.27.47-1.3.65-1.82.82-7.6,2.41-15.34,4.45-22.98,6.74-20.28-8.56-40.54-17.16-60.77-25.82-3.57-1.53-7.22-2.99-10.75-4.61-.38-.18-1.21-.42-1.34-.8h18.25Z"/>
  <rect class="st0" x="164.29" y="388.37" width="11.83" height="11.58"/>
</svg>