<?xml version="1.0" encoding="UTF-8"?>
<svg id="Layer_1" xmlns="http://www.w3.org/2000/svg" version="1.1" viewBox="0 0 500 500">
  <!-- Generator: Adobe Illustrator 29.8.1, SVG Export Plug-In . SVG Version: 2.1.1 Build 2)  -->
  <defs>
    <style>
      .st0 {
        fill: #0d4131;
      }
    </style>
  </defs>
  <path class="st0" d="M123.18,448.7l-.21-63.96c-.28-2.13-7.33-6.76-9.01-8.95-.3-.39-.76-.5-.58-1.18,7.49.16,15.65-.9,21.69,4.38l46.12,43.26c1.79.42.79-.93.79-1.18v-46.06l14.5-.39v73.11c0,.1-.47,1.35-.63,1.4l-6.61-.43c-16.15-13.56-30.96-28.97-46.85-42.92-1.46-1.28-3.39-3.35-5.1-3.72v47.04c-.29.1-.47-.39-.59-.39h-13.52Z"/>
  <path class="st0" d="M220.39,448.7v-73.69s14.11-.4,14.11-.4c-.03,8.3.02,16.61.02,24.91,0,1.78-.94,3.98.57,5.67h43.51l.59-.59v-29.6l14.5-.39v74.09h-14.5v-29.99l-.59-.59h-43.9l-.59.59v29.99h-13.72Z"/>
  <path class="st0" d="M329.37,273.47c-17.28-12.27-39.59-6.38-59.38-7.85-2.69-.2-5.85-.98-8.44-1.76-16.62-4.99-28.23-19.45-30.18-36.65.34-.34,7.19,4.4,8.24,4.89,16.36,7.73,42.01-.01,59.66,4.63,16.89,4.44,29.04,19.25,30.1,36.74Z"/>
  <path class="st0" d="M239.2,86.49c3.63,8.68,10.08,15.83,17.3,21.71,17.19,14,36.69,20.66,40.28,45.57,1.33,9.22-.79,18.9-5.63,26.79-2.21-5.54-4.57-11.13-8.81-15.49-16.63-17.14-43.83-23.22-48.84-50.34-1.4-7.59.14-21.36,4.8-27.75.26-.35.01-.7.89-.49Z"/>
  <path class="st0" d="M252.54,155.09h-7.25c-14.82,0-37.84,26.48-53.52,31.94-16.55,5.77-33.23,1.23-45.06-11.36.34-.57.83-.47,1.34-.62,3.15-.89,6.58-1.21,9.93-2.22,21.36-6.43,37.19-30.98,59.49-32.64,11.25-.84,23.13,3.34,31.56,10.77,1.19,1.05,2.99,2.67,3.52,4.12Z"/>
  <path class="st0" d="M351.2,147.92c-.44.5-1.56,1.12-2.24,1.87-1.85,2.04-3.83,4.49-5.4,6.75-16.06,23.07-10.18,58.08-42.5,68.04-7.65,2.36-14.76,1.84-22.65,1.46l.24-1.2c7.31-3.53,11.63-10.75,14.37-18.09,8.73-23.38,10.31-52.18,39.18-59.61,6.16-1.58,13.56-2.34,19.5-.09-.25.24-.28.61-.51.87Z"/>
  <path class="st0" d="M216.08,183.31c-.64,4.08-2.47,7.79-2.74,11.96-.79,12.38,10.8,35.88,13.45,49.65,3.73,19.43-6.19,37.47-24.03,45.4-.24-.33,1.11-6.8,1.19-8.02,1.23-18.04-9.14-34.74-12.76-51.96-4.12-19.6,6.66-39.31,24.89-47.04Z"/>
  <path class="st0" d="M386.5,382.55l.28,1.08-7.04,10.97c-4.76-4.64-13.41-7.39-20-7.83-18.83-1.26-35.89,10.95-30.57,31.35,4.85,18.59,26.72,21.2,42.34,15.3,3.11-1.18,5.85-3.17,8.96-4.35l6.46,10.51-.33,1.09c-5.48,3.51-11.13,6.48-17.56,7.92-27.51,6.18-57.05-8.01-55.35-39.28,2-36.84,46.79-44.56,72.81-26.76Z"/>
  <path class="st0" d="M308.2,146.07v-5.68c0-9.39,8.51-20.03,16.46-24.31,8.82-4.75,32.58-8.55,43.44-10.66,2.44-.47,4.91-.78,7.34-1.3l.97.6v5.88c0,1.65-1.91,7.38-2.81,8.95-9.45,16.41-42.94,12.43-58.21,21.37l-7.19,5.16Z"/>
  <path class="st0" d="M181.19,201.35c.81.74-5.66,7.16-6.46,7.85-9.84,8.43-21.35,9.09-33.12,4.49-11.36-4.44-24.54-10.47-35.56-15.79-.97-.47-2.29-1-3.16-1.52-1.49-.89,1.26-4.25,2.05-5.21,6.18-7.56,16.05-10.05,25.28-6.85,10.12,3.51,20.95,9.9,31.1,13.98,6.57,2.64,12.64,4.49,19.86,3.07Z"/>
  <path class="st0" d="M316.83,230.75c10.41-3.14,20.25-2.85,29.36,3.36,9.9,6.75,18.36,25.75,24.66,36.49,1.9,3.24,4.91,7.22,6.43,10.44.17.36.5.7.14,1.08-11.49,6.24-23.63,1.7-30.57-8.67s-15.19-31.1-24.53-38.59c-1.52-1.22-3.56-1.88-4.84-3-.4-.35-.82-.38-.65-1.11Z"/>
  <path class="st0" d="M225.1,127.64c-10.45-2.91-18.41-9.65-22.25-19.89-4.15-11.04.23-29.77,1.47-41.85.2-1.9.81-15.7,1.82-15.91,12.49,2.82,19.71,11.51,18.95,24.53-.69,11.85-2.92,23.8-3.52,35.68-.31,6.07.84,12,3.52,17.44Z"/>
  <path class="st0" d="M207.71,337.51c-5.8-4.94-7.62-13.7-5.55-20.92,2.78-9.7,22.25-27.32,29.37-36.49,3.79-4.88,4.48-7.73,6.06-13.55.14-.53-.27-1.1.63-.92,3.39,4.08,6.31,9.83,7.22,15.13,3.03,17.77-10.46,28.39-20.94,40.13-1.77,1.99-3.3,4.29-5.08,6.28-3.4,3.77-7.17,7.23-10.38,11.18-.83.63-.96-.54-1.32-.85Z"/>
  <path class="st0" d="M180.02,219.77c-1.71,13.99-9.64,22.4-23.12,25.68-12.28,2.99-24.9,4.65-37.1,8.02-1.87.21-1.37-2.32-1.27-3.66.74-10.28,5.83-15.04,15.3-17.62,13.07-3.56,30.6-4.58,42.54-10.38,1.34-.65,2.21-1.8,3.65-2.03Z"/>
  <path class="st0" d="M207.07,131.96c-11.88,1.92-21.73-.54-29.17-10.22l-21.62-37.22c4.72-3.7,10.99-3.42,16.17-.84,3.82,1.91,5.84,4.48,8.13,7.94,8.1,12.22,13.46,26.74,23.74,37.42.47.49,3.34,2.27,2.76,2.92Z"/>
  <path class="st0" d="M328.08,67.32c1.23-.32,3.25,3.6,3.79,4.71,4.78,9.77,1.06,15.8-5.25,23.27-7.53,8.9-17.67,17.72-23.83,27.52-.67,1.06-3.08,7.05-4.18,6.79-6.81-10.44-5.24-24.9,3.52-33.72l25.96-28.57Z"/>
  <path class="st0" d="M268.2,340.5c-6.25-1.05-12.25-5.13-14.4-11.25-2.42-6.9.74-20.11,1.48-27.75.91-9.42,1.78-19.09,0-28.41,4.39,1.05,9.31,4.97,12.14,8.43,8.18,10.03,5.03,20.88,3.93,32.53-.83,8.81-1.35,17.76-3.15,26.45Z"/>
  <path class="st0" d="M397.54,225.29c-.64,4.65-6.5,8.84-10.86,10.04-9.61,2.64-23.15-6.14-32.24-9.87-5.63-2.31-13.26-5.63-19.12-6.76-1.63-.31-4.62-.23-5.7-.57-.38-.12-.74-.48-.65-.91,6.15-7.04,15.06-10.87,24.49-10,7.73.72,25.91,10.66,34.04,14.17,3.29,1.42,6.64,2.73,10.03,3.89Z"/>
  <path class="st0" d="M185.84,142.1c-4.05,3.26-7.85,6.89-12.62,9.14-15.26,7.17-31.82,4.66-44.55-6.14,7.52-7.14,16.13-12.82,26.83-13.54,9.48-.64,17.16.83,25.27,5.73,1.06.64,5.86,3.46,5.07,4.82Z"/>
  <path class="st0" d="M339.96,197.82c1.52-22.49,21.89-38.39,43.9-37.24-1.2,16.34-12.68,30.61-28.31,35.38-1.75.53-6.36,1.86-7.94,1.86h-7.64Z"/>
  <path class="st0" d="M326.24,307.18c-21.28,5.34-43.62-8.55-48.99-29.6.05-.71,6.62-1.35,7.61-1.38,17.04-.67,31.66,8.25,38.7,23.66.39.86,2.95,7.04,2.68,7.32Z"/>
  <path class="st0" d="M271.13,105.14c-6.18-6-11.26-15.67-11.92-24.34-.48-6.33-.27-14.68,2.97-20.13,19.61,7.29,30.42,33.12,21.16,52.12-1.1.91-3.8-1.15-4.9-1.84-2.41-1.52-5.27-3.83-7.32-5.82Z"/>
  <path class="st0" d="M182.18,242.19c12.33,18.53,5.33,43.49-12.95,55.12-.82,0-2.76-4.15-3.13-5.03-2.99-7.14-3.82-15.19-2.37-22.74,2.16-11.28,8.81-21.17,18.44-27.35Z"/>
  <path class="st0" d="M191.73,89.57c-1.56.97-6.43-4.39-7.34-5.7-3.65-5.26-4.46-10.44-3.98-16.79.25-3.3.99-7.04,3.8-9.16.63-.24.99,0,1.5.32,1.15.68,4.34,4.52,5.2,5.78,5.45,8.06,4.78,17.03.81,25.55Z"/>
  <path class="st0" d="M333.69,102.15c1.84-10.03,11.82-17.14,21.75-17.61,1.28-.06,6.06.15,6.68,1.16.77,1.26-2.17,5.95-3.03,7.18-5.42,7.86-16.14,11.91-25.4,9.27Z"/>
  <path class="st0" d="M372.3,241.72c9.4,1.27,19.18,12.75,18.62,22.35-10.65,0-18.92-5.38-23.07-15.15-.97-2.27-1.88-4.69-1.62-7.2,1.92.18,4.22-.25,6.08,0Z"/>
  <path class="st0" d="M243.01,315.87c.71-.04.72.4.93.89,3.08,6.97.44,16.76-4.36,22.36-2.35,2.74-5.98,5.73-9.53,6.44-1.06-.33-1.76-4.88-1.85-6.02-.56-7.75,3.4-16.01,9.46-20.76,1.02-.8,4.18-2.85,5.34-2.92Z"/>
  <path class="st0" d="M114.86,213.61c3.57-.31,8.56.58,11.84,2.04,1.44.64,8.72,5.32,8.05,6.87-8.57,6.47-23.6,6.15-31.19-1.76-2.39-2.49-.24-3.25,2.16-4.53,2.63-1.41,6.16-2.36,9.14-2.62Z"/>
</svg>