<?xml version="1.0" encoding="UTF-8"?>
<svg id="Layer_1" xmlns="http://www.w3.org/2000/svg" version="1.1" viewBox="0 0 500 500">
  <!-- Generator: Adobe Illustrator 29.8.1, SVG Export Plug-In . SVG Version: 2.1.1 Build 2)  -->
  <defs>
    <style>
      .st0, .st1 {
        fill: #003a72;
      }

      .st1 {
        font-family: TrebuchetMS-Italic, 'Trebuchet MS';
        font-size: 31.55px;
        font-style: italic;
      }
    </style>
  </defs>
  <path class="st0" d="M274.96,300.65l.28.36h-39.28l-.28-.36-23.83-31.21-11.57-15.15h-20.71l-24.66-31.21h76.65c7.17,0,13.66-2.9,18.36-7.61s7.6-11.19,7.6-18.36c0-14.34-11.63-25.96-25.96-25.96h-117.68l-24.66-31.21h140.87c15.79,0,30.09,6.4,40.43,16.75,4.16,4.16,7.68,8.95,10.4,14.22,4.05,7.85,6.35,16.76,6.35,26.21,0,28.54-20.91,52.19-48.23,56.48l12.1,15.85,23.84,31.21Z"/>
  <path class="st0" d="M387.2,139.68v98.6c0,34.44-27.92,62.37-62.37,62.37h-31.24l-6.63-8.64-17.24-22.57h52.42c18.69,0,33.84-15.15,33.84-33.84v-64.7h-58.88c-.9-2.32-1.93-4.59-3.07-6.79-3.42-6.62-7.82-12.63-13.08-17.88-2.37-2.37-4.87-4.55-7.49-6.54h113.73Z"/>
  <text class="st1" transform="translate(45.03 352.19)"><tspan x="0" y="0">Rabee Aljazeera</tspan></text>
</svg>