<?xml version="1.0" encoding="UTF-8"?>
<svg id="Layer_1" xmlns="http://www.w3.org/2000/svg" version="1.1" viewBox="0 0 500 500">
  <!-- Generator: Adobe Illustrator 29.8.1, SVG Export Plug-In . SVG Version: 2.1.1 Build 2)  -->
  <defs>
    <style>
      .st0 {
        fill: #2c2a6b;
      }

      .st1 {
        fill: #05b098;
      }

      .st2 {
        fill: #737e92;
        fill-rule: evenodd;
      }
    </style>
  </defs>
  <path class="st0" d="M123.76,230.72l29.17-29.19h-58.34v58.39l-29.17,29.19h58.34v-58.39Z"/>
  <path class="st1" d="M123.76,230.72v29.19h29.17v-58.39l-29.17,29.19ZM65.41,289.11l29.17-29.19v-29.19h-29.17v58.39Z"/>
  <path class="st2" d="M262.11,240.75v5.95h-5.95v-5.95h5.95ZM252.46,240.75v5.95h-5.95v-5.95h5.95ZM234.6,236.08h-23.46v5.31h-15.38c-5.07,0-8.36-1.02-10.95-3.48-2.1-1.98-2.86-5.38-2.86-8.83v-13.24h6.5v12.53c0,2.5.45,4.33,1.79,5.45,1.43,1.24,3.98,1.62,6.48,1.62h8.88v-24.17h5.55v2.95h12c3.83,0,6.86.93,8.98,3.19,1.79,1.93,2.48,5.07,2.48,8.57v10.1ZM228.65,225.72c0-1.71-.4-2.95-1.17-3.93-.71-.93-2.19-1.67-3.74-1.67h-12.6v9.98h17.5v-4.38ZM264.9,236.08h-23.88v-34.55h5.95v28.58h11.95v-18.03h5.98v24ZM307.42,201.55v34.53h-5.95v-34.53h5.95ZM223.91,203.48v5.93h-5.93v-5.93h5.93ZM416.68,201.55v6.02h-5.95v-6.02h5.95ZM434.49,240.8v5.95h-5.98v-5.95h5.98ZM327.28,232.63c-2.1-1.95-2.86-5.38-2.86-8.81v-8.1h6.6v7.36c0,2.52.48,4.36,1.79,5.45,1.45,1.24,3.83,1.62,6.36,1.62h33.81l-.05-28.6h5.95l.07,28.6h31.77v-18.03h5.98v18.03h11.86v-18.03h5.95v23.96h-96.42c-5.07,0-8.22-.98-10.81-3.45h0ZM358.27,221.72h-9.74v-5.36c0-2.12.5-3.79,1.5-4.91,1.02-1.17,2.5-1.76,4.36-1.76h2.93v3.45h-3.29c-.6,0-1.07.21-1.43.67-.4.48-.62,1.17-.62,2.07v2.38h6.29v3.45ZM268.73,245.44c-1.05,0-2.19-.14-2.91-.36v-5.86c.83.19,1.52.26,2.29.26,2.38,0,3.19-1.24,3.19-4.19v-23.22h5.95v18.03h11.86v-28.58h5.95v34.55h-17.86c-.33,6.55-2.86,9.36-8.48,9.36h0ZM201.58,273.78l9.55,15.36h-7.29l-8.93-14.45h-6.45v14.45h-6.5v-36.6h13.72c9.5,0,13.34,5.41,13.34,11.05,0,4.19-1.98,8.38-7.43,10.19ZM202.15,263.73c0-3.67-2.55-5.14-7.93-5.14h-5.76v10.45h5.76c4.79,0,7.93-1.07,7.93-5.31ZM279.21,273.73v13.88c-3,1.19-6.86,1.86-10.38,1.86-5.95,0-11.29-2.07-11.29-7.91,0-5.33,4.62-8.1,11.07-8.1,1.29,0,2.88.07,4.67.33v-.33c0-2.71-2.24-3.48-5.5-3.48-2.45,0-6.05.98-8.38,2.12l.76-6.05c1.91-.93,5.12-1.79,8.43-1.79,6.12,0,10.62,2.5,10.62,9.45h0ZM273.28,278.64c-1.1-.31-2.71-.5-4.02-.5-3,0-5.55.76-5.55,3.05s2.29,2.95,5.22,2.95c1.48,0,3.1-.26,4.36-.67v-4.83ZM301.52,254.61h5.93v33.62c-2.93.81-6.14,1.24-9.57,1.24-8.79,0-13.91-5.43-13.91-12.53s5.33-12.67,13.45-12.67c1.05,0,2.5.12,4.1.33v-10ZM301.52,270.56c-1.43-.38-2.62-.5-3.69-.5-4.64,0-7.64,2.24-7.64,6.86s3,6.74,7.64,6.74c1.14,0,2.38-.17,3.69-.48v-12.62ZM246.51,265.06h5.93v22.07c0,8.43-2.95,11.33-12.41,11.33-1.62,0-4.21-.36-6.12-.83v-5.67c2.14.62,4.64,1.05,6.38,1.05,3.64,0,6.22-1.19,6.22-3.98v-.52c-1.6.36-3.21.52-4.74.52-6.05,0-10.36-1.95-10.36-9.79v-14.19h5.95v12.5c0,4.36,1.4,5.67,4.71,5.67,1.26,0,2.69-.12,4.43-.62v-17.55ZM378.96,273.68v13.91c-3,1.19-6.86,1.86-10.38,1.86-5.95,0-11.29-2.07-11.29-7.93,0-5.33,4.62-8.07,11.07-8.07,1.29,0,2.88.07,4.67.33v-.33c0-2.71-2.24-3.48-5.5-3.48-2.45,0-6.05.98-8.38,2.12l.76-6.07c1.91-.93,5.12-1.76,8.43-1.76,6.12,0,10.62,2.5,10.62,9.43ZM373.03,278.61c-1.1-.31-2.71-.52-4.02-.52-3,0-5.55.76-5.55,3.05s2.29,2.98,5.22,2.98c1.48,0,3.1-.26,4.36-.69v-4.81ZM405.49,274.21v14.91h-5.91v-13.22c0-4.36-1.83-5.67-5.33-5.67-1.29,0-2.83.17-4.52.48v18.41h-5.93v-23.46c3.67-.67,8.12-1.24,10.69-1.24,6.1,0,11,1.95,11,9.79h0ZM434.59,289.11h-7.12l-11.22-11.76v11.76h-5.93v-34.34h5.93v22.24l10.76-11.74h7.02l-10.83,11.81,11.38,12.03ZM352.46,278.4c0,7.67-6.64,10.74-13.31,10.74h-14.64v-36.6h12.84c9.12,0,13.22,4.05,13.22,9.19,0,3.07-1.62,6.19-5.1,7.72,4.93,1.5,7,5.24,7,8.95ZM331,267.28h5.93c4.79,0,6.91-1.43,6.91-4.41,0-2.52-1.93-4.29-6.91-4.29h-5.93v8.69ZM345.74,278.23c0-3.83-2.91-4.88-7.67-4.88h-7.07v9.72h7.24c5.1,0,7.5-1.5,7.5-4.83h0ZM223.94,265.28v23.84h-5.93v-23.84h5.93ZM223.94,254.58v5.93h-5.93v-5.93h5.93Z"/>
</svg>