<?xml version="1.0" encoding="UTF-8"?>
<svg id="Layer_1" xmlns="http://www.w3.org/2000/svg" version="1.1" viewBox="0 0 500 500">
  <!-- Generator: Adobe Illustrator 29.8.1, SVG Export Plug-In . SVG Version: 2.1.1 Build 2)  -->
  <defs>
    <style>
      .st0 {
        fill: #ed1c24;
      }
    </style>
  </defs>
  <polygon class="st0" points="233.2 198.36 179.02 252.58 124.64 198.63 124.64 306.83 179.02 252.88 233.2 307.1 124.51 307.1 70.1 252.73 124.51 198.36 233.2 198.36"/>
  <polygon class="st0" points="233.47 306.83 233.47 198.63 287.75 252.73 233.47 306.83"/>
  <path d="M416.66,263.5c10.36,1,16.22,11.77,7.51,18.94l-4.18,2.06c11.37,1.11,13.55,15.75,3.45,20.6-1.36.66-5.66,2-7.05,2h-21.42v-43.6h21.68ZM404.28,281.57h8.65c.61,0,3.14-.91,3.73-1.33,2.1-1.48,2.69-5.32,1.32-7.43-.72-1.1-3.25-2.67-4.51-2.67h-9.18v11.43ZM404.28,300.45h9.98c.46,0,2.49-.72,2.98-1.01,3.72-2.18,3.72-8.3,0-10.48-.5-.29-2.52-1.01-2.98-1.01h-9.98v12.5Z"/>
  <path d="M340.43,275.19h-9.58c-.67-4.6-3.58-6.48-8.13-6.12-5.32.41-8.73,6.39-3.29,9.42,6.82,3.79,20.09,3.54,21.98,13.13,1.72,8.68-4.7,14.42-12.69,15.89-10.24,1.89-22.94-1.2-22.63-13.7h9.58c-.16,6.44,6.05,8.44,11.43,6.77,4.37-1.36,6.72-6.74,2.33-9.48-6.49-4.05-20.26-3.06-22.2-13.18-1.72-9.01,5.62-14.53,13.9-15.21,9.02-.74,19.32,1.47,19.29,12.49Z"/>
  <path d="M344.15,307.1l17.42-43.34,10.89-.27,17.99,43.62h-10.64l-3.49-9.8h-18.95s-4.03,9.8-4.03,9.8h-9.18ZM373.69,290.61l-7.18-19.94-6.92,19.94h14.1Z"/>
  <polygon points="413.33 198.36 413.33 241.96 377.68 241.96 377.68 235.85 388.05 235.85 388.05 208.73 396.04 208.73 396.04 235.85 405.08 235.85 405.08 198.36 413.33 198.36"/>
  <path d="M338.56,198.36v41.61c0,2.16-1.4,6.17-2.71,7.93-4.8,6.46-21.6,6.2-26.83.32-1.17-1.31-2.92-4.67-2.92-6.39v-14.75h7.98v11.83c0,.9.49,3.05.86,3.93,1.88,4.48,11.26,4.81,13.89,1.24.51-.69,1.48-3.33,1.48-4.1v-41.61h8.25Z"/>
  <path d="M371.29,216.17v26.98c0,5.17-4.96,9.44-9.98,9.44h-12.11v-5.72l.4-.4h10.64c1.57,0,3-3.08,2.79-4.52h-6.52c-2.71,0-6.89-2-8.65-4.11-3.16-3.78-3.22-11.82-.84-16,4.71-8.28,16.4-5.6,24.26-5.67ZM363.04,222.29h-4.66c-.19,0-2.07.67-2.36.84-3.13,1.81-3.36,8.48-1.24,11,.59.7,2.75,1.73,3.59,1.73h4.66v-13.56Z"/>
  <rect x="421.58" y="198.36" width="8.25" height="43.6"/>
  <path d="M397.1,191.98v3.72c-3.6-.84-6.26.7-4.12,4.52h5.19v3.72h-12.24l.12-3.47,2.28-.25c-.41-2.72-.83-5.42,1.77-7.13.41-.27,2.25-1.11,2.62-1.11h4.39Z"/>
</svg>