<?xml version="1.0" encoding="UTF-8"?>
<svg id="Layer_1" xmlns="http://www.w3.org/2000/svg" version="1.1" viewBox="0 0 500 500">
  <!-- Generator: Adobe Illustrator 29.8.1, SVG Export Plug-In . SVG Version: 2.1.1 Build 2)  -->
  <defs>
    <style>
      .st0 {
        fill: none;
      }

      .st1 {
        fill: #d71920;
      }
    </style>
  </defs>
  <g>
    <path d="M273.81,232.02v15.73c1.99-.93,3.88-2.66,5.58-4.09,3.66-3.08,7.11-6.46,10.64-9.68l.12-13.05-46.65-26.48-30.32,17.25v-19.5l30.31-17.51,46.71,25.87v-19.83l-46.71-26.92-46.37,26.92v60.8l46.41-26.22,30.29,16.72Z"/>
    <polygon points="254.88 261.79 270.53 250.54 244.65 235.45 243.24 235.02 197.12 261.68 197.12 282.17 243.3 255.77 254.88 261.79"/>
    <path d="M281.64,266.89c-26.47,20.41-57.24,37.84-90.1,45.26,0,.5,6.91-.49,7.6-.59,29.05-4.23,56.62-18.86,80.47-35.25l10.58,5.52v-13.93c20.73-17.52,43.04-40.97,51.69-67.28.36-1.1.87-2.54.92-3.67-13.57,27.91-36.81,51.16-61.16,69.94Z"/>
    <path d="M213.83,319.86v26.33h-4.91v-15.19c-.61.1-.56.67-.7,1.1-1.49,4.32-1.87,9.65-3.32,14.06,0,.01-.01.02-.01.03h-3.71l-4.06-15.19v15.19h-5.25v-26.33h6.56l4.42,17.37,4.43-17.37h6.55Z"/>
    <path d="M389.18,319.86v26.33h-5.11c-.31-2.38-.18-9.93-.15-11.44.03-1.2.9-2.92-.19-3.67-.04-.03-.08-.06-.12-.08l-3.55,15.19h-4.05l-3.42-13.42-.45-1.77v15.19h-4.92v-26.33h6.55l4.43,17.37,4.59-17.37h6.39Z"/>
    <path d="M338.7,319.86v26.33h-4.91v-15.19c-.95-.15-.54.21-.7.76-1.34,4.71-1.99,9.68-3.32,14.4,0,.01-.01.02-.01.03h-4.06s-.02-.02-.02-.03c-1.34-4.64-2-9.8-3.32-14.4-.16-.55.25-.91-.7-.76v15.19h-4.91v-26.33h6.55l4.43,17.37,4.42-17.37h6.55Z"/>
    <path d="M71.9,328.49c-.19-3.73-.32-5.55,4.11-4.71,1.84.35.84,2.26,1.2,3.39l.49.49,4.66-.33c.29-3.74.26-7.98-4.38-8.48-2.5-.27-8.09-.42-9.89,1.42-1.98,2.03-.89,8.89-.94,11.69l9.96,3.81c-.09,1,.52,4.66-.49,4.99l-4.25-.25c-.81-.63-.36-2.36-.46-3.31h-4.92v5.08c0,.2.75,1.7.97,1.98,1.82,2.29,8.89,2.23,11.38,1.2,2.05-.85,2.83-2.35,3.05-4.49.13-1.28.17-8.22-.3-8.87-.87-1.2-10.05-3.06-10.21-3.62Z"/>
    <path d="M141.25,319.84l-6.05.05-6.37,26.3h4.91l1.07-4.51,7.04-.15,1.59,4.66h4.62l-6.81-26.35ZM136.16,336.9l2.45-9.83,2.13,9.83h-4.58Z"/>
    <path d="M242.32,319.89l-6.05-.05-6.81,26.35h4.62l1.59-4.66,7.04.15,1.07,4.51h4.91l-6.37-26.3ZM236.45,336.9l2.46-9.83,2.45,9.83h-4.91Z"/>
    <path d="M406.5,320.01l-6.35.17-6.17,26.01h4.57l1.13-4.69,7.32-.03,1.28,4.72h4.52l-6.3-26.18ZM400.98,336.9l2.46-10.16,2.45,10.16h-4.91Z"/>
    <path d="M99.81,320.05l-6.11-.21-6.81,26.35h4.62l1.59-4.66,7.04.15,1.06,4.51h4.92l-6.31-26.14ZM93.88,336.9l2.29-9.83c.61.1.55.67.7,1.1.89,2.62,1.28,6,1.92,8.73h-4.91Z"/>
    <path d="M356.25,320.18l-6.72-.31-6.29,26.32h4.81l1.19-4.66,7.18.11,1.38,4.55h4.62l-6.17-26.01ZM350.5,336.9l2.46-10.16,2.46,10.16h-4.92Z"/>
    <path d="M305.87,320.41c-.58-1.11-4.96-.35-6.29-.51l-6.54,26.29h4.57l1.14-4.67h7.48l1.14,4.67h4.96l-6.46-25.78ZM300.03,336.9l2.46-10.16,2.46,10.16h-4.92Z"/>
    <polygon points="176.47 324.77 176.47 331 184.34 331 184.34 335.92 176.96 335.92 176.47 336.41 176.47 341.82 186.63 341.82 186.63 346.19 171.23 346.19 171.23 319.86 186.63 319.86 186.63 324.77 176.47 324.77"/>
    <path d="M282.73,336.81s-.01.07-.02.11h.05v9.27h-5.31v-.51l-.11-9.19-7.13-16.63h5.57c.1.82,4.12,10.52,4.58,10.16l4.27-10.16h5.68l-7.48,16.91h-.09s-.01.03-.01.04Z"/>
    <polygon points="123.56 341.82 123.56 346.19 110.59 346.19 110.59 319.86 115.84 319.86 115.84 341.82 123.56 341.82"/>
    <polygon points="266.22 346.19 266.22 341.82 258.41 341.82 258.41 319.86 253.16 319.86 253.16 346.19 266.22 346.19"/>
    <polygon points="165.98 341.82 165.98 346.19 152.54 346.19 152.54 319.86 157.79 319.86 157.79 341.82 165.98 341.82"/>
    <rect x="284.3" y="166.48" width=".65" height=".32"/>
    <path d="M433.1,319.86v26.33h-5.25v-10.15h-4.82s-.03.05-.04.07v10.08h-5.3v-26.33h5.3v10.52h4.86v-10.52h5.25Z"/>
  </g>
  <path class="st1" d="M183.67,235.63l-7.87,11.3c-5.71,9.6-13.61,24.52-8.04,35.58,7.82,15.53,35.37,8.76,48.28,4.33,36.33-12.45,81.5-45.64,101.81-78.45,17.21-27.79,12.56-50.56-25.06-43.74-2.22.4-4.4,1.13-6.6,1.59-.33.07-1,.52-.92-.1,13.04-3.85,32.08-8.8,44.8-2.03,20.93,11.15,2.42,42.46-7.17,55.55-25.98,35.47-82.08,76.33-125.73,84.36-36.62,6.74-48.79-12.07-31.26-44.04,4.75-8.67,11.17-17.02,17.75-24.36Z"/>
  <line class="st0" x1="290.71" y1="318.96" x2="290.31" y2="319.86"/>
  <line class="st0" x1="282.83" y1="336.77" x2="282.76" y2="336.92"/>
  <line class="st0" x1="291.83" y1="319.86" x2="290.31" y2="319.86"/>
  <line class="st0" x1="282.74" y1="336.77" x2="281.32" y2="336.77"/>
  <line class="st0" x1="283.57" y1="336.77" x2="282.83" y2="336.77"/>
</svg>