<?xml version="1.0" encoding="UTF-8"?>
<svg id="Layer_1" xmlns="http://www.w3.org/2000/svg" version="1.1" viewBox="0 0 500 500">
  <!-- Generator: Adobe Illustrator 29.8.1, SVG Export Plug-In . SVG Version: 2.1.1 Build 2)  -->
  <defs>
    <style>
      .st0 {
        fill: #09594f;
      }

      .st1 {
        fill: #41ad55;
      }
    </style>
  </defs>
  <path class="st0" d="M92.27,209.03c0-16.39,11.83-27.44,27.17-27.44,11.14,0,17.63,6.29,21.22,12.97l-9.31,4.77c-2.14-4.29-6.72-7.71-11.91-7.71-9.31,0-16.03,7.4-16.03,17.42s6.72,17.42,16.03,17.42c5.19,0,9.77-3.42,11.91-7.72l9.31,4.69c-3.59,6.6-10.08,13.05-21.22,13.05-15.34,0-27.17-11.14-27.17-27.44"/>
  <polygon class="st0" points="174.73 182.46 161.15 182.46 143.3 235.52 153.82 235.52 167.94 193.76 175.88 216.59 166.31 216.59 162.95 226.53 178.85 226.53 182.06 235.52 192.48 235.52 174.73 182.46"/>
  <path class="st0" d="M50.45,219.21c3.59,3.9,9.16,7.24,16.18,7.24,6.03,0,8.85-2.78,8.85-5.88,0-9.23-29.31-2.78-29.31-22.75,0-8.83,7.33-16.15,19.31-16.15,6.83,0,12.68,1.81,17.36,5.3l-3.55,10.53c-4.12-3.98-9.62-5.81-14.8-5.81-4.58,0-7.18,2.07-7.18,5.25,0,8.35,29.23,2.7,29.23,22.51,0,9.71-6.72,17.02-20.38,17.02-8.39,0-14.74-2.49-19.4-6.32.64-1.91,3.68-10.94,3.68-10.94"/>
  <path class="st0" d="M50.51,271.82c0-.18.06-.33.18-.43.12-.11.25-.16.41-.16h1.13c.15,0,.28.05.39.16.11.11.17.25.17.43v1.45c0,.17-.06.3-.17.41-.11.11-.25.16-.42.16h-1.1c-.17,0-.31-.05-.42-.16-.11-.11-.17-.24-.17-.41,0,0,0-1.45,0-1.45ZM47.07,279.05c.28,0,.41.18.39.54-.01.22-.04.44-.06.69-.03.24-.05.49-.06.73-.01.24-.03.47-.03.69-.01.21-.02.39-.02.54,0,.93.07,1.8.19,2.6.13.8.41,1.49.83,2.08.42.58,1.03,1.04,1.81,1.38.78.33,1.83.5,3.14.5.45,0,.86-.01,1.23-.03.37-.02.77-.07,1.2-.16,0-.48,0-.92.01-1.3,0-.39.01-.75.01-1.09v-10.09c0-.14.05-.26.14-.36.1-.1.2-.15.33-.15h1.27c.14,0,.24.05.32.15.07.1.11.22.11.36v8.07h2.41v2.32h-2.41v1.9c0,.33,0,.65-.01.96-.01.3-.02.56-.04.78,0,.29-.18.48-.54.56-.66.15-1.33.25-2.01.31-.69.06-1.38.09-2.07.09-1.5,0-2.76-.18-3.79-.53-1.03-.35-1.86-.86-2.48-1.55-.63-.68-1.08-1.52-1.36-2.52-.28-1-.41-2.14-.41-3.41,0-.16,0-.39.02-.69.02-.29.04-.61.07-.95.02-.34.05-.68.09-1.01.04-.33.08-.62.13-.88.03-.2.09-.33.16-.4.07-.07.19-.11.36-.11h1.09Z"/>
  <path class="st0" d="M60.13,286.49c-.24,0-.45-.03-.62-.09-.18-.06-.26-.16-.26-.29v-1.59c0-.11.09-.19.26-.26.17-.06.38-.1.62-.1h5.72v2.32h-5.72Z"/>
  <path class="st0" d="M65.7,286.49c-.24,0-.45-.03-.62-.09-.17-.06-.26-.16-.26-.29v-1.59c0-.11.09-.19.26-.26.17-.06.38-.1.62-.1h5.72v2.32h-5.72Z"/>
  <path class="st0" d="M75.96,289.58c0-.18.07-.32.2-.43.13-.11.27-.16.42-.16h1.01c.15,0,.29.06.41.16.12.11.18.25.18.43v1.46c0,.14-.06.27-.18.39-.12.11-.26.17-.41.17h-1.01c-.15,0-.3-.06-.42-.17-.13-.12-.2-.25-.2-.39v-1.46ZM71.75,289.58c0-.18.06-.32.17-.43.12-.11.25-.16.43-.16h1.01c.17,0,.31.06.42.16.12.11.17.25.17.43v1.46c0,.14-.06.27-.18.39-.12.11-.26.17-.41.17h-1.01c-.18,0-.32-.06-.43-.17-.11-.12-.17-.25-.17-.39v-1.46ZM70.38,284.52c0-.11.09-.19.26-.25.17-.06.38-.09.62-.09h1.16c.17,0,.37-.01.57-.03.2-.02.4-.06.59-.12.19-.06.35-.16.48-.3.12-.14.19-.32.19-.56v-7.06c0-.14.05-.26.14-.37.09-.1.21-.15.35-.15h1.19c.14,0,.26.05.35.15.1.1.14.22.14.37v7.41c.05.14.16.26.32.34.16.08.34.15.54.19.19.05.4.08.6.1.21.01.39.03.55.03h.36v2.32h-.31c-.54,0-1.11-.06-1.72-.18-.62-.12-1.12-.36-1.51-.71-.43.36-.95.6-1.54.71-.59.12-1.13.18-1.62.18h-.85c-.24,0-.45-.03-.62-.09-.17-.06-.26-.16-.26-.29,0,0,0-1.59,0-1.59Z"/>
  <path class="st0" d="M78.66,286.49c-.24,0-.45-.03-.62-.09-.17-.06-.26-.16-.26-.29v-1.59c0-.11.09-.19.26-.26.17-.06.38-.1.62-.1h5.72v2.32h-5.72Z"/>
  <path class="st0" d="M84.22,286.49c-.24,0-.45-.03-.62-.09-.17-.06-.26-.16-.26-.29v-1.59c0-.11.09-.19.26-.26.17-.06.38-.1.62-.1h5.72v2.32h-5.72Z"/>
  <path class="st0" d="M88.9,284.52c0-.11.09-.19.26-.26.18-.06.38-.09.62-.09h2.07c.5,0,.81-.04.94-.13.13-.09.19-.37.19-.84v-16.44c0-.14.05-.27.14-.37.09-.1.21-.15.35-.15h1.27c.14,0,.25.05.34.15.09.1.13.22.13.37v16.28c0,.27,0,.55-.02.84,0,.29-.02.57-.04.84-.01.27-.04.51-.08.73-.04.18-.08.33-.15.46-.07.13-.21.23-.42.32-.14.06-.33.09-.59.12-.26.03-.55.06-.85.08-.31.03-.63.05-.97.06-.34,0-.65.01-.94.01h-1.37c-.24,0-.44-.03-.62-.09-.17-.06-.26-.16-.26-.28v-1.59h0Z"/>
  <path class="st0" d="M106.98,276.29c-.34-.04-.68-.06-1.01-.08-.33-.01-.72-.03-1.16-.03-1.14,0-2.04.33-2.71,1-.67.67-.99,1.62-.99,2.86v.54c0,1.28.26,2.2.78,2.78.51.58,1.4.86,2.63.86.68,0,1.25-.04,1.74-.14.48-.09.72-.34.72-.75v-7.04h0ZM99.84,291.04c0-.25.13-.38.41-.38.29,0,.66,0,1.11.01.45,0,.81.01,1.09.01.69,0,1.31-.04,1.86-.12.56-.08,1.02-.24,1.41-.46.39-.23.69-.54.91-.95.21-.41.32-.94.32-1.58v-1.6c-.12.11-.3.2-.53.26-.23.06-.5.12-.78.16-.29.05-.56.07-.84.08-.28,0-.52.01-.73.01-1.57,0-2.82-.47-3.75-1.4-.93-.94-1.4-2.35-1.4-4.23v-.68c0-1.89.54-3.38,1.61-4.47,1.07-1.1,2.59-1.65,4.55-1.65.69,0,1.36.03,2,.09.65.06,1.2.17,1.64.31.17.05.28.11.33.17.06.06.08.17.08.31v12.21c0,1.12-.15,2.03-.47,2.75-.31.72-.74,1.29-1.29,1.71-.55.43-1.21.72-1.97.89-.76.17-1.6.25-2.51.25-.17,0-.39,0-.66-.01-.27-.01-.53-.02-.8-.03-.27-.01-.51-.02-.74-.04-.23-.01-.38-.03-.47-.05-.17-.03-.28-.08-.34-.15-.05-.06-.07-.16-.07-.28,0,0,0-1.17,0-1.17Z"/>
  <path class="st0" d="M113.55,266.75c0-.14.05-.27.14-.38.09-.11.21-.17.35-.17h1.27c.14,0,.25.06.34.17.08.11.13.23.13.38v15.82c0,.37.04.65.12.85.08.21.19.37.33.47.15.11.33.18.55.22.22.03.46.05.74.05h.64v2.32h-1.21c-.56,0-1.04-.05-1.45-.15-.41-.1-.77-.28-1.06-.54s-.51-.61-.66-1.04c-.15-.43-.22-.99-.22-1.67v-16.34Z"/>
  <path class="st0" d="M118,286.49c-.24,0-.45-.03-.62-.09-.17-.06-.26-.16-.26-.29v-1.59c0-.11.09-.19.26-.26.17-.06.38-.1.62-.1h5.72v2.32h-5.72Z"/>
  <path class="st0" d="M123.56,286.49c-.24,0-.45-.03-.62-.09-.18-.06-.26-.16-.26-.29v-1.59c0-.11.08-.19.26-.26.17-.06.38-.1.62-.1h5.72v2.32h-5.72Z"/>
  <path class="st0" d="M137.61,268.96c0-.18.06-.32.19-.43.13-.11.27-.16.43-.16h1.01c.16,0,.3.06.42.16.12.11.18.25.18.43v1.45c0,.16-.06.3-.18.41-.12.11-.26.16-.42.16h-1.01c-.15,0-.3-.06-.43-.16-.13-.11-.19-.24-.19-.41v-1.45ZM133.39,268.96c0-.18.06-.32.17-.43.11-.11.25-.16.43-.16h1.01c.17,0,.31.06.43.16.11.11.17.25.17.43v1.45c0,.16-.06.3-.18.41-.12.11-.26.16-.41.16h-1.01c-.17,0-.32-.06-.43-.16-.11-.11-.17-.24-.17-.41v-1.45ZM139.21,284.22v-8.01c-.34-.05-.69-.09-1.05-.11-.35-.02-.75-.03-1.2-.03-1.19,0-2.1.31-2.72.93-.62.62-.93,1.55-.93,2.79v.56c0,1.24.27,2.2.82,2.86.54.67,1.39,1,2.55,1h2.53ZM128.24,284.52c0-.11.09-.19.26-.25.17-.06.38-.09.62-.09h3.41c-.45-.38-.79-.88-1.03-1.51-.24-.63-.36-1.39-.36-2.3v-.64c0-1.83.53-3.25,1.59-4.26,1.06-1,2.53-1.51,4.41-1.51.71,0,1.4.03,2.08.09s1.26.17,1.75.31c.17.04.28.09.33.16.06.07.08.18.08.32v9.33h2.23v2.32h-14.49c-.24,0-.45-.03-.62-.09-.17-.06-.26-.16-.26-.29v-1.59h0Z"/>
  <path class="st0" d="M143.45,286.49c-.24,0-.45-.03-.62-.09-.17-.06-.26-.16-.26-.29v-1.59c0-.11.09-.19.26-.26.17-.06.38-.1.62-.1h5.72v2.32h-5.72Z"/>
  <path class="st0" d="M149.02,286.49c-.24,0-.45-.03-.62-.09s-.26-.16-.26-.29v-1.59c0-.11.09-.19.26-.26.17-.06.38-.1.62-.1h5.72v2.32h-5.72Z"/>
  <path class="st0" d="M159.49,280.23v1.24c0,.59.04,1.1.11,1.51.16.75.49,1.3,1.01,1.64.52.34,1.19.51,2.02.51,1.14,0,1.94-.3,2.41-.9.47-.6.7-1.52.7-2.76v-1.24c0-1.22-.23-2.16-.68-2.82-.46-.66-1.25-.99-2.37-.99s-1.95.32-2.44.97c-.49.65-.74,1.59-.74,2.83M153.7,284.52c0-.11.09-.19.26-.26.17-.06.38-.09.62-.09h.82c.12,0,.28,0,.48-.01.19-.01.39-.04.58-.1.19-.05.36-.13.51-.23.14-.1.24-.24.27-.42.05-.22.08-.47.08-.78v-2.59c0-1.85.46-3.27,1.39-4.26.92-.99,2.25-1.48,3.97-1.48s3.03.49,3.9,1.45c.88.97,1.32,2.4,1.32,4.29v1.51c0,.22,0,.45-.01.7-.01.25-.03.47-.07.68.02.25.1.45.26.62.15.16.33.29.53.38.2.09.4.15.61.19.21.03.38.05.52.05h.34v2.32h-.34c-.57,0-1.12-.09-1.66-.26-.55-.17-.98-.44-1.31-.79-.81,1.22-2.19,1.83-4.14,1.83-.97,0-1.82-.15-2.57-.44-.75-.3-1.33-.75-1.72-1.36-.34.41-.79.69-1.34.82-.55.14-1.15.2-1.79.2h-.62c-.24,0-.45-.03-.62-.09-.17-.06-.26-.16-.26-.29v-1.59h0Z"/>
  <path class="st0" d="M169.92,286.49c-.24,0-.45-.03-.62-.09s-.26-.16-.26-.29v-1.59c0-.11.09-.19.26-.26.17-.06.38-.1.62-.1h5.72v2.32h-5.72Z"/>
  <path class="st0" d="M175.48,286.49c-.24,0-.45-.03-.62-.09-.17-.06-.26-.16-.26-.29v-1.59c0-.11.09-.19.26-.26.17-.06.38-.1.62-.1h5.72v2.32h-5.72Z"/>
  <path class="st0" d="M180.16,284.52c0-.11.09-.19.26-.26.17-.06.38-.09.62-.09h1.37c.17,0,.37,0,.57-.02.2-.02.4-.06.59-.12.18-.06.35-.16.48-.3.13-.14.19-.32.19-.56v-16.42c0-.14.05-.27.14-.37.09-.1.21-.15.35-.15h1.27c.14,0,.25.05.34.15.08.1.13.22.13.37v16.77c.05.14.16.26.32.34.17.08.35.15.55.19.2.05.4.08.61.1.21.01.39.02.54.02h.36v2.32h-.31c-.26,0-.53-.01-.83-.04-.29-.03-.58-.07-.86-.14-.28-.06-.56-.15-.83-.26-.27-.12-.5-.26-.69-.45-.43.36-.94.6-1.54.71-.6.12-1.14.18-1.62.18h-1.13c-.24,0-.45-.03-.62-.09-.17-.06-.26-.16-.26-.28v-1.59Z"/>
  <path class="st0" d="M187.82,284.52c0-.11.09-.19.26-.26.17-.06.38-.09.62-.09h2.07c.5,0,.81-.04.95-.13.13-.09.19-.37.19-.84v-16.44c0-.14.05-.27.14-.37.09-.1.21-.15.35-.15h1.26c.14,0,.25.05.34.15.08.1.13.22.13.37v16.28c0,.27,0,.55-.02.84,0,.29-.02.57-.04.84-.01.27-.04.51-.07.73-.04.18-.09.33-.16.46-.07.13-.21.23-.41.32-.14.06-.33.09-.59.12-.26.03-.55.06-.85.08-.31.03-.63.05-.97.06-.34,0-.65.01-.94.01h-1.37c-.24,0-.45-.03-.62-.09-.17-.06-.26-.16-.26-.28v-1.59h0Z"/>
  <path class="st0" d="M210.66,269.01c0-.18.06-.32.19-.43.13-.11.27-.16.43-.16h1c.16,0,.29.05.42.16.12.11.18.25.18.43v1.46c0,.17-.06.3-.18.41-.12.11-.26.16-.42.16h-1c-.16,0-.3-.05-.43-.16-.13-.11-.19-.24-.19-.41v-1.46ZM206.44,269.01c0-.18.06-.32.17-.43.11-.11.25-.16.43-.16h1.01c.17,0,.31.05.43.16.11.11.16.25.16.43v1.46c0,.17-.06.3-.18.41-.12.11-.26.16-.41.16h-1.01c-.18,0-.32-.05-.43-.16-.11-.11-.17-.24-.17-.41v-1.46ZM206.39,280.38c0,1.08.24,1.92.7,2.53.46.6,1.26.91,2.38.91h.49c.26,0,.53-.02.8-.05.27-.04.53-.11.75-.22.22-.11.4-.25.54-.44.14-.19.21-.43.21-.72v-6.14c-.35-.04-.65-.06-.91-.08-.25-.02-.5-.03-.72-.03-.62,0-1.19.05-1.71.16-.52.11-.96.3-1.34.58-.37.28-.66.66-.88,1.14-.22.47-.33,1.07-.33,1.8v.57ZM204.22,279.96c0-1.06.17-1.97.49-2.72.33-.75.79-1.37,1.39-1.84.59-.48,1.3-.83,2.12-1.05.82-.22,1.72-.34,2.71-.34.23,0,.48,0,.78.02.29.02.58.05.87.08.29.04.56.07.81.12.25.04.48.1.67.15.17.04.28.09.32.18.04.08.06.19.06.34v7.57c0,.72.16,1.18.49,1.38.33.21.77.31,1.32.31h.59v2.32h-.88c-.78,0-1.43-.12-1.95-.35-.53-.23-.93-.64-1.2-1.21-.29.4-.75.68-1.36.85-.61.17-1.28.26-2,.26h-.23c-1.6,0-2.84-.46-3.7-1.37-.86-.92-1.29-2.25-1.29-3.99v-.7h0Z"/>
  <path class="st0" d="M216.69,286.49c-.24,0-.45-.03-.62-.09-.17-.06-.26-.16-.26-.29v-1.59c0-.11.09-.19.26-.26.17-.06.38-.1.62-.1h5.72v2.32h-5.72Z"/>
  <path class="st0" d="M222.25,286.49c-.24,0-.45-.03-.62-.09s-.26-.16-.26-.29v-1.59c0-.11.09-.19.26-.26.17-.06.38-.1.62-.1h5.72v2.32h-5.72Z"/>
  <path class="st0" d="M231.25,289.58c0-.18.06-.32.19-.43.13-.11.27-.16.43-.16h1.01c.15,0,.29.06.41.16.12.11.18.25.18.43v1.46c0,.14-.06.27-.18.39-.12.11-.26.17-.41.17h-1.01c-.16,0-.3-.06-.43-.17-.13-.12-.19-.25-.19-.39v-1.46ZM227.03,289.58c0-.18.06-.32.17-.43.11-.11.25-.16.43-.16h1.01c.17,0,.31.06.43.16.11.11.17.25.17.43v1.46c0,.14-.06.27-.18.39-.12.11-.25.17-.41.17h-1.01c-.18,0-.32-.06-.43-.17-.11-.12-.17-.25-.17-.39v-1.46ZM226.93,284.52c0-.11.09-.19.26-.25.18-.06.38-.09.62-.09h1.8c.5,0,.82-.05.96-.13.14-.09.2-.37.2-.84v-3.45c0-.56,0-1.13-.01-1.73-.01-.59-.02-1.24-.04-1.94,0-.14.04-.27.12-.37.07-.1.18-.15.32-.15h1.24c.16,0,.27.05.36.15.09.1.13.22.13.37.02.61.03,1.12.04,1.54.01.41.01.8.01,1.17v2.52c0,.86,0,1.66-.01,2.4,0,.74-.04,1.31-.09,1.73-.03.18-.09.33-.17.46-.08.12-.22.23-.43.32-.14.06-.33.1-.57.12-.24.03-.52.06-.83.08-.31.03-.63.05-.96.06-.33.01-.64.01-.93.01h-1.16c-.24,0-.45-.03-.62-.09-.17-.06-.26-.16-.26-.29v-1.59h0Z"/>
  <path class="st0" d="M236.27,284.65c0-.14.05-.26.16-.35.1-.09.22-.13.36-.13h7.06l-.02-3.32c-.04-1.58-.42-2.76-1.15-3.53-.73-.77-1.92-1.16-3.56-1.16-.19,0-.46,0-.8.01-.35,0-.65.03-.91.07-.34.03-.52-.09-.52-.38v-1.11c0-.14.04-.26.12-.35.08-.09.21-.14.4-.16.45-.07.87-.12,1.28-.14.41-.02.71-.03.89-.03,1.18,0,2.16.17,2.96.49.8.32,1.45.78,1.95,1.38.5.59.86,1.29,1.09,2.1.23.81.36,1.7.39,2.67,0,.07,0,.25.01.54.01.29.02.61.03.94.01.34.01.66.01.97v1.09c0,.18,0,.38-.01.59,0,.21-.01.41-.03.61,0,.2-.02.36-.04.48,0,.36-.19.54-.57.54h-8.59c-.14,0-.26-.04-.36-.12-.1-.08-.16-.2-.16-.34v-1.38h0Z"/>
  <path class="st0" d="M251.46,280.58c0,1.28.26,2.21.78,2.78.51.57,1.35.86,2.51.86h2.56v-7.93c-.34-.04-.68-.06-1.01-.08-.33-.01-.71-.03-1.14-.03-1.14,0-2.04.33-2.71,1-.66.67-.99,1.62-.99,2.86v.54h0ZM250.19,291.04c0-.25.13-.38.42-.38s.66,0,1.11.01c.45,0,.81.01,1.09.01.69,0,1.31-.04,1.85-.12.55-.08,1.01-.24,1.4-.46.39-.23.68-.55.89-.95s.32-.94.34-1.59v-1.09h-2.59c-1.74,0-3.08-.47-4.01-1.4-.93-.94-1.4-2.35-1.4-4.23v-.67c0-1.89.54-3.38,1.61-4.48,1.07-1.1,2.59-1.64,4.55-1.64.69,0,1.36.03,2,.09.65.06,1.2.17,1.64.31.16.05.26.11.31.17.05.06.08.17.08.31v9.22h2.25v2.32h-2.28v1.03c-.03,1.01-.2,1.85-.51,2.52-.31.67-.74,1.21-1.27,1.62-.54.4-1.18.69-1.93.86-.75.17-1.58.26-2.47.26-.17,0-.39,0-.66-.01-.27-.01-.53-.02-.8-.02-.27-.01-.51-.03-.74-.04-.23-.01-.38-.03-.46-.05-.18-.04-.29-.08-.34-.15-.05-.06-.07-.16-.07-.28v-1.17h0Z"/>
  <path class="st0" d="M261.57,286.49c-.24,0-.45-.03-.62-.09-.17-.06-.26-.16-.26-.29v-1.59c0-.11.09-.19.26-.26.17-.06.38-.1.62-.1h5.72v2.32h-5.72Z"/>
  <path class="st0" d="M267.13,286.49c-.24,0-.45-.03-.62-.09-.17-.06-.26-.16-.26-.29v-1.59c0-.11.09-.19.26-.26.17-.06.38-.1.62-.1h5.72v2.32h-5.72Z"/>
  <path class="st0" d="M281.05,284.19c.9-.22,1.6-.73,2.11-1.56.51-.83.76-1.79.76-2.88v-.3c0-1.18-.33-2.04-.98-2.58-.66-.53-1.55-.8-2.69-.8-.45,0-1.03.06-1.73.19-.71.12-1.38.41-2.02.86l2.64,7.06h1.91ZM271.81,284.52c0-.11.09-.19.26-.26.18-.06.38-.09.62-.09h4.16l-2.43-6.47c-.04-.06-.06-.13-.07-.21,0-.09-.01-.17-.01-.24l.02-.78c.02-.23.17-.47.44-.7.29-.27.64-.51,1.05-.74.4-.23.85-.42,1.33-.57.48-.15.98-.27,1.5-.37.52-.09,1.03-.13,1.55-.13.84,0,1.62.1,2.34.3.72.2,1.33.51,1.85.93.52.42.92.97,1.2,1.63.28.66.43,1.46.43,2.37v.51c0,.43-.04.87-.13,1.32-.09.45-.21.88-.36,1.28-.15.41-.34.77-.56,1.11-.22.33-.45.59-.72.77h3.26v2.32h-14.87c-.24,0-.45-.03-.62-.09-.17-.06-.26-.16-.26-.29v-1.59h0Z"/>
  <path class="st0" d="M287.41,286.49c-.24,0-.45-.03-.62-.09-.18-.06-.26-.16-.26-.29v-1.59c0-.11.09-.19.26-.26.17-.06.38-.1.62-.1h5.72v2.32h-5.72Z"/>
  <path class="st0" d="M292.97,286.49c-.24,0-.45-.03-.62-.09s-.26-.16-.26-.29v-1.59c0-.11.09-.19.26-.26.17-.06.38-.1.62-.1h5.72v2.32h-5.72Z"/>
  <path class="st0" d="M297.65,284.52c0-.11.09-.19.26-.26.18-.06.38-.09.62-.09h.98c.17,0,.36,0,.57-.02.21-.02.4-.06.58-.12.18-.06.34-.16.47-.3.13-.14.19-.32.19-.56v-5.82c0-.14.05-.27.13-.38.08-.1.19-.16.33-.16h1.19c.13,0,.25.06.34.16.08.11.12.24.12.38v6.23c.06.15.16.26.33.34.16.08.34.14.54.19.2.04.4.08.61.09.2.02.38.03.54.03h.54c.16,0,.33-.01.53-.04.19-.02.38-.07.55-.13.18-.06.32-.16.44-.28.12-.13.18-.3.18-.51v-6.82c0-.14.04-.26.14-.37.1-.1.21-.14.35-.14h1.19c.14,0,.25.05.34.14.09.1.13.22.13.37v7.14c.1.29.36.47.77.54.42.07.84.1,1.3.1h.33c.15,0,.34,0,.56-.03.21-.01.42-.06.61-.12.19-.06.35-.16.48-.29.13-.14.19-.31.19-.52v-7.85c0-.14.05-.26.14-.36.1-.1.21-.15.35-.15h1.21c.13,0,.25.05.34.15.08.1.13.22.13.36v8.11c.06.14.17.26.34.34.17.08.36.15.57.19.21.05.41.08.62.1.21.01.39.02.54.02h.49v2.32h-.44c-.46,0-1-.06-1.61-.18-.6-.11-1.13-.35-1.58-.71-.4.36-.87.6-1.42.71-.55.12-1.07.18-1.57.18h-.41c-.61,0-1.15-.06-1.62-.18-.47-.11-.94-.35-1.41-.71-.69.59-1.69.89-3,.89h-.44c-.45,0-.94-.06-1.49-.18-.54-.11-1.01-.35-1.41-.71-.2.2-.44.35-.71.46-.27.1-.54.19-.81.26-.28.08-.55.12-.81.14-.27.01-.51.02-.74.02h-.82c-.24,0-.45-.03-.62-.09-.17-.06-.26-.16-.26-.28v-1.59h0Z"/>
  <path class="st0" d="M318.69,286.49c-.24,0-.45-.03-.62-.09-.17-.06-.26-.16-.26-.29v-1.59c0-.11.09-.19.26-.26.17-.06.38-.1.62-.1h5.72v2.32h-5.72Z"/>
  <path class="st0" d="M324.25,286.49c-.24,0-.45-.03-.62-.09-.17-.06-.26-.16-.26-.29v-1.59c0-.11.09-.19.26-.26.17-.06.38-.1.62-.1h5.72v2.32h-5.72Z"/>
  <path class="st0" d="M328.93,284.52c0-.11.09-.19.26-.26.17-.06.38-.09.62-.09h2.06c.5,0,.81-.04.95-.13.13-.09.19-.37.19-.84v-16.44c0-.14.05-.27.14-.37.09-.1.21-.15.35-.15h1.27c.13,0,.24.05.33.15.08.1.13.22.13.37v16.28c0,.27,0,.55-.02.84,0,.29-.02.57-.04.84s-.04.51-.07.73c-.04.18-.09.33-.16.46-.07.13-.21.23-.42.32-.14.06-.33.09-.59.12-.26.03-.55.06-.85.08-.31.03-.64.05-.97.06-.34,0-.65.01-.94.01h-1.37c-.24,0-.45-.03-.62-.09-.17-.06-.26-.16-.26-.28v-1.59h0Z"/>
  <path class="st0" d="M339.64,266.75c0-.14.05-.27.14-.38.09-.11.21-.17.35-.17h1.27c.14,0,.25.06.34.17.08.11.13.23.13.38v19.2c0,.15-.05.27-.13.38-.09.11-.2.17-.34.17h-1.27c-.14,0-.25-.06-.35-.17-.1-.11-.14-.23-.14-.38v-19.2Z"/>
  <path class="st0" d="M358.65,269.01c0-.18.06-.32.19-.43.13-.11.27-.16.43-.16h1.01c.16,0,.29.05.41.16.12.11.18.25.18.43v1.46c0,.17-.06.3-.18.41-.12.11-.26.16-.41.16h-1.01c-.16,0-.3-.05-.43-.16-.13-.11-.19-.24-.19-.41v-1.46ZM354.44,269.01c0-.18.06-.32.17-.43.11-.11.25-.16.43-.16h1.01c.17,0,.31.05.43.16.11.11.17.25.17.43v1.46c0,.17-.06.3-.18.41-.12.11-.26.16-.41.16h-1.01c-.17,0-.32-.05-.43-.16-.11-.11-.17-.24-.17-.41v-1.46h0ZM354.38,280.38c0,1.08.24,1.92.7,2.53.47.6,1.26.91,2.38.91h.49c.26,0,.53-.02.8-.05.28-.04.53-.11.75-.22.22-.11.41-.25.54-.44s.21-.43.21-.72v-6.14c-.35-.04-.65-.06-.91-.08-.26-.02-.5-.03-.72-.03-.62,0-1.19.05-1.71.16-.52.11-.96.3-1.34.58-.37.28-.66.66-.88,1.14-.22.47-.33,1.07-.33,1.8v.57ZM352.21,279.96c0-1.06.17-1.97.5-2.72.32-.75.79-1.37,1.38-1.84.6-.48,1.3-.83,2.12-1.05.82-.22,1.72-.34,2.7-.34.23,0,.49,0,.78.02.29.02.58.05.87.08.28.04.56.07.81.12.26.04.48.1.67.15.18.04.28.09.33.18.04.08.06.19.06.34v7.57c0,.72.16,1.18.49,1.38.33.21.77.31,1.32.31h.59v2.32h-.88c-.77,0-1.42-.12-1.95-.35-.53-.23-.93-.64-1.2-1.21-.29.4-.75.68-1.36.85-.61.17-1.28.26-2,.26h-.23c-1.6,0-2.84-.46-3.7-1.37-.86-.92-1.3-2.25-1.3-3.99v-.7h0Z"/>
  <path class="st0" d="M364.68,286.49c-.24,0-.45-.03-.62-.09-.17-.06-.26-.16-.26-.29v-1.59c0-.11.09-.19.26-.26.17-.06.38-.1.62-.1h5.72v2.32h-5.72Z"/>
  <path class="st0" d="M370.24,286.49c-.24,0-.45-.03-.62-.09-.18-.06-.26-.16-.26-.29v-1.59c0-.11.09-.19.26-.26.17-.06.38-.1.62-.1h5.72v2.32h-5.72Z"/>
  <path class="st0" d="M377.9,272.25c-.31,0-.47-.11-.47-.32v-.46c0-.18.16-.27.47-.27h.44c-.15-.2-.27-.44-.34-.72-.07-.28-.1-.55-.1-.82,0-.75.21-1.31.63-1.66.42-.35,1.02-.53,1.8-.53.14,0,.29,0,.47.03.17.02.34.04.51.08.19.07.29.18.29.32v.38c0,.2-.11.3-.34.3-.03,0-.15,0-.36-.01-.21,0-.35-.01-.44-.01-.91,0-1.37.41-1.37,1.21,0,.38.06.69.18.93.12.24.25.4.38.47h1.73c.29,0,.44.11.44.32v.43c0,.15-.04.24-.12.27-.08.03-.18.05-.32.05h-3.49ZM374.92,284.52c0-.11.09-.19.26-.26.18-.06.38-.09.62-.09h1.16c.17,0,.36,0,.57-.03.21-.02.4-.06.6-.12.18-.06.35-.17.48-.3.13-.14.19-.32.19-.56v-7.06c0-.14.05-.26.14-.36.09-.1.21-.15.35-.15h1.19c.14,0,.26.05.35.15.1.1.15.22.15.36v7.42c.05.14.16.26.32.33.16.09.34.15.55.19.19.05.4.08.6.1.21.02.39.03.54.03h.37v2.32h-.31c-.54,0-1.11-.06-1.72-.18-.61-.12-1.12-.36-1.51-.71-.43.36-.95.6-1.54.71-.59.12-1.13.18-1.62.18h-.85c-.24,0-.45-.03-.62-.09-.17-.06-.26-.16-.26-.29v-1.59h0Z"/>
  <path class="st0" d="M383.2,286.49c-.24,0-.45-.03-.62-.09-.17-.06-.26-.16-.26-.29v-1.59c0-.11.09-.19.26-.26.17-.06.38-.1.62-.1h5.72v2.32h-5.72Z"/>
  <path class="st0" d="M388.77,286.49c-.24,0-.45-.03-.62-.09-.17-.06-.26-.16-.26-.29v-1.59c0-.11.09-.19.26-.26.17-.06.38-.1.62-.1h5.72v2.32h-5.72Z"/>
  <path class="st0" d="M399.03,289.58c0-.18.07-.32.2-.43.13-.11.27-.16.43-.16h1.01c.16,0,.29.06.41.16.12.11.18.25.18.43v1.46c0,.14-.06.27-.18.39-.12.11-.25.17-.41.17h-1.01c-.15,0-.3-.06-.43-.17-.13-.12-.2-.25-.2-.39v-1.46ZM394.81,289.58c0-.18.06-.32.17-.43.12-.11.25-.16.43-.16h1.01c.17,0,.31.06.43.16.11.11.17.25.17.43v1.46c0,.14-.06.27-.18.39-.12.11-.26.17-.41.17h-1.01c-.18,0-.32-.06-.43-.17-.11-.12-.17-.25-.17-.39v-1.46h0ZM393.44,284.52c0-.11.09-.19.26-.25.18-.06.38-.09.62-.09h1.16c.17,0,.36-.01.57-.03.2-.02.4-.06.59-.12.19-.06.35-.16.48-.3.12-.14.19-.32.19-.56v-7.06c0-.14.05-.26.14-.37.09-.1.21-.15.35-.15h1.19c.14,0,.26.05.35.15.1.1.14.22.14.37v7.41c.05.14.16.26.32.34.16.08.34.15.54.19.19.05.4.08.6.1.21.01.39.03.54.03h.37v2.32h-.31c-.54,0-1.11-.06-1.72-.18-.62-.12-1.12-.36-1.51-.71-.43.36-.95.6-1.54.71-.59.12-1.13.18-1.62.18h-.85c-.24,0-.45-.03-.62-.09-.17-.06-.26-.16-.26-.29v-1.59h0Z"/>
  <path class="st0" d="M401.73,286.49c-.24,0-.45-.03-.62-.09-.17-.06-.26-.16-.26-.29v-1.59c0-.11.09-.19.26-.26.17-.06.38-.1.62-.1h5.72v2.32h-5.72Z"/>
  <path class="st0" d="M407.28,286.49c-.24,0-.45-.03-.62-.09-.17-.06-.26-.16-.26-.29v-1.59c0-.11.09-.19.26-.26.17-.06.38-.1.62-.1h5.72v2.32h-5.72Z"/>
  <path class="st0" d="M420.04,284.17c1.36,0,2.34-.35,2.92-1.06.59-.71.88-1.73.88-3.06v-.49c0-.65-.09-1.18-.27-1.62-.18-.43-.43-.78-.75-1.04-.32-.26-.71-.44-1.16-.55-.46-.11-.97-.16-1.54-.16-.46,0-.85.01-1.16.03-.31.02-.64.06-.98.11v7.84h2.07ZM412.85,286.49c-.24,0-.45-.03-.62-.09-.17-.06-.26-.16-.26-.29v-1.59c0-.11.09-.19.26-.26.17-.06.38-.1.62-.1h2.95v-9c0-.36.2-.59.6-.7.55-.16,1.14-.27,1.76-.32.62-.05,1.27-.08,1.94-.08,1.83,0,3.27.42,4.33,1.26,1.06.85,1.59,2.21,1.59,4.1v.4c0,1.58-.31,2.93-.92,4.04-.61,1.12-1.56,1.86-2.83,2.24-.26.09-.57.16-.93.2-.36.04-.74.08-1.12.11-.39.03-.77.05-1.17.06-.39,0-.74.01-1.07.01v.67c0,1.35.21,2.35.62,3.01.41.66,1.2.98,2.35.98s1.88-.3,2.28-.92c.4-.61.61-1.58.65-2.91,0-.07,0-.18.01-.32,0-.14.02-.29.02-.44.01-.15.02-.3.04-.45.01-.14.03-.24.05-.29.17-.67.51-1.12,1.01-1.35.24-.13.53-.21.85-.24.33-.04.69-.06,1.09-.06h1.09v2.32h-.55c-.27,0-.57,0-.89.01-.32,0-.53.02-.63.04l-.03,1c-.05,1.87-.45,3.29-1.21,4.27-.76.98-2.01,1.47-3.75,1.47-1,0-1.83-.14-2.49-.4-.66-.27-1.19-.66-1.59-1.17-.4-.51-.68-1.13-.84-1.86-.16-.73-.24-1.55-.24-2.47v-.89h-2.95Z"/>
  <path class="st0" d="M427.88,286.49c-.24,0-.45-.03-.62-.09-.18-.06-.26-.16-.26-.29v-1.59c0-.11.09-.19.26-.26.17-.06.38-.1.62-.1h5.72v2.32h-5.72Z"/>
  <path class="st0" d="M433.44,286.49c-.24,0-.45-.03-.62-.09-.17-.06-.26-.16-.26-.29v-1.59c0-.11.09-.19.26-.26.17-.06.38-.1.62-.1h5.72v2.32h-5.72Z"/>
  <path class="st0" d="M438.12,284.52c0-.11.09-.19.26-.26.17-.06.38-.09.62-.09h2.07c.5,0,.81-.04.94-.13.13-.09.19-.37.19-.84v-16.44c0-.14.05-.27.14-.37.09-.1.21-.15.35-.15h1.26c.14,0,.25.05.34.15.08.1.13.22.13.37v16.28c0,.27,0,.55-.02.84,0,.29-.02.57-.04.84-.01.27-.04.51-.07.73-.04.18-.09.33-.16.46-.07.13-.21.23-.41.32-.14.06-.34.09-.59.12-.26.03-.55.06-.85.08-.31.03-.63.05-.97.06-.34,0-.65.01-.94.01h-1.37c-.24,0-.45-.03-.62-.09-.17-.06-.26-.16-.26-.28v-1.59h0Z"/>
  <path class="st0" d="M448.83,266.75c0-.14.05-.27.14-.38.09-.11.21-.17.35-.17h1.27c.14,0,.25.06.34.17.08.11.13.23.13.38v19.2c0,.15-.05.27-.13.38-.09.11-.2.17-.34.17h-1.27c-.14,0-.25-.06-.35-.17-.1-.11-.14-.23-.14-.38v-19.2Z"/>
  <path class="st0" d="M45.2,324.17l1.25-1.51c1.45,1.73,3.82,3.42,7.06,3.42,4.6,0,5.92-2.68,5.92-4.69,0-6.91-13.53-3.31-13.53-11.52,0-3.84,3.31-6.27,7.41-6.27,3.35,0,5.92,1.24,7.64,3.31l-1.29,1.48c-1.62-2.04-3.92-2.96-6.46-2.96-3.01,0-5.27,1.8-5.27,4.33,0,6.03,13.52,2.72,13.52,11.49,0,3.03-1.93,6.66-8.01,6.66-3.72,0-6.53-1.59-8.25-3.73"/>
  <path class="st0" d="M76.88,327.48v-2.01c-1.45,1.66-3.28,2.43-5.54,2.43-2.81,0-5.72-2.01-5.72-5.67s2.87-5.64,5.72-5.64c2.26,0,4.12.78,5.54,2.43v-3.45c0-2.54-1.96-3.91-4.36-3.91-2.06,0-3.65.74-5.14,2.5l-.98-1.27c1.69-1.9,3.58-2.86,6.29-2.86,3.31,0,5.95,1.66,5.95,5.46v11.98h-1.76ZM76.88,324.13v-3.73c-1.15-1.59-2.98-2.36-4.94-2.36-2.67,0-4.46,1.8-4.46,4.23s1.79,4.19,4.46,4.19c1.96,0,3.79-.77,4.94-2.33"/>
  <path class="st0" d="M95.61,327.48v-2.5c-1.32,1.55-3.52,2.92-5.88,2.92-3.31,0-5.14-1.62-5.14-5.46v-11.98h1.76v11.56c0,3.31,1.59,4.23,3.95,4.23,2.1,0,4.23-1.3,5.31-2.82v-12.97h1.76v17.02h-1.76Z"/>
  <path class="st0" d="M115.36,327.48v-2.71c-1.15,1.76-3.25,3.13-5.68,3.13-4.33,0-7.27-3.45-7.27-8.91s2.94-8.95,7.27-8.95c2.33,0,4.39,1.23,5.68,3.17v-9.23h1.79v23.5h-1.79ZM115.36,323.22v-8.42c-.95-1.66-3.08-3.1-5.38-3.1-3.62,0-5.72,3.17-5.72,7.29s2.1,7.26,5.72,7.26c2.3,0,4.43-1.41,5.38-3.03"/>
  <path class="st0" d="M122.62,306.38c0-.78.64-1.37,1.35-1.37.74,0,1.35.6,1.35,1.37s-.61,1.41-1.35,1.41c-.71,0-1.35-.63-1.35-1.41M123.1,310.46h1.76v17.02h-1.76v-17.02Z"/>
  <path class="st0" d="M139.26,315.75c0-7.22,5.04-12.16,11.43-12.16,3.59,0,6.32,1.66,8.22,4.16l-1.62,1.09c-1.42-2.04-3.89-3.42-6.59-3.42-5.27,0-9.4,4.19-9.4,10.33s4.13,10.33,9.4,10.33c2.71,0,5.17-1.38,6.59-3.42l1.66,1.06c-2.03,2.57-4.66,4.19-8.25,4.19-6.39,0-11.43-4.93-11.43-12.16"/>
  <path class="st0" d="M162.28,318.96c0-4.97,3.04-8.91,7.81-8.91s7.88,3.95,7.88,8.91-3.04,8.95-7.88,8.95-7.81-3.98-7.81-8.95M176.08,318.96c0-3.77-2.13-7.26-5.98-7.26s-5.95,3.49-5.95,7.26,2.16,7.29,5.95,7.29,5.98-3.49,5.98-7.29"/>
  <path class="st0" d="M194,327.48v-11.52c0-3.27-1.59-4.26-3.96-4.26-2.1,0-4.26,1.37-5.31,2.92v12.86h-1.76v-17.02h1.76v2.57c1.18-1.48,3.52-3,5.88-3,3.31,0,5.14,1.69,5.14,5.53v11.91h-1.76Z"/>
  <path class="st0" d="M202.04,324.21v-12.12h-2.71v-1.62h2.71v-4.65h1.79v4.65h3.31v1.62h-3.31v11.84c0,1.38.54,2.33,1.69,2.33.78,0,1.45-.39,1.83-.81l.68,1.41c-.64.63-1.42,1.06-2.77,1.06-2.16,0-3.21-1.37-3.21-3.7"/>
  <path class="st0" d="M211.48,327.48v-17.02h1.76v2.92c1.39-1.9,3.25-3.27,5.51-3.27v2.01c-.3-.07-.54-.07-.88-.07-1.66,0-3.89,1.55-4.63,3.03v12.4h-1.76Z"/>
  <path class="st0" d="M233.05,327.48v-2.01c-1.45,1.66-3.28,2.43-5.54,2.43-2.81,0-5.71-2.01-5.71-5.67s2.87-5.64,5.71-5.64c2.26,0,4.13.78,5.54,2.43v-3.45c0-2.54-1.96-3.91-4.36-3.91-2.06,0-3.65.74-5.14,2.5l-.98-1.27c1.69-1.9,3.58-2.86,6.29-2.86,3.31,0,5.95,1.66,5.95,5.46v11.98h-1.76ZM233.05,324.13v-3.73c-1.15-1.59-2.98-2.36-4.94-2.36-2.67,0-4.46,1.8-4.46,4.23s1.79,4.19,4.46,4.19c1.96,0,3.79-.77,4.94-2.33"/>
  <path class="st0" d="M239.84,318.96c0-4.97,3.11-8.91,7.91-8.91,2.84,0,4.46,1.16,5.78,2.89l-1.22,1.13c-1.18-1.69-2.67-2.36-4.46-2.36-3.82,0-6.16,3.17-6.16,7.26s2.33,7.29,6.16,7.29c1.79,0,3.28-.7,4.46-2.4l1.22,1.13c-1.32,1.76-2.94,2.92-5.78,2.92-4.8,0-7.91-3.98-7.91-8.95"/>
  <path class="st0" d="M258.27,324.21v-12.12h-2.7v-1.62h2.7v-4.65h1.79v4.65h3.31v1.62h-3.31v11.84c0,1.38.54,2.33,1.69,2.33.78,0,1.45-.39,1.83-.81l.67,1.41c-.64.63-1.42,1.06-2.77,1.06-2.16,0-3.21-1.37-3.21-3.7"/>
  <path class="st0" d="M266.79,318.96c0-4.97,3.04-8.91,7.81-8.91s7.88,3.95,7.88,8.91-3.04,8.95-7.88,8.95-7.81-3.98-7.81-8.95M280.58,318.96c0-3.77-2.13-7.26-5.98-7.26s-5.95,3.49-5.95,7.26,2.16,7.29,5.95,7.29,5.98-3.49,5.98-7.29"/>
  <path class="st0" d="M287.48,327.48v-17.02h1.76v2.92c1.39-1.9,3.25-3.27,5.51-3.27v2.01c-.3-.07-.54-.07-.88-.07-1.66,0-3.89,1.55-4.63,3.03v12.4h-1.76Z"/>
  <path class="st0" d="M297.25,325.19l1.05-1.34c1.05,1.37,2.98,2.5,5.28,2.5,2.74,0,4.36-1.48,4.36-3.45,0-4.65-10.31-2.01-10.31-8.14,0-2.61,2.13-4.72,5.81-4.72,2.81,0,4.67,1.13,5.85,2.5l-.98,1.3c-.94-1.34-2.71-2.25-4.87-2.25-2.54,0-4.06,1.34-4.06,3.1,0,4.27,10.28,1.66,10.28,8.21,0,2.75-2.03,5-6.12,5-2.63,0-4.67-.81-6.29-2.71"/>
  <path class="st0" d="M340.29,327.48l-2.23-5.78h-11.94l-2.23,5.78h-2.23l9.23-23.5h2.4l9.23,23.5h-2.23ZM332.11,306.13l-5.34,13.74h10.65l-5.31-13.74Z"/>
  <path class="st0" d="M356.89,327.48v-2.5c-1.32,1.55-3.52,2.92-5.88,2.92-3.31,0-5.14-1.62-5.14-5.46v-11.98h1.76v11.56c0,3.31,1.59,4.23,3.95,4.23,2.1,0,4.23-1.3,5.31-2.82v-12.97h1.76v17.02h-1.76Z"/>
  <path class="st0" d="M364.94,324.21v-12.12h-2.71v-1.62h2.71v-4.65h1.79v4.65h3.31v1.62h-3.31v11.84c0,1.38.54,2.33,1.69,2.33.78,0,1.45-.39,1.83-.81l.68,1.41c-.64.63-1.42,1.06-2.77,1.06-2.16,0-3.21-1.37-3.21-3.7"/>
  <path class="st0" d="M385.4,327.48v-11.59c0-3.28-1.59-4.19-3.95-4.19-2.1,0-4.26,1.37-5.31,2.92v12.86h-1.76v-23.5h1.76v9.06c1.18-1.48,3.52-3,5.88-3,3.31,0,5.14,1.62,5.14,5.46v11.98h-1.76Z"/>
  <path class="st0" d="M392.19,318.96c0-4.97,3.04-8.91,7.81-8.91s7.88,3.95,7.88,8.91-3.04,8.95-7.88,8.95-7.81-3.98-7.81-8.95M405.99,318.96c0-3.77-2.13-7.26-5.98-7.26s-5.95,3.49-5.95,7.26,2.16,7.29,5.95,7.29,5.98-3.49,5.98-7.29"/>
  <path class="st0" d="M412.88,327.48v-17.02h1.76v2.92c1.39-1.9,3.25-3.27,5.51-3.27v2.01c-.3-.07-.54-.07-.88-.07-1.66,0-3.89,1.55-4.63,3.03v12.4h-1.76Z"/>
  <path class="st0" d="M423.6,306.38c0-.78.64-1.37,1.35-1.37.74,0,1.35.6,1.35,1.37s-.61,1.41-1.35,1.41c-.71,0-1.35-.63-1.35-1.41M424.08,310.46h1.76v17.02h-1.76v-17.02Z"/>
  <path class="st0" d="M432.12,324.21v-12.12h-2.71v-1.62h2.71v-4.65h1.79v4.65h3.31v1.62h-3.31v11.84c0,1.38.54,2.33,1.69,2.33.78,0,1.45-.39,1.83-.81l.67,1.41c-.64.63-1.42,1.06-2.77,1.06-2.16,0-3.21-1.37-3.21-3.7"/>
  <path class="st0" d="M440.78,332.45c.37.18,1.01.28,1.42.28,1.08,0,1.83-.46,2.5-2.08l1.29-3.03-6.93-17.16h1.96l5.95,14.87,5.88-14.87h1.99l-8.45,20.75c-.88,2.15-2.27,3.17-4.16,3.17-.58,0-1.32-.11-1.76-.25l.31-1.69Z"/>
  <rect class="st0" x="46.07" y="250.47" width="403.89" height="1.2"/>
  <path class="st1" d="M202,201.32c1.05,0,1.9.89,1.9,1.98s-.85,1.99-1.9,1.99-1.9-.89-1.9-1.99.85-1.98,1.9-1.98"/>
  <path class="st1" d="M207.77,195.43c1.05,0,1.9.89,1.9,1.98s-.85,1.99-1.9,1.99-1.9-.89-1.9-1.99c0-1.09.85-1.98,1.9-1.98"/>
  <path class="st1" d="M202,195.43c1.05,0,1.9.89,1.9,1.98s-.85,1.99-1.9,1.99-1.9-.89-1.9-1.99.85-1.98,1.9-1.98"/>
  <path class="st1" d="M207.77,189.42c1.05,0,1.9.89,1.9,1.98s-.85,1.99-1.9,1.99-1.9-.89-1.9-1.99c0-1.09.85-1.98,1.9-1.98"/>
  <path class="st1" d="M213.42,189.42c1.05,0,1.9.89,1.9,1.98s-.85,1.99-1.9,1.99-1.9-.89-1.9-1.99.85-1.98,1.9-1.98"/>
  <path class="st1" d="M202,189.42c1.05,0,1.9.89,1.9,1.98s-.85,1.99-1.9,1.99-1.9-.89-1.9-1.99.85-1.98,1.9-1.98"/>
  <path class="st1" d="M207.77,183.53c1.05,0,1.9.89,1.9,1.98s-.85,1.99-1.9,1.99-1.9-.89-1.9-1.99c0-1.09.85-1.98,1.9-1.98"/>
  <path class="st1" d="M213.42,183.53c1.05,0,1.9.89,1.9,1.98s-.85,1.99-1.9,1.99-1.9-.89-1.9-1.99.85-1.98,1.9-1.98"/>
  <path class="st1" d="M202,183.53c1.05,0,1.9.89,1.9,1.98s-.85,1.99-1.9,1.99-1.9-.89-1.9-1.99.85-1.98,1.9-1.98"/>
  <path class="st1" d="M207.77,177.64c1.05,0,1.9.89,1.9,1.98s-.85,1.98-1.9,1.98-1.9-.89-1.9-1.98c0-1.1.85-1.98,1.9-1.98"/>
  <path class="st1" d="M213.42,177.64c1.05,0,1.9.89,1.9,1.98s-.85,1.98-1.9,1.98-1.9-.89-1.9-1.98.85-1.98,1.9-1.98"/>
  <path class="st1" d="M219.07,183.53c1.05,0,1.9.89,1.9,1.98s-.85,1.99-1.9,1.99-1.9-.89-1.9-1.99.85-1.98,1.9-1.98"/>
  <path class="st1" d="M219.07,177.64c1.05,0,1.9.89,1.9,1.98s-.85,1.98-1.9,1.98-1.9-.89-1.9-1.98.85-1.98,1.9-1.98"/>
  <path class="st1" d="M224.84,189.42c1.05,0,1.9.89,1.9,1.98s-.85,1.99-1.9,1.99-1.9-.89-1.9-1.99.85-1.98,1.9-1.98"/>
  <path class="st1" d="M224.84,183.53c1.05,0,1.9.89,1.9,1.98s-.85,1.99-1.9,1.99-1.9-.89-1.9-1.99.85-1.98,1.9-1.98"/>
  <path class="st1" d="M224.84,177.64c1.05,0,1.9.89,1.9,1.98s-.85,1.98-1.9,1.98-1.9-.89-1.9-1.98.85-1.98,1.9-1.98"/>
  <path class="st1" d="M230.5,195.43c1.05,0,1.91.89,1.91,1.98s-.86,1.99-1.91,1.99-1.9-.89-1.9-1.99.85-1.98,1.9-1.98"/>
  <path class="st1" d="M230.5,189.42c1.05,0,1.91.89,1.91,1.98s-.86,1.99-1.91,1.99-1.9-.89-1.9-1.99.85-1.98,1.9-1.98"/>
  <path class="st1" d="M230.5,183.53c1.05,0,1.91.89,1.91,1.98s-.86,1.99-1.91,1.99-1.9-.89-1.9-1.99.85-1.98,1.9-1.98"/>
  <path class="st1" d="M230.5,177.64c1.05,0,1.91.89,1.91,1.98s-.86,1.98-1.91,1.98-1.9-.89-1.9-1.98.85-1.98,1.9-1.98"/>
  <path class="st1" d="M213.42,171.51c1.05,0,1.9.89,1.9,1.98s-.85,1.98-1.9,1.98-1.9-.89-1.9-1.98.85-1.98,1.9-1.98"/>
  <path class="st1" d="M219.07,171.51c1.05,0,1.9.89,1.9,1.98s-.85,1.98-1.9,1.98-1.9-.89-1.9-1.98.85-1.98,1.9-1.98"/>
  <path class="st1" d="M224.84,171.51c1.05,0,1.9.89,1.9,1.98s-.85,1.98-1.9,1.98-1.9-.89-1.9-1.98.85-1.98,1.9-1.98"/>
  <path class="st1" d="M236.39,201.32c1.05,0,1.9.89,1.9,1.98s-.85,1.99-1.9,1.99-1.9-.89-1.9-1.99c0-1.09.85-1.98,1.9-1.98"/>
  <path class="st1" d="M236.39,195.43c1.05,0,1.9.89,1.9,1.98s-.85,1.99-1.9,1.99-1.9-.89-1.9-1.99c0-1.09.85-1.98,1.9-1.98"/>
  <path class="st1" d="M236.39,189.42c1.05,0,1.9.89,1.9,1.98s-.85,1.99-1.9,1.99-1.9-.89-1.9-1.99c0-1.09.85-1.98,1.9-1.98"/>
  <path class="st1" d="M236.39,183.53c1.05,0,1.9.89,1.9,1.98s-.85,1.99-1.9,1.99-1.9-.89-1.9-1.99c0-1.09.85-1.98,1.9-1.98"/>
  <path class="st1" d="M219.07,165.61c1.05,0,1.9.89,1.9,1.98s-.85,1.99-1.9,1.99-1.9-.89-1.9-1.99.85-1.98,1.9-1.98"/>
  <path class="st1" d="M202,201.32c1.05,0,1.9.89,1.9,1.98s-.85,1.99-1.9,1.99-1.9-.89-1.9-1.99.85-1.98,1.9-1.98"/>
  <path class="st1" d="M207.77,195.43c1.05,0,1.9.89,1.9,1.98s-.85,1.99-1.9,1.99-1.9-.89-1.9-1.99c0-1.09.85-1.98,1.9-1.98"/>
  <path class="st1" d="M202,195.43c1.05,0,1.9.89,1.9,1.98s-.85,1.99-1.9,1.99-1.9-.89-1.9-1.99.85-1.98,1.9-1.98"/>
  <path class="st1" d="M207.77,189.42c1.05,0,1.9.89,1.9,1.98s-.85,1.99-1.9,1.99-1.9-.89-1.9-1.99c0-1.09.85-1.98,1.9-1.98"/>
  <path class="st1" d="M213.42,189.42c1.05,0,1.9.89,1.9,1.98s-.85,1.99-1.9,1.99-1.9-.89-1.9-1.99.85-1.98,1.9-1.98"/>
  <path class="st1" d="M202,189.42c1.05,0,1.9.89,1.9,1.98s-.85,1.99-1.9,1.99-1.9-.89-1.9-1.99.85-1.98,1.9-1.98"/>
  <path class="st1" d="M207.77,183.53c1.05,0,1.9.89,1.9,1.98s-.85,1.99-1.9,1.99-1.9-.89-1.9-1.99c0-1.09.85-1.98,1.9-1.98"/>
  <path class="st1" d="M213.42,183.53c1.05,0,1.9.89,1.9,1.98s-.85,1.99-1.9,1.99-1.9-.89-1.9-1.99.85-1.98,1.9-1.98"/>
  <path class="st1" d="M202,183.53c1.05,0,1.9.89,1.9,1.98s-.85,1.99-1.9,1.99-1.9-.89-1.9-1.99.85-1.98,1.9-1.98"/>
  <path class="st1" d="M207.77,177.64c1.05,0,1.9.89,1.9,1.98s-.85,1.98-1.9,1.98-1.9-.89-1.9-1.98c0-1.1.85-1.98,1.9-1.98"/>
  <path class="st1" d="M213.42,177.64c1.05,0,1.9.89,1.9,1.98s-.85,1.98-1.9,1.98-1.9-.89-1.9-1.98.85-1.98,1.9-1.98"/>
  <path class="st1" d="M219.07,183.53c1.05,0,1.9.89,1.9,1.98s-.85,1.99-1.9,1.99-1.9-.89-1.9-1.99.85-1.98,1.9-1.98"/>
  <path class="st1" d="M219.07,177.64c1.05,0,1.9.89,1.9,1.98s-.85,1.98-1.9,1.98-1.9-.89-1.9-1.98.85-1.98,1.9-1.98"/>
  <path class="st1" d="M224.84,189.42c1.05,0,1.9.89,1.9,1.98s-.85,1.99-1.9,1.99-1.9-.89-1.9-1.99.85-1.98,1.9-1.98"/>
  <path class="st1" d="M224.84,183.53c1.05,0,1.9.89,1.9,1.98s-.85,1.99-1.9,1.99-1.9-.89-1.9-1.99.85-1.98,1.9-1.98"/>
  <path class="st1" d="M224.84,177.64c1.05,0,1.9.89,1.9,1.98s-.85,1.98-1.9,1.98-1.9-.89-1.9-1.98.85-1.98,1.9-1.98"/>
  <path class="st1" d="M230.5,195.43c1.05,0,1.91.89,1.91,1.98s-.86,1.99-1.91,1.99-1.9-.89-1.9-1.99.85-1.98,1.9-1.98"/>
  <path class="st1" d="M230.5,189.42c1.05,0,1.91.89,1.91,1.98s-.86,1.99-1.91,1.99-1.9-.89-1.9-1.99.85-1.98,1.9-1.98"/>
  <path class="st1" d="M230.5,183.53c1.05,0,1.91.89,1.91,1.98s-.86,1.99-1.91,1.99-1.9-.89-1.9-1.99.85-1.98,1.9-1.98"/>
  <path class="st1" d="M230.5,177.64c1.05,0,1.91.89,1.91,1.98s-.86,1.98-1.91,1.98-1.9-.89-1.9-1.98.85-1.98,1.9-1.98"/>
  <path class="st1" d="M213.42,171.51c1.05,0,1.9.89,1.9,1.98s-.85,1.98-1.9,1.98-1.9-.89-1.9-1.98.85-1.98,1.9-1.98"/>
  <path class="st1" d="M219.07,171.51c1.05,0,1.9.89,1.9,1.98s-.85,1.98-1.9,1.98-1.9-.89-1.9-1.98.85-1.98,1.9-1.98"/>
  <path class="st1" d="M224.84,171.51c1.05,0,1.9.89,1.9,1.98s-.85,1.98-1.9,1.98-1.9-.89-1.9-1.98.85-1.98,1.9-1.98"/>
  <path class="st1" d="M236.39,201.32c1.05,0,1.9.89,1.9,1.98s-.85,1.99-1.9,1.99-1.9-.89-1.9-1.99c0-1.09.85-1.98,1.9-1.98"/>
  <path class="st1" d="M236.39,195.43c1.05,0,1.9.89,1.9,1.98s-.85,1.99-1.9,1.99-1.9-.89-1.9-1.99c0-1.09.85-1.98,1.9-1.98"/>
  <path class="st1" d="M236.39,189.42c1.05,0,1.9.89,1.9,1.98s-.85,1.99-1.9,1.99-1.9-.89-1.9-1.99c0-1.09.85-1.98,1.9-1.98"/>
  <path class="st1" d="M236.39,183.53c1.05,0,1.9.89,1.9,1.98s-.85,1.99-1.9,1.99-1.9-.89-1.9-1.99c0-1.09.85-1.98,1.9-1.98"/>
  <path class="st1" d="M219.07,165.61c1.05,0,1.9.89,1.9,1.98s-.85,1.99-1.9,1.99-1.9-.89-1.9-1.99.85-1.98,1.9-1.98"/>
</svg>