<?xml version="1.0" encoding="UTF-8"?>
<svg xmlns="http://www.w3.org/2000/svg" viewBox="0 0 384.5 403.94">
  <defs>
    <style>
      .cls-1 {
        mix-blend-mode: soft-light;
      }

      .cls-2 {
        isolation: isolate;
      }

      .cls-3 {
        fill: #d0a74e;
        fill-rule: evenodd;
      }

      .cls-4 {
        fill: #84b441;
      }

      .cls-5 {
        fill: #a5cd39;
      }

      .cls-6 {
        fill: #00a551;
      }

      .cls-7 {
        fill: #009188;
      }
    </style>
  </defs>
  <g class="cls-2">
    <g id="Layer_1" data-name="Layer 1">
      <g>
        <path class="cls-6" d="M340.09,90.61s-6.88,18.96-17.46,24.72c-3.27,1.77-6.61,2.28-9.69,2.12h0s-6.17.2-9.04,1.81c-.97.54-1.52,42.83-1.83,71.78-.67.32-1.36.63-2.06.93l.51-78.49s-.84-13.79,9.44-20.08c10.27-6.3,30.13-2.79,30.13-2.79Z"/>
        <path class="cls-4" d="M327.85,59.73s-6.88,18.96-17.46,24.72c-3.26,1.78-6.62,2.28-9.69,2.13h0s-6.17.2-9.04,1.81c-1.4.79-1.94,66.51-2.13,107.73-.68.21-1.36.42-2.05.62l.79-114.14s-.83-13.79,9.44-20.09c10.27-6.29,30.13-2.79,30.13-2.79Z"/>
        <path class="cls-6" d="M302.5,282.75c-.13,7.99-.23,16.35-.33,24.2l-2.08,1.09s-.02,0-.03.01l.16-24.34c.77-.31,1.53-.63,2.27-.96Z"/>
        <path class="cls-4" d="M289.75,287.33c-.07,8.62-.13,17.16-.17,25.09-.67.23-1.35.45-2.04.66l.18-25.17,2.03-.58Z"/>
        <path class="cls-3" d="M206.72,73.51v238.18c-2.37-.48-4.75-.97-7.12-1.46v-92.3l-10.79-7.84v97.85l-7.12-1.5v-101.52l-10.79-7.84v107.21c-2.37-.45-4.75-.89-7.12-1.29v-111.08l-10.79-7.84v-71.54l53.71-39.02Z"/>
        <path class="cls-3" d="M224.62,86.52v133.43c-1.09.98-2.14,2.01-3.13,3.06-1.46,1.55-2.79,3.16-3.98,4.83V81.35l7.12,5.17Z"/>
        <path class="cls-3" d="M242.53,99.53v109.33c-2.5,1.05-4.87,2.2-7.11,3.45v-117.95l7.11,5.17Z"/>
        <path class="cls-3" d="M260.43,112.54v90.7c-2.38.58-4.76,1.21-7.11,1.88v-97.75l7.11,5.17Z"/>
        <path class="cls-3" d="M278.33,125.55v73.59c-2.31.55-4.67,1.08-7.06,1.61h-.05v-80.37l7.12,5.17Z"/>
        <path class="cls-3" d="M242.53,301.04v15.83c-2.35-.14-4.72-.34-7.11-.58v-10.39c2.1-1.76,4.49-3.39,7.11-4.85Z"/>
        <path class="cls-3" d="M260.43,294.33v22.83c-.6.01-1.2.02-1.8.02-1.55,0-3.14-.03-4.73-.09h-.15s-.15,0-.15,0c-.09,0-.19,0-.28,0v-20.69c2.29-.76,4.67-1.44,7.11-2.08Z"/>
        <path class="cls-3" d="M278.33,290.21v25.19c-1.66.33-3.34.61-5.02.83-.69.09-1.38.18-2.09.26v-24.71c.7-.16,1.41-.31,2.12-.47,1.65-.36,3.32-.73,4.99-1.11Z"/>
        <path class="cls-3" d="M153.01,184.08v117.28c-2.32-.31-4.63-.58-6.94-.8-4.93-.49-9.83-.73-14.56-.73-16.02,0-30.46,2.73-43,8.13v-77.01l64.5-46.86Z"/>
        <path class="cls-4" d="M329.13,206.29c-3.24,5.75-8.48,11.13-14.58,15.03-2.78,1.78-5.89,3.38-9.24,4.78-15.85,7.78-36.59,9.39-53.99,15.39-19.94,6.88-31.54,19.91-33.04,34.45-.43,4.19-.45,8.43-.51,12.63-.01,1-.46,3.19.03,4.25.35.76.22-.68.25-.93,1.17-11.38,11.15-22.33,25.17-28.93,11.94-5.62,26.56-7.88,40.17-11.19,14.74-3.58,27.25-8.9,35.94-17.63,8.73-8.78,12.58-19.13,13.73-29.51.3-2.73.54-5.48.71-8.22-.82,3.34-2.44,6.69-4.64,9.87Z"/>
        <path class="cls-6" d="M289.74,287.33c-.67.2-1.35.39-2.03.58l2.03-.58Z"/>
        <path class="cls-6" d="M325.86,236.87c-3.15,5.59-8.25,10.83-14.19,14.63-2.7,1.73-5.73,3.29-9,4.65-15.42,7.57-35.61,9.14-52.54,14.98-19.4,6.69-30.7,19.38-32.15,33.53-.42,4.08-.44,8.2-.49,12.29-.01.97-.45,3.1.03,4.13.34.74.22-.67.24-.9,1.14-11.07,10.85-21.73,24.49-28.15,11.62-5.47,25.85-7.67,39.09-10.89,14.34-3.48,26.52-8.66,34.97-17.16,8.49-8.54,12.24-18.62,13.36-28.71.3-2.66.52-5.33.69-8-.8,3.25-2.37,6.51-4.52,9.61Z"/>
        <path class="cls-7" d="M188.82,307.94c-2.36-.5-4.73-1.01-7.12-1.5l7.12,1.5Z"/>
        <path class="cls-7" d="M312.03,306.55c-10.42,7.43-24.08,12.61-38.06,14.52-6.37.87-13.19,1.16-20.26.9-34.4.84-72.43-13.04-108.12-16.56-40.91-4.03-72.07,9.39-86.58,33.59-4.18,6.98-7.67,14.36-11.2,21.66-.84,1.74-3.41,5.2-3.41,7.45,0,1.61.95-1.02,1.19-1.42,11.35-18.93,37.95-30.03,68.14-30.27,25.72-.21,53.45,7.61,80.24,12.79,29.01,5.61,55.49,6.39,77.99-1.88,22.61-8.31,37.87-23.3,48.37-40.49,2.77-4.53,5.41-9.14,7.97-13.79-4.17,5.17-9.77,9.73-16.27,13.51Z"/>
        <path class="cls-5" d="M325.95,180.38c-3.15,5.59-8.25,10.83-14.19,14.63-2.7,1.73-5.73,3.29-9,4.65-15.42,7.57-35.61,9.14-52.54,14.98-19.4,6.69-30.7,19.38-32.15,33.53-.42,4.08-.44,8.2-.49,12.29-.01.97-.45,3.1.03,4.13.34.74.22-.67.24-.9,1.14-11.07,10.85-21.73,24.49-28.15,11.62-5.47,25.85-7.67,39.09-10.89,14.34-3.48,26.52-8.66,34.97-17.16,8.49-8.54,12.24-18.62,13.36-28.71.3-2.66.52-5.33.69-8-.8,3.25-2.37,6.51-4.52,9.61Z"/>
        <path class="cls-6" d="M340.09,90.61s-6.88,18.96-17.46,24.72c-3.27,1.77-6.61,2.28-9.69,2.12h0s-6.17.2-9.04,1.81c-.97.54-1.52,42.83-1.83,71.78-.67.32-1.36.63-2.06.93l.51-78.49s-.84-13.79,9.44-20.08c10.27-6.3,30.13-2.79,30.13-2.79Z"/>
        <path class="cls-4" d="M327.85,59.73s-6.88,18.96-17.46,24.72c-3.26,1.78-6.62,2.28-9.69,2.13h0s-6.17.2-9.04,1.81c-1.4.79-1.94,66.51-2.13,107.73-.68.21-1.36.42-2.05.62l.79-114.14s-.83-13.79,9.44-20.09c10.27-6.29,30.13-2.79,30.13-2.79Z"/>
        <path class="cls-6" d="M302.5,282.75c-.13,7.99-.23,16.35-.33,24.2l-2.08,1.09s-.02,0-.03.01l.16-24.34c.77-.31,1.53-.63,2.27-.96Z"/>
        <path class="cls-4" d="M289.75,287.33c-.07,8.62-.13,17.16-.17,25.09-.67.23-1.35.45-2.04.66l.18-25.17,2.03-.58Z"/>
        <path class="cls-3" d="M206.72,73.51v238.18c-2.37-.48-4.75-.97-7.12-1.46v-92.3l-10.79-7.84v97.85l-7.12-1.5v-101.52l-10.79-7.84v107.21c-2.37-.45-4.75-.89-7.12-1.29v-111.08l-10.79-7.84v-71.54l53.71-39.02Z"/>
        <path class="cls-3" d="M224.62,86.52v133.43c-1.09.98-2.14,2.01-3.13,3.06-1.46,1.55-2.79,3.16-3.98,4.83V81.35l7.12,5.17Z"/>
        <path class="cls-3" d="M242.53,99.53v109.33c-2.5,1.05-4.87,2.2-7.11,3.45v-117.95l7.11,5.17Z"/>
        <path class="cls-3" d="M260.43,112.54v90.7c-2.38.58-4.76,1.21-7.11,1.88v-97.75l7.11,5.17Z"/>
        <path class="cls-3" d="M278.33,125.55v73.59c-2.31.55-4.67,1.08-7.06,1.61h-.05v-80.37l7.12,5.17Z"/>
        <path class="cls-3" d="M242.53,301.04v15.83c-2.35-.14-4.72-.34-7.11-.58v-10.39c2.1-1.76,4.49-3.39,7.11-4.85Z"/>
        <path class="cls-3" d="M260.43,294.33v22.83c-.6.01-1.2.02-1.8.02-1.55,0-3.14-.03-4.73-.09h-.15s-.15,0-.15,0c-.09,0-.19,0-.28,0v-20.69c2.29-.76,4.67-1.44,7.11-2.08Z"/>
        <path class="cls-3" d="M278.33,290.21v25.19c-1.66.33-3.34.61-5.02.83-.69.09-1.38.18-2.09.26v-24.71c.7-.16,1.41-.31,2.12-.47,1.65-.36,3.32-.73,4.99-1.11Z"/>
        <path class="cls-3" d="M153.01,184.08v117.28c-2.32-.31-4.63-.58-6.94-.8-4.93-.49-9.83-.73-14.56-.73-16.02,0-30.46,2.73-43,8.13v-77.01l64.5-46.86Z"/>
        <path class="cls-4" d="M329.13,206.29c-3.24,5.75-8.48,11.13-14.58,15.03-2.78,1.78-5.89,3.38-9.24,4.78-15.85,7.78-36.59,9.39-53.99,15.39-19.94,6.88-31.54,19.91-33.04,34.45-.43,4.19-.45,8.43-.51,12.63-.01,1-.46,3.19.03,4.25.35.76.22-.68.25-.93,1.17-11.38,11.15-22.33,25.17-28.93,11.94-5.62,26.56-7.88,40.17-11.19,14.74-3.58,27.25-8.9,35.94-17.63,8.73-8.78,12.58-19.13,13.73-29.51.3-2.73.54-5.48.71-8.22-.82,3.34-2.44,6.69-4.64,9.87Z"/>
        <path class="cls-6" d="M289.74,287.33c-.67.2-1.35.39-2.03.58l2.03-.58Z"/>
        <path class="cls-6" d="M325.86,236.87c-3.15,5.59-8.25,10.83-14.19,14.63-2.7,1.73-5.73,3.29-9,4.65-15.42,7.57-35.61,9.14-52.54,14.98-19.4,6.69-30.7,19.38-32.15,33.53-.42,4.08-.44,8.2-.49,12.29-.01.97-.45,3.1.03,4.13.34.74.22-.67.24-.9,1.14-11.07,10.85-21.73,24.49-28.15,11.62-5.47,25.85-7.67,39.09-10.89,14.34-3.48,26.52-8.66,34.97-17.16,8.49-8.54,12.24-18.62,13.36-28.71.3-2.66.52-5.33.69-8-.8,3.25-2.37,6.51-4.52,9.61Z"/>
        <path class="cls-7" d="M188.82,307.94c-2.36-.5-4.73-1.01-7.12-1.5l7.12,1.5Z"/>
        <path class="cls-7" d="M312.03,306.55c-10.42,7.43-24.08,12.61-38.06,14.52-6.37.87-13.19,1.16-20.26.9-34.4.84-72.43-13.04-108.12-16.56-40.91-4.03-72.07,9.39-86.58,33.59-4.18,6.98-7.67,14.36-11.2,21.66-.84,1.74-3.41,5.2-3.41,7.45,0,1.61.95-1.02,1.19-1.42,11.35-18.93,37.95-30.03,68.14-30.27,25.72-.21,53.45,7.61,80.24,12.79,29.01,5.61,55.49,6.39,77.99-1.88,22.61-8.31,37.87-23.3,48.37-40.49,2.77-4.53,5.41-9.14,7.97-13.79-4.17,5.17-9.77,9.73-16.27,13.51Z"/>
        <path class="cls-5" d="M325.95,180.38c-3.15,5.59-8.25,10.83-14.19,14.63-2.7,1.73-5.73,3.29-9,4.65-15.42,7.57-35.61,9.14-52.54,14.98-19.4,6.69-30.7,19.38-32.15,33.53-.42,4.08-.44,8.2-.49,12.29-.01.97-.45,3.1.03,4.13.34.74.22-.67.24-.9,1.14-11.07,10.85-21.73,24.49-28.15,11.62-5.47,25.85-7.67,39.09-10.89,14.34-3.48,26.52-8.66,34.97-17.16,8.49-8.54,12.24-18.62,13.36-28.71.3-2.66.52-5.33.69-8-.8,3.25-2.37,6.51-4.52,9.61Z"/>
      </g>
      <g class="cls-1">
        <path class="cls-6" d="M340.09,90.61s-6.88,18.96-17.46,24.72c-3.27,1.77-6.61,2.28-9.69,2.12h0s-6.17.2-9.04,1.81c-.97.54-1.52,42.83-1.83,71.78-.67.32-1.36.63-2.06.93l.51-78.49s-.84-13.79,9.44-20.08c10.27-6.3,30.13-2.79,30.13-2.79Z"/>
        <path class="cls-4" d="M327.85,59.73s-6.88,18.96-17.46,24.72c-3.26,1.78-6.62,2.28-9.69,2.13h0s-6.17.2-9.04,1.81c-1.4.79-1.94,66.51-2.13,107.73-.68.21-1.36.42-2.05.62l.79-114.14s-.83-13.79,9.44-20.09c10.27-6.29,30.13-2.79,30.13-2.79Z"/>
        <path class="cls-6" d="M302.5,282.75c-.13,7.99-.23,16.35-.33,24.2l-2.08,1.09s-.02,0-.03.01l.16-24.34c.77-.31,1.53-.63,2.27-.96Z"/>
        <path class="cls-4" d="M289.75,287.33c-.07,8.62-.13,17.16-.17,25.09-.67.23-1.35.45-2.04.66l.18-25.17,2.03-.58Z"/>
        <path class="cls-3" d="M206.72,73.51v238.18c-2.37-.48-4.75-.97-7.12-1.46v-92.3l-10.79-7.84v97.85l-7.12-1.5v-101.52l-10.79-7.84v107.21c-2.37-.45-4.75-.89-7.12-1.29v-111.08l-10.79-7.84v-71.54l53.71-39.02Z"/>
        <path class="cls-3" d="M224.62,86.52v133.43c-1.09.98-2.14,2.01-3.13,3.06-1.46,1.55-2.79,3.16-3.98,4.83V81.35l7.12,5.17Z"/>
        <path class="cls-3" d="M242.53,99.53v109.33c-2.5,1.05-4.87,2.2-7.11,3.45v-117.95l7.11,5.17Z"/>
        <path class="cls-3" d="M260.43,112.54v90.7c-2.38.58-4.76,1.21-7.11,1.88v-97.75l7.11,5.17Z"/>
        <path class="cls-3" d="M278.33,125.55v73.59c-2.31.55-4.67,1.08-7.06,1.61h-.05v-80.37l7.12,5.17Z"/>
        <path class="cls-3" d="M242.53,301.04v15.83c-2.35-.14-4.72-.34-7.11-.58v-10.39c2.1-1.76,4.49-3.39,7.11-4.85Z"/>
        <path class="cls-3" d="M260.43,294.33v22.83c-.6.01-1.2.02-1.8.02-1.55,0-3.14-.03-4.73-.09h-.15s-.15,0-.15,0c-.09,0-.19,0-.28,0v-20.69c2.29-.76,4.67-1.44,7.11-2.08Z"/>
        <path class="cls-3" d="M278.33,290.21v25.19c-1.66.33-3.34.61-5.02.83-.69.09-1.38.18-2.09.26v-24.71c.7-.16,1.41-.31,2.12-.47,1.65-.36,3.32-.73,4.99-1.11Z"/>
        <path class="cls-3" d="M153.01,184.08v117.28c-2.32-.31-4.63-.58-6.94-.8-4.93-.49-9.83-.73-14.56-.73-16.02,0-30.46,2.73-43,8.13v-77.01l64.5-46.86Z"/>
        <path class="cls-4" d="M329.13,206.29c-3.24,5.75-8.48,11.13-14.58,15.03-2.78,1.78-5.89,3.38-9.24,4.78-15.85,7.78-36.59,9.39-53.99,15.39-19.94,6.88-31.54,19.91-33.04,34.45-.43,4.19-.45,8.43-.51,12.63-.01,1-.46,3.19.03,4.25.35.76.22-.68.25-.93,1.17-11.38,11.15-22.33,25.17-28.93,11.94-5.62,26.56-7.88,40.17-11.19,14.74-3.58,27.25-8.9,35.94-17.63,8.73-8.78,12.58-19.13,13.73-29.51.3-2.73.54-5.48.71-8.22-.82,3.34-2.44,6.69-4.64,9.87Z"/>
        <path class="cls-6" d="M289.74,287.33c-.67.2-1.35.39-2.03.58l2.03-.58Z"/>
        <path class="cls-6" d="M325.86,236.87c-3.15,5.59-8.25,10.83-14.19,14.63-2.7,1.73-5.73,3.29-9,4.65-15.42,7.57-35.61,9.14-52.54,14.98-19.4,6.69-30.7,19.38-32.15,33.53-.42,4.08-.44,8.2-.49,12.29-.01.97-.45,3.1.03,4.13.34.74.22-.67.24-.9,1.14-11.07,10.85-21.73,24.49-28.15,11.62-5.47,25.85-7.67,39.09-10.89,14.34-3.48,26.52-8.66,34.97-17.16,8.49-8.54,12.24-18.62,13.36-28.71.3-2.66.52-5.33.69-8-.8,3.25-2.37,6.51-4.52,9.61Z"/>
        <path class="cls-7" d="M188.82,307.94c-2.36-.5-4.73-1.01-7.12-1.5l7.12,1.5Z"/>
        <path class="cls-7" d="M312.03,306.55c-10.42,7.43-24.08,12.61-38.06,14.52-6.37.87-13.19,1.16-20.26.9-34.4.84-72.43-13.04-108.12-16.56-40.91-4.03-72.07,9.39-86.58,33.59-4.18,6.98-7.67,14.36-11.2,21.66-.84,1.74-3.41,5.2-3.41,7.45,0,1.61.95-1.02,1.19-1.42,11.35-18.93,37.95-30.03,68.14-30.27,25.72-.21,53.45,7.61,80.24,12.79,29.01,5.61,55.49,6.39,77.99-1.88,22.61-8.31,37.87-23.3,48.37-40.49,2.77-4.53,5.41-9.14,7.97-13.79-4.17,5.17-9.77,9.73-16.27,13.51Z"/>
        <path class="cls-5" d="M325.95,180.38c-3.15,5.59-8.25,10.83-14.19,14.63-2.7,1.73-5.73,3.29-9,4.65-15.42,7.57-35.61,9.14-52.54,14.98-19.4,6.69-30.7,19.38-32.15,33.53-.42,4.08-.44,8.2-.49,12.29-.01.97-.45,3.1.03,4.13.34.74.22-.67.24-.9,1.14-11.07,10.85-21.73,24.49-28.15,11.62-5.47,25.85-7.67,39.09-10.89,14.34-3.48,26.52-8.66,34.97-17.16,8.49-8.54,12.24-18.62,13.36-28.71.3-2.66.52-5.33.69-8-.8,3.25-2.37,6.51-4.52,9.61Z"/>
        <path class="cls-6" d="M340.09,90.61s-6.88,18.96-17.46,24.72c-3.27,1.77-6.61,2.28-9.69,2.12h0s-6.17.2-9.04,1.81c-.97.54-1.52,42.83-1.83,71.78-.67.32-1.36.63-2.06.93l.51-78.49s-.84-13.79,9.44-20.08c10.27-6.3,30.13-2.79,30.13-2.79Z"/>
        <path class="cls-4" d="M327.85,59.73s-6.88,18.96-17.46,24.72c-3.26,1.78-6.62,2.28-9.69,2.13h0s-6.17.2-9.04,1.81c-1.4.79-1.94,66.51-2.13,107.73-.68.21-1.36.42-2.05.62l.79-114.14s-.83-13.79,9.44-20.09c10.27-6.29,30.13-2.79,30.13-2.79Z"/>
        <path class="cls-6" d="M302.5,282.75c-.13,7.99-.23,16.35-.33,24.2l-2.08,1.09s-.02,0-.03.01l.16-24.34c.77-.31,1.53-.63,2.27-.96Z"/>
        <path class="cls-4" d="M289.75,287.33c-.07,8.62-.13,17.16-.17,25.09-.67.23-1.35.45-2.04.66l.18-25.17,2.03-.58Z"/>
        <path class="cls-3" d="M206.72,73.51v238.18c-2.37-.48-4.75-.97-7.12-1.46v-92.3l-10.79-7.84v97.85l-7.12-1.5v-101.52l-10.79-7.84v107.21c-2.37-.45-4.75-.89-7.12-1.29v-111.08l-10.79-7.84v-71.54l53.71-39.02Z"/>
        <path class="cls-3" d="M224.62,86.52v133.43c-1.09.98-2.14,2.01-3.13,3.06-1.46,1.55-2.79,3.16-3.98,4.83V81.35l7.12,5.17Z"/>
        <path class="cls-3" d="M242.53,99.53v109.33c-2.5,1.05-4.87,2.2-7.11,3.45v-117.95l7.11,5.17Z"/>
        <path class="cls-3" d="M260.43,112.54v90.7c-2.38.58-4.76,1.21-7.11,1.88v-97.75l7.11,5.17Z"/>
        <path class="cls-3" d="M278.33,125.55v73.59c-2.31.55-4.67,1.08-7.06,1.61h-.05v-80.37l7.12,5.17Z"/>
        <path class="cls-3" d="M242.53,301.04v15.83c-2.35-.14-4.72-.34-7.11-.58v-10.39c2.1-1.76,4.49-3.39,7.11-4.85Z"/>
        <path class="cls-3" d="M260.43,294.33v22.83c-.6.01-1.2.02-1.8.02-1.55,0-3.14-.03-4.73-.09h-.15s-.15,0-.15,0c-.09,0-.19,0-.28,0v-20.69c2.29-.76,4.67-1.44,7.11-2.08Z"/>
        <path class="cls-3" d="M278.33,290.21v25.19c-1.66.33-3.34.61-5.02.83-.69.09-1.38.18-2.09.26v-24.71c.7-.16,1.41-.31,2.12-.47,1.65-.36,3.32-.73,4.99-1.11Z"/>
        <path class="cls-3" d="M153.01,184.08v117.28c-2.32-.31-4.63-.58-6.94-.8-4.93-.49-9.83-.73-14.56-.73-16.02,0-30.46,2.73-43,8.13v-77.01l64.5-46.86Z"/>
        <path class="cls-4" d="M329.13,206.29c-3.24,5.75-8.48,11.13-14.58,15.03-2.78,1.78-5.89,3.38-9.24,4.78-15.85,7.78-36.59,9.39-53.99,15.39-19.94,6.88-31.54,19.91-33.04,34.45-.43,4.19-.45,8.43-.51,12.63-.01,1-.46,3.19.03,4.25.35.76.22-.68.25-.93,1.17-11.38,11.15-22.33,25.17-28.93,11.94-5.62,26.56-7.88,40.17-11.19,14.74-3.58,27.25-8.9,35.94-17.63,8.73-8.78,12.58-19.13,13.73-29.51.3-2.73.54-5.48.71-8.22-.82,3.34-2.44,6.69-4.64,9.87Z"/>
        <path class="cls-6" d="M289.74,287.33c-.67.2-1.35.39-2.03.58l2.03-.58Z"/>
        <path class="cls-6" d="M325.86,236.87c-3.15,5.59-8.25,10.83-14.19,14.63-2.7,1.73-5.73,3.29-9,4.65-15.42,7.57-35.61,9.14-52.54,14.98-19.4,6.69-30.7,19.38-32.15,33.53-.42,4.08-.44,8.2-.49,12.29-.01.97-.45,3.1.03,4.13.34.74.22-.67.24-.9,1.14-11.07,10.85-21.73,24.49-28.15,11.62-5.47,25.85-7.67,39.09-10.89,14.34-3.48,26.52-8.66,34.97-17.16,8.49-8.54,12.24-18.62,13.36-28.71.3-2.66.52-5.33.69-8-.8,3.25-2.37,6.51-4.52,9.61Z"/>
        <path class="cls-7" d="M188.82,307.94c-2.36-.5-4.73-1.01-7.12-1.5l7.12,1.5Z"/>
        <path class="cls-7" d="M312.03,306.55c-10.42,7.43-24.08,12.61-38.06,14.52-6.37.87-13.19,1.16-20.26.9-34.4.84-72.43-13.04-108.12-16.56-40.91-4.03-72.07,9.39-86.58,33.59-4.18,6.98-7.67,14.36-11.2,21.66-.84,1.74-3.41,5.2-3.41,7.45,0,1.61.95-1.02,1.19-1.42,11.35-18.93,37.95-30.03,68.14-30.27,25.72-.21,53.45,7.61,80.24,12.79,29.01,5.61,55.49,6.39,77.99-1.88,22.61-8.31,37.87-23.3,48.37-40.49,2.77-4.53,5.41-9.14,7.97-13.79-4.17,5.17-9.77,9.73-16.27,13.51Z"/>
        <path class="cls-5" d="M325.95,180.38c-3.15,5.59-8.25,10.83-14.19,14.63-2.7,1.73-5.73,3.29-9,4.65-15.42,7.57-35.61,9.14-52.54,14.98-19.4,6.69-30.7,19.38-32.15,33.53-.42,4.08-.44,8.2-.49,12.29-.01.97-.45,3.1.03,4.13.34.74.22-.67.24-.9,1.14-11.07,10.85-21.73,24.49-28.15,11.62-5.47,25.85-7.67,39.09-10.89,14.34-3.48,26.52-8.66,34.97-17.16,8.49-8.54,12.24-18.62,13.36-28.71.3-2.66.52-5.33.69-8-.8,3.25-2.37,6.51-4.52,9.61Z"/>
      </g>
    </g>
  </g>
</svg>