<?xml version="1.0" encoding="UTF-8"?>
<svg id="Layer_1" xmlns="http://www.w3.org/2000/svg" version="1.1" viewBox="0 0 500 500">
  <!-- Generator: Adobe Illustrator 29.8.1, SVG Export Plug-In . SVG Version: 2.1.1 Build 2)  -->
  <defs>
    <style>
      .st0 {
        fill: #a5ce3a;
      }

      .st1 {
        fill: #86b740;
      }

      .st2 {
        fill: #019189;
      }

      .st3 {
        fill: #06a64f;
      }

      .st4 {
        fill: #d3ab4f;
      }
    </style>
  </defs>
  <g>
    <path class="st4" d="M20.42,397.56c0-2.46.46-4.85,1.39-7.08h6.29c-1.19,2.77-1.75,5.7-1.75,8.55,0,9.2,6.09,17.57,17.8,17.57,15.02,0,28.73.08,43.65.08,3.38,0,6.75-.28,9.61-1.9,3.07-1.7,4.29-3.57,4.29-5.32,0-3.6-6.09-7.45-12.38-7.45-7.78,0-15.85,0-23.63-.05-5.73-.05-10.53-2.72-13.44-7.96-.83-1.39-1.12-2.72-1.12-4.16,0-3.57,2.41-6.85,5.93-8.98,4.76-2.87,11-3.01,16.51-3.24,7.56-.28,15.65-1.52,19.33-7.53.05.13-3.22,6.34-8.39,9.81-3.83,2.59-8.75,2.96-13.61,2.96-2.66,0-5.22-.05-7.66-.05-4.71.13-9.87,3.6-9.87,7.08,0,5.27,8.64,7.68,12.63,8.09,4.54,0,9.15-.1,13.75-.1,7.46,0,15.85-.1,21.22,4.95,2.3,2.18,3.32,4.52,3.32,6.7,0,3.8-3.02,7.12-7.93,8.32-2.92.74-5.73.74-8.68.74h-42.04c-3.53,0-6.29-.13-9.51-1.16-8.68-2.69-15.75-9.91-15.75-19.93"/>
    <path class="st4" d="M109.57,415.33c2.15.83,4.56,1.21,6.95,1.21,11.61,0,16.31-8.88,16.31-17.39,0-11.43-7.61-19.37-18.26-19.37-1.63,0-3.32.18-5,.59v-1.98c1.9-.36,3.78-.51,5.78-.51,14.68,0,23.48,9.06,23.48,19.7,0,13.36-11.92,21.08-24.04,21.08-1.73,0-3.48-.13-5.22-.46v-2.87h0Z"/>
    <path class="st4" d="M148.69,359.5c-.1-2.36-1.17-2.96-3.58-3.01-.36,0-.46-.15-.46-.28,0-.23.36-.56.92-.56h12.73c.56,0,.92.31.92.56,0,.13-.15.28-.46.28-2.56.05-4.29.18-4.44,3.01-.31,4.67-.2,9.43-.1,52.95,0,5.04,1.12,5.27,4.54,5.32.31.05.46.13.46.31,0,.23-.36.56-.92.56h-12.73c-.56,0-.92-.33-.92-.56,0-.18.1-.28.46-.31,3.12-.1,3.53-1.29,3.63-4.03l-.05-54.24Z"/>
    <path class="st4" d="M189.54,416.48c-.1,0,16.16,1.21,16.16-17.62,0-12.25-8.39-19-17.85-19-10.02,0-17.12,5.65-17.12,16.92,0,12.9,8.64,19.7,18.82,19.7M188.2,377.86c14.53,0,23.53,8.22,23.53,19.62,0,6.8-.51,18.54,11.97,19.1v2.08c-4.8-.36-9.1-2.08-12.17-5.27.41,8.6-8.64,15.95-12.99,15.62,6.9-3.47,7.78-11.74,7.78-17.72-4.51,4.57-10.63,7.35-18.46,7.35-17.24,0-23.31-11.89-23.31-20.44s7.15-20.34,23.68-20.34"/>
    <path class="st4" d="M223.67,416.61c10.78-.69,11.92-9.48,11.92-16.28v-14.38c0-.74,0-23.68-.05-24.19,0-3.14.05-4.62-2.05-5.09-.51-.13-2.97-.1-2.97-.64,0-.41.46-.41.97-.41h12.73c.66,0,.92.1.92.41,0,.18-.26.41-.46.41-3.17,0-3.63,1.06-3.63,4.03v28.35c0,13.13,2.25,28.4-17.39,29.82v-2.03h0Z"/>
    <path class="st4" d="M255,359.5c-.1-2.36-1.17-2.96-3.58-3.01-.36,0-.46-.15-.46-.28,0-.23.36-.56.92-.56h12.73c.56,0,.92.31.92.56,0,.13-.15.28-.46.28-2.56.05-4.29.18-4.44,3.01-.31,4.67-.2,9.43-.1,52.95,0,5.04,1.12,5.27,4.56,5.32.31.05.46.13.46.31,0,.23-.36.56-.92.56h-12.73c-.56,0-.92-.33-.92-.56,0-.18.1-.28.46-.31,3.12-.1,3.53-1.29,3.63-4.03l-.05-54.24h-.02Z"/>
    <path class="st4" d="M316.87,367.79c0,2.31-2.1,4.06-4.51,4.06s-4.51-1.75-4.51-4.06,2-4.06,4.51-4.06,4.51,1.8,4.51,4.06M305.87,367.79c0,2.31-2,4.06-4.49,4.06s-4.51-1.75-4.51-4.06,2.1-4.06,4.51-4.06,4.49,1.8,4.49,4.06M307.97,416.48c8.9,0,16.16-5.55,16.16-17.62,0-11.38-7.46-19.15-17.85-19.15-10.95,0-16.78,6.37-17.12,17.06.41,12.58,8.34,19.7,18.82,19.7M306.65,377.81c12.99,0,23.53,7.03,23.53,19.52,0,14.56-11.87,20.95-23.87,21.32-18.46-.64-23.21-12.68-23.21-20.44,0-10.09,8.49-20.39,23.58-20.39"/>
    <path class="st4" d="M344.21,404.41c0,6.06-.31,11.28-.97,13.56-1.59,5.5-6.39,9.89-12.99,11.84,6.34-4.62,8.49-6.98,8.49-21.78s.1-22.85.1-25.16c0-1.52-.41-3.98-2.61-3.98-.31-.15-2.51.13-2.51-.59,0-.18,0-.28.2-.38,4.39,0,8.95-.08,13.39-.08.88,0,.92.18.92.41,0,.41-.31.46-.61.46-2.87,0-3.48,1.67-3.48,4.06v10.12c0,3.8.05,7.81.05,11.51"/>
    <path class="st4" d="M353.51,415.33c2.25.83,4.61,1.21,7,1.21,11.61,0,16.26-8.92,16.26-17.52,0-11.38-7.66-19.24-18.24-19.24-1.63,0-3.32.18-5.02.59v-1.98c1.9-.36,3.83-.51,5.78-.51,14.83,0,23.58,9.01,23.58,19.7,0,.46,0,.92-.05,1.39,0,5.6-.15,12.53,5.88,15.92,1.85,1.06,4.05,1.62,6.09,1.72v2.08c-6.8-.46-12.99-3.8-15.09-10.4-4.29,6.7-12.38,10.35-21.02,10.35-1.73,0-3.43-.15-5.17-.41v-2.89Z"/>
    <path class="st4" d="M438.44,411.3c-2.71,4.57-8.68,7.35-14.58,7.35-7.93-.59-12.12-3.42-14.41-7.35-2.3,3.93-6.59,6.85-14.68,7.35v-2.08c2.1,0,4.19-.64,6.09-1.75,5.47-3.1,5.88-9.01,5.88-14.53v-17.72c0-.92-.1-2.49-1.07-3.29-.66-.46-4-.36-4-.97,0-.23,0-.46.97-.46h13.61c.88,0,.92.15.92.46,0,.41-.51.46-1.9.46-2.87,0-3.17,1.49-3.17,2.77,0,.18,0,6.42.05,18.72,0,6.89,1.9,16.28,11.71,16.28s11.87-9.2,11.87-16.28v-15.72c0-.13,0-.79-.05-1.95-.05-1.21-.15-2-.36-2.41-.2-.41-.51-.74-.92-.97-1.39-.69-4-.31-3.68-.92,0-.23-.05-.46.92-.46h13.61c.66,0,.97.15.97.46,0,.41-.66.46-1.9.46-2.41,0-3.07,1.16-3.07,2.96,0,3.83-.1,6.19-.1,18.54,0,5.45.41,11.43,5.88,14.53,2,1.11,3.88,1.75,6.09,1.75,9.97,0,11.92-9.06,11.92-16.28-.05-11.84-.1-17.98-.15-18.41,0-.41-.26-1.06-.78-1.9-.51-.83-1.27-1.25-2.25-1.21-1.9.05-1.95-.23-1.95-.56,0-.18.1-.28.31-.28,4.51,0,8.95-.1,13.39-.1.66,0,.97.15.97.46,0,.97-4.09-.51-4.09,3.42v14.28c0,10.91-.97,22.6-17.39,22.6-8.07,0-12.33-3.37-14.68-7.35"/>
    <path class="st3" d="M413.95,35.51s-7.28,19.65-18.49,25.61c-3.47,1.83-7,2.36-10.27,2.2h0s-6.54.2-9.58,1.88c-1.02.56-1.6,44.38-1.95,74.38-.71.33-1.44.64-2.18.96l.54-81.33s-.89-14.28,10.01-20.8c10.88-6.52,31.92-2.89,31.92-2.89"/>
    <path class="st1" d="M400.98,3.51s-7.28,19.65-18.49,25.61c-3.45,1.85-7,2.36-10.27,2.21h0s-6.54.2-9.58,1.88c-1.49.81-2.05,68.92-2.26,111.63-.73.21-1.44.43-2.16.64l.84-118.27s-.88-14.28,10.01-20.82c10.88-6.52,31.92-2.89,31.92-2.89"/>
    <path class="st3" d="M374.13,234.6c-.13,8.27-.25,16.94-.35,25.08l-2.2,1.12h-.03l.17-25.21c.83-.33,1.62-.66,2.41-.99"/>
    <path class="st1" d="M360.62,239.35c-.08,8.93-.13,17.78-.18,26-.71.25-1.44.46-2.16.68l.18-26.09,2.15-.59h.02Z"/>
  </g>
  <rect class="st4" x="23.09" y="451.58" width="456.53" height="1.68"/>
  <g>
    <path class="st4" d="M272.69,17.79v246.79c-2.51-.5-5.04-1.01-7.53-1.52v-95.63l-11.43-8.12v101.38l-7.53-1.55v-105.19l-11.43-8.12v111.09c-2.51-.46-5.04-.92-7.53-1.34v-115.1l-11.43-8.12V58.21l56.9-40.44-.03.02Z"/>
    <path class="st4" d="M291.64,31.28v138.26c-1.16,1.02-2.26,2.08-3.32,3.17-1.54,1.6-2.96,3.29-4.21,5V25.91l7.53,5.35v.02Z"/>
    <path class="st4" d="M310.61,44.75v113.28c-2.64,1.09-5.15,2.28-7.53,3.58V39.4l7.53,5.35Z"/>
    <path class="st4" d="M329.57,58.23v93.98c-2.53.61-5.05,1.25-7.53,1.95V52.88s7.53,5.35,7.53,5.35Z"/>
    <path class="st4" d="M348.54,71.72v76.25c-2.44.56-4.95,1.12-7.48,1.67h-.05v-83.28l7.53,5.35v.02Z"/>
    <path class="st4" d="M310.61,253.55v16.4c-2.49-.15-5-.35-7.53-.61v-10.77c2.23-1.82,4.76-3.52,7.53-5.04"/>
    <path class="st4" d="M329.57,246.6v23.66h-1.92c-1.65,0-3.34-.03-5.02-.1h-.59v-21.43c2.43-.79,4.94-1.5,7.53-2.16"/>
    <path class="st4" d="M348.54,242.32v26.1c-1.77.35-3.53.63-5.32.88-.73.1-1.47.18-2.21.26v-25.59c.74-.17,1.49-.33,2.25-.5,1.75-.38,3.52-.76,5.28-1.16"/>
    <path class="st4" d="M215.79,132.36v121.52c-2.46-.31-4.9-.59-7.35-.83-5.22-.51-10.4-.76-15.42-.76-16.96,0-32.26,2.84-45.55,8.42v-79.8l68.31-48.56h.02Z"/>
    <path class="st1" d="M402.35,155.38c-3.43,5.96-8.98,11.52-15.44,15.57-2.94,1.85-6.24,3.5-9.79,4.95-16.79,8.06-38.75,9.72-57.19,15.95-21.12,7.13-33.42,20.64-34.99,35.7-.46,4.34-.48,8.73-.54,13.09,0,1.04-.5,3.3.03,4.41.38.79.23-.71.26-.96,1.24-11.79,11.81-23.13,26.67-29.97,12.65-5.83,28.13-8.17,42.55-11.59,15.6-3.71,28.86-9.21,38.06-18.28,9.25-9.1,13.32-19.83,14.55-30.58.31-2.82.56-5.68.76-8.52-.86,3.45-2.58,6.93-4.92,10.24"/>
    <path class="st3" d="M360.62,239.35c-.71.2-1.42.4-2.15.59l2.15-.59Z"/>
    <path class="st3" d="M398.86,187.06c-3.34,5.8-8.73,11.21-15.02,15.16-2.86,1.8-6.08,3.4-9.53,4.82-16.33,7.84-37.71,9.46-55.64,15.52-20.56,6.93-32.51,20.08-34.06,34.74-.45,4.23-.46,8.5-.51,12.73,0,1.01-.48,3.22.03,4.28.36.76.23-.69.26-.94,1.21-11.48,11.49-22.52,25.94-29.17,12.32-5.66,27.38-7.94,41.41-11.28,15.19-3.6,28.09-8.97,37.03-17.78,9-8.85,12.96-19.3,14.15-29.75.31-2.76.54-5.51.73-8.29-.84,3.37-2.51,6.75-4.79,9.96"/>
    <path class="st2" d="M253.71,260.7c-2.51-.53-5.02-1.04-7.53-1.55l7.53,1.55Z"/>
    <path class="st2" d="M384.23,259.26c-11.03,7.69-25.51,13.08-40.32,15.04-6.74.91-13.97,1.21-21.46.92-36.44.88-76.71-13.51-114.52-17.15-43.32-4.18-76.35,9.72-91.7,34.81-4.42,7.23-8.12,14.89-11.87,22.44-.89,1.8-3.62,5.38-3.6,7.71,0,1.67,1.01-1.06,1.27-1.47,12.02-19.62,40.2-31.12,72.17-31.37,27.24-.21,56.62,7.88,84.98,13.26,30.73,5.81,58.78,6.62,82.6-1.95,23.94-8.62,40.11-24.14,51.23-41.95,2.92-4.69,5.73-9.46,8.44-14.3-4.41,5.35-10.35,10.09-17.24,14"/>
    <path class="st0" d="M398.96,128.53c-3.34,5.8-8.73,11.21-15.02,15.16-2.86,1.8-6.08,3.4-9.53,4.82-16.33,7.84-37.71,9.46-55.64,15.52-20.56,6.93-32.51,20.08-34.06,34.74-.45,4.23-.46,8.5-.51,12.73,0,1.01-.48,3.22.03,4.28.36.76.23-.69.26-.94,1.21-11.48,11.49-22.52,25.94-29.17,12.32-5.66,27.38-7.94,41.41-11.28,15.19-3.6,28.09-8.97,37.03-17.78,9-8.85,12.96-19.3,14.15-29.75.31-2.76.54-5.51.73-8.29-.84,3.37-2.51,6.75-4.79,9.96"/>
    <path class="st2" d="M30.78,496.77l.54-1.02c1.49.4,3.45.71,5,.71,4,0,6.09-1.4,6.09-3.42,0-2.43-2.94-3.14-5.61-3.86-4.05-1.07-5.7-2.28-5.7-4.51,0-2.84,2.66-4.39,6.74-4.39,1.78,0,3.81.4,5.51.96l-.53,1.01c-1.7-.58-3.43-.92-5-.92-3.14,0-5.13,1.19-5.13,3.19,0,2.36,2.64,3.04,5.13,3.71,4.57,1.25,6.16,2.36,6.16,4.64,0,2.86-2.51,4.64-7.55,4.64-1.77,0-4.03-.28-5.63-.74"/>
  </g>
  <polygon class="st2" points="64.57 480.53 76.27 480.53 76.27 481.58 66.15 481.58 66.15 487.91 75.12 487.91 75.12 488.96 66.15 488.96 66.15 496.25 76.27 496.25 76.27 497.29 64.57 497.29 64.57 480.53"/>
  <g>
    <path class="st2" d="M102.64,496.25c6.65,0,8.9-2.31,8.9-7.45s-2.23-7.22-8.44-7.22h-4.69v14.66h4.23ZM96.84,480.53h6.57c6.59,0,9.71,2.69,9.71,8.22,0,5.83-3.12,8.54-10.35,8.54h-5.93v-16.78.02Z"/>
    <path class="st2" d="M139.13,489.34c4.8,0,5.81-1.06,5.81-3.9,0-2.69-.89-3.86-5.38-3.86h-4.29v7.76h3.86ZM133.7,480.53h6.11c5.17,0,6.72,1.59,6.72,4.82,0,2.71-.99,4.31-4.01,4.84l5.27,7.1h-1.65l-5.17-6.93c-.36.02-.74.03-1.16.03h-4.52v6.89h-1.59v-16.78.03Z"/>
  </g>
  <path class="st2" d="M180.06,490.33l-4.16-8.64-4.14,8.64h8.31ZM175.19,480.46h1.42l8.5,16.84h-1.59l-2.97-5.88h-9.3l-3.01,5.88h-1.57l8.52-16.84h-.02Z"/>
  <polygon class="st2" points="207.81 481.58 200.83 481.58 200.83 480.53 216.37 480.53 216.37 481.58 209.4 481.58 209.4 497.3 207.81 497.3 207.81 481.58"/>
  <path class="st2" d="M271.08,490.33l-4.16-8.64-4.14,8.64h8.31ZM266.21,480.46h1.42l8.5,16.84h-1.59l-2.97-5.88h-9.3l-3.01,5.88h-1.57l8.52-16.84h-.02Z"/>
  <polygon class="st2" points="295.64 480.53 297.22 480.53 297.22 496.25 307.26 496.25 307.26 497.29 295.64 497.29 295.64 480.53"/>
  <polygon class="st2" points="348.82 480.53 350.49 480.53 355.39 495.34 360.56 480.53 362.32 480.53 367.69 495.35 372.63 480.53 374.26 480.53 368.38 497.29 367.08 497.29 361.45 481.88 355.98 497.29 354.65 497.29 348.82 480.53"/>
  <path class="st2" d="M404.18,490.33l-4.16-8.64-4.14,8.64h8.31ZM399.31,480.46h1.42l8.5,16.84h-1.59l-2.97-5.88h-9.3l-3.01,5.88h-1.57l8.52-16.84h-.02Z"/>
  <path class="st2" d="M434.54,496.25c6.65,0,8.9-2.31,8.9-7.45s-2.23-7.22-8.44-7.22h-4.69v14.66h4.23,0ZM428.73,480.53h6.57c6.59,0,9.71,2.69,9.71,8.22,0,5.83-3.12,8.54-10.35,8.54h-5.93v-16.78.02Z"/>
  <polygon class="st2" points="470.64 490.9 463.54 480.53 465.25 480.53 471.41 489.61 477.62 480.53 479.32 480.53 472.17 490.86 472.17 497.29 470.64 497.29 470.64 490.9"/>
</svg>