<?xml version="1.0" encoding="UTF-8"?>
<svg xmlns="http://www.w3.org/2000/svg" viewBox="0 0 588.72 618.5">
  <defs>
    <style>
      .cls-1, .cls-2 {
        fill: #d0a74e;
      }

      .cls-3 {
        mix-blend-mode: soft-light;
      }

      .cls-4 {
        isolation: isolate;
      }

      .cls-2 {
        fill-rule: evenodd;
      }

      .cls-5 {
        fill: #84b441;
      }

      .cls-6 {
        fill: #008e88;
      }

      .cls-7 {
        fill: #a5cd39;
      }

      .cls-8 {
        fill: #00a551;
      }

      .cls-9 {
        fill: #009188;
      }
    </style>
  </defs>
  <g class="cls-4">
    <g id="Layer_1" data-name="Layer 1">
      <g>
        <path class="cls-8" d="M446.26,99.19s-6.88,18.96-17.46,24.72c-3.27,1.77-6.61,2.28-9.69,2.12h0s-6.17.2-9.04,1.81c-.97.54-1.52,42.83-1.83,71.78-.67.32-1.36.63-2.06.93l.51-78.49s-.84-13.79,9.44-20.08c10.27-6.3,30.13-2.79,30.13-2.79Z"/>
        <path class="cls-5" d="M434.01,68.31s-6.88,18.96-17.46,24.72c-3.26,1.78-6.62,2.28-9.69,2.13h0s-6.17.2-9.04,1.81c-1.4.79-1.94,66.51-2.13,107.73-.68.21-1.36.42-2.05.62l.79-114.14s-.83-13.79,9.44-20.09c10.27-6.29,30.13-2.79,30.13-2.79Z"/>
        <path class="cls-8" d="M408.67,291.32c-.13,7.99-.23,16.35-.33,24.2l-2.08,1.09s-.02,0-.03.01l.16-24.34c.77-.31,1.53-.63,2.27-.96Z"/>
        <path class="cls-5" d="M395.91,295.9c-.07,8.62-.13,17.16-.17,25.09-.67.23-1.35.45-2.04.66l.18-25.17,2.03-.58Z"/>
        <rect class="cls-1" x="76.56" y="500.05" width="431.02" height="1.63"/>
        <path class="cls-2" d="M312.88,82.09v238.18c-2.37-.48-4.75-.97-7.12-1.46v-92.3l-10.79-7.84v97.85l-7.12-1.5v-101.52l-10.79-7.84v107.21c-2.37-.45-4.75-.89-7.12-1.29v-111.08l-10.79-7.84v-71.54l53.71-39.02Z"/>
        <path class="cls-2" d="M330.79,95.1v133.43c-1.09.98-2.14,2.01-3.13,3.06-1.46,1.55-2.79,3.16-3.98,4.83V89.93l7.12,5.17Z"/>
        <path class="cls-2" d="M348.69,108.11v109.33c-2.5,1.05-4.87,2.2-7.11,3.45v-117.95l7.11,5.17Z"/>
        <path class="cls-2" d="M366.59,121.11v90.7c-2.38.58-4.76,1.21-7.11,1.88v-97.75l7.11,5.17Z"/>
        <path class="cls-2" d="M384.5,134.12v73.59c-2.31.55-4.67,1.08-7.06,1.61h-.05v-80.37l7.12,5.17Z"/>
        <path class="cls-2" d="M348.69,309.62v15.83c-2.35-.14-4.72-.34-7.11-.58v-10.39c2.1-1.76,4.49-3.39,7.11-4.85Z"/>
        <path class="cls-2" d="M366.59,302.91v22.83c-.6.01-1.2.02-1.8.02-1.55,0-3.14-.03-4.73-.09h-.15s-.15,0-.15,0c-.09,0-.19,0-.28,0v-20.69c2.29-.76,4.67-1.44,7.11-2.08Z"/>
        <path class="cls-2" d="M384.5,298.78v25.19c-1.66.33-3.34.61-5.02.83-.69.09-1.38.18-2.09.26v-24.71c.7-.16,1.41-.31,2.12-.47,1.65-.36,3.32-.73,4.99-1.11Z"/>
        <path class="cls-2" d="M259.17,192.66v117.28c-2.32-.31-4.63-.58-6.94-.8-4.93-.49-9.83-.73-14.56-.73-16.02,0-30.46,2.73-43,8.13v-77.01l64.5-46.86Z"/>
        <path class="cls-5" d="M435.3,214.87c-3.24,5.75-8.48,11.13-14.58,15.03-2.78,1.78-5.89,3.38-9.24,4.78-15.85,7.78-36.59,9.39-53.99,15.39-19.94,6.88-31.54,19.91-33.04,34.45-.43,4.19-.45,8.43-.51,12.63-.01,1-.46,3.19.03,4.25.35.76.22-.68.25-.93,1.17-11.38,11.15-22.33,25.17-28.93,11.94-5.62,26.56-7.88,40.17-11.19,14.74-3.58,27.25-8.9,35.94-17.63,8.73-8.78,12.58-19.13,13.73-29.51.3-2.73.54-5.48.71-8.22-.82,3.34-2.44,6.69-4.64,9.87Z"/>
        <path class="cls-8" d="M395.91,295.91c-.67.2-1.35.39-2.03.58l2.03-.58Z"/>
        <path class="cls-8" d="M432.02,245.45c-3.15,5.59-8.25,10.83-14.19,14.63-2.7,1.73-5.73,3.29-9,4.65-15.42,7.57-35.61,9.14-52.54,14.98-19.4,6.69-30.7,19.38-32.15,33.53-.42,4.08-.44,8.2-.49,12.29-.01.97-.45,3.1.03,4.13.34.74.22-.67.24-.9,1.14-11.07,10.85-21.73,24.49-28.15,11.62-5.47,25.85-7.67,39.09-10.89,14.34-3.48,26.52-8.66,34.97-17.16,8.49-8.54,12.24-18.62,13.36-28.71.3-2.66.52-5.33.69-8-.8,3.25-2.37,6.51-4.52,9.61Z"/>
        <path class="cls-9" d="M294.98,316.52c-2.36-.5-4.73-1.01-7.12-1.5l7.12,1.5Z"/>
        <path class="cls-9" d="M418.2,315.13c-10.42,7.43-24.08,12.61-38.06,14.52-6.37.87-13.19,1.16-20.26.9-34.4.84-72.43-13.04-108.12-16.56-40.91-4.03-72.07,9.39-86.58,33.59-4.18,6.98-7.67,14.36-11.2,21.66-.84,1.74-3.41,5.2-3.41,7.45,0,1.61.95-1.02,1.19-1.42,11.35-18.93,37.95-30.03,68.14-30.27,25.72-.21,53.45,7.61,80.24,12.79,29.01,5.61,55.49,6.39,77.99-1.88,22.61-8.31,37.87-23.3,48.37-40.49,2.77-4.53,5.41-9.14,7.97-13.79-4.17,5.17-9.77,9.73-16.27,13.51Z"/>
        <path class="cls-7" d="M432.11,188.95c-3.15,5.59-8.25,10.83-14.19,14.63-2.7,1.73-5.73,3.29-9,4.65-15.42,7.57-35.61,9.14-52.54,14.98-19.4,6.69-30.7,19.38-32.15,33.53-.42,4.08-.44,8.2-.49,12.29-.01.97-.45,3.1.03,4.13.34.74.22-.67.24-.9,1.14-11.07,10.85-21.73,24.49-28.15,11.62-5.47,25.85-7.67,39.09-10.89,14.34-3.48,26.52-8.66,34.97-17.16,8.49-8.54,12.24-18.62,13.36-28.71.3-2.66.52-5.33.69-8-.8,3.25-2.37,6.51-4.52,9.61Z"/>
        <path class="cls-8" d="M446.26,99.19s-6.88,18.96-17.46,24.72c-3.27,1.77-6.61,2.28-9.69,2.12h0s-6.17.2-9.04,1.81c-.97.54-1.52,42.83-1.83,71.78-.67.32-1.36.63-2.06.93l.51-78.49s-.84-13.79,9.44-20.08c10.27-6.3,30.13-2.79,30.13-2.79Z"/>
        <path class="cls-5" d="M434.01,68.31s-6.88,18.96-17.46,24.72c-3.26,1.78-6.62,2.28-9.69,2.13h0s-6.17.2-9.04,1.81c-1.4.79-1.94,66.51-2.13,107.73-.68.21-1.36.42-2.05.62l.79-114.14s-.83-13.79,9.44-20.09c10.27-6.29,30.13-2.79,30.13-2.79Z"/>
        <path class="cls-8" d="M408.67,291.32c-.13,7.99-.23,16.35-.33,24.2l-2.08,1.09s-.02,0-.03.01l.16-24.34c.77-.31,1.53-.63,2.27-.96Z"/>
        <path class="cls-5" d="M395.91,295.9c-.07,8.62-.13,17.16-.17,25.09-.67.23-1.35.45-2.04.66l.18-25.17,2.03-.58Z"/>
        <rect class="cls-1" x="76.56" y="500.05" width="431.02" height="1.63"/>
        <path class="cls-2" d="M312.88,82.09v238.18c-2.37-.48-4.75-.97-7.12-1.46v-92.3l-10.79-7.84v97.85l-7.12-1.5v-101.52l-10.79-7.84v107.21c-2.37-.45-4.75-.89-7.12-1.29v-111.08l-10.79-7.84v-71.54l53.71-39.02Z"/>
        <path class="cls-2" d="M330.79,95.1v133.43c-1.09.98-2.14,2.01-3.13,3.06-1.46,1.55-2.79,3.16-3.98,4.83V89.93l7.12,5.17Z"/>
        <path class="cls-2" d="M348.69,108.11v109.33c-2.5,1.05-4.87,2.2-7.11,3.45v-117.95l7.11,5.17Z"/>
        <path class="cls-2" d="M366.59,121.11v90.7c-2.38.58-4.76,1.21-7.11,1.88v-97.75l7.11,5.17Z"/>
        <path class="cls-2" d="M384.5,134.12v73.59c-2.31.55-4.67,1.08-7.06,1.61h-.05v-80.37l7.12,5.17Z"/>
        <path class="cls-2" d="M348.69,309.62v15.83c-2.35-.14-4.72-.34-7.11-.58v-10.39c2.1-1.76,4.49-3.39,7.11-4.85Z"/>
        <path class="cls-2" d="M366.59,302.91v22.83c-.6.01-1.2.02-1.8.02-1.55,0-3.14-.03-4.73-.09h-.15s-.15,0-.15,0c-.09,0-.19,0-.28,0v-20.69c2.29-.76,4.67-1.44,7.11-2.08Z"/>
        <path class="cls-2" d="M384.5,298.78v25.19c-1.66.33-3.34.61-5.02.83-.69.09-1.38.18-2.09.26v-24.71c.7-.16,1.41-.31,2.12-.47,1.65-.36,3.32-.73,4.99-1.11Z"/>
        <path class="cls-2" d="M259.17,192.66v117.28c-2.32-.31-4.63-.58-6.94-.8-4.93-.49-9.83-.73-14.56-.73-16.02,0-30.46,2.73-43,8.13v-77.01l64.5-46.86Z"/>
        <path class="cls-5" d="M435.3,214.87c-3.24,5.75-8.48,11.13-14.58,15.03-2.78,1.78-5.89,3.38-9.24,4.78-15.85,7.78-36.59,9.39-53.99,15.39-19.94,6.88-31.54,19.91-33.04,34.45-.43,4.19-.45,8.43-.51,12.63-.01,1-.46,3.19.03,4.25.35.76.22-.68.25-.93,1.17-11.38,11.15-22.33,25.17-28.93,11.94-5.62,26.56-7.88,40.17-11.19,14.74-3.58,27.25-8.9,35.94-17.63,8.73-8.78,12.58-19.13,13.73-29.51.3-2.73.54-5.48.71-8.22-.82,3.34-2.44,6.69-4.64,9.87Z"/>
        <path class="cls-8" d="M395.91,295.91c-.67.2-1.35.39-2.03.58l2.03-.58Z"/>
        <path class="cls-8" d="M432.02,245.45c-3.15,5.59-8.25,10.83-14.19,14.63-2.7,1.73-5.73,3.29-9,4.65-15.42,7.57-35.61,9.14-52.54,14.98-19.4,6.69-30.7,19.38-32.15,33.53-.42,4.08-.44,8.2-.49,12.29-.01.97-.45,3.1.03,4.13.34.74.22-.67.24-.9,1.14-11.07,10.85-21.73,24.49-28.15,11.62-5.47,25.85-7.67,39.09-10.89,14.34-3.48,26.52-8.66,34.97-17.16,8.49-8.54,12.24-18.62,13.36-28.71.3-2.66.52-5.33.69-8-.8,3.25-2.37,6.51-4.52,9.61Z"/>
        <path class="cls-9" d="M294.98,316.52c-2.36-.5-4.73-1.01-7.12-1.5l7.12,1.5Z"/>
        <path class="cls-9" d="M418.2,315.13c-10.42,7.43-24.08,12.61-38.06,14.52-6.37.87-13.19,1.16-20.26.9-34.4.84-72.43-13.04-108.12-16.56-40.91-4.03-72.07,9.39-86.58,33.59-4.18,6.98-7.67,14.36-11.2,21.66-.84,1.74-3.41,5.2-3.41,7.45,0,1.61.95-1.02,1.19-1.42,11.35-18.93,37.95-30.03,68.14-30.27,25.72-.21,53.45,7.61,80.24,12.79,29.01,5.61,55.49,6.39,77.99-1.88,22.61-8.31,37.87-23.3,48.37-40.49,2.77-4.53,5.41-9.14,7.97-13.79-4.17,5.17-9.77,9.73-16.27,13.51Z"/>
        <path class="cls-7" d="M432.11,188.95c-3.15,5.59-8.25,10.83-14.19,14.63-2.7,1.73-5.73,3.29-9,4.65-15.42,7.57-35.61,9.14-52.54,14.98-19.4,6.69-30.7,19.38-32.15,33.53-.42,4.08-.44,8.2-.49,12.29-.01.97-.45,3.1.03,4.13.34.74.22-.67.24-.9,1.14-11.07,10.85-21.73,24.49-28.15,11.62-5.47,25.85-7.67,39.09-10.89,14.34-3.48,26.52-8.66,34.97-17.16,8.49-8.54,12.24-18.62,13.36-28.71.3-2.66.52-5.33.69-8-.8,3.25-2.37,6.51-4.52,9.61Z"/>
      </g>
      <g class="cls-3">
        <path class="cls-8" d="M446.26,99.19s-6.88,18.96-17.46,24.72c-3.27,1.77-6.61,2.28-9.69,2.12h0s-6.17.2-9.04,1.81c-.97.54-1.52,42.83-1.83,71.78-.67.32-1.36.63-2.06.93l.51-78.49s-.84-13.79,9.44-20.08c10.27-6.3,30.13-2.79,30.13-2.79Z"/>
        <path class="cls-5" d="M434.01,68.31s-6.88,18.96-17.46,24.72c-3.26,1.78-6.62,2.28-9.69,2.13h0s-6.17.2-9.04,1.81c-1.4.79-1.94,66.51-2.13,107.73-.68.21-1.36.42-2.05.62l.79-114.14s-.83-13.79,9.44-20.09c10.27-6.29,30.13-2.79,30.13-2.79Z"/>
        <path class="cls-8" d="M408.67,291.32c-.13,7.99-.23,16.35-.33,24.2l-2.08,1.09s-.02,0-.03.01l.16-24.34c.77-.31,1.53-.63,2.27-.96Z"/>
        <path class="cls-5" d="M395.91,295.9c-.07,8.62-.13,17.16-.17,25.09-.67.23-1.35.45-2.04.66l.18-25.17,2.03-.58Z"/>
        <rect class="cls-1" x="76.56" y="500.05" width="431.02" height="1.63"/>
        <path class="cls-2" d="M312.88,82.09v238.18c-2.37-.48-4.75-.97-7.12-1.46v-92.3l-10.79-7.84v97.85l-7.12-1.5v-101.52l-10.79-7.84v107.21c-2.37-.45-4.75-.89-7.12-1.29v-111.08l-10.79-7.84v-71.54l53.71-39.02Z"/>
        <path class="cls-2" d="M330.79,95.1v133.43c-1.09.98-2.14,2.01-3.13,3.06-1.46,1.55-2.79,3.16-3.98,4.83V89.93l7.12,5.17Z"/>
        <path class="cls-2" d="M348.69,108.11v109.33c-2.5,1.05-4.87,2.2-7.11,3.45v-117.95l7.11,5.17Z"/>
        <path class="cls-2" d="M366.59,121.11v90.7c-2.38.58-4.76,1.21-7.11,1.88v-97.75l7.11,5.17Z"/>
        <path class="cls-2" d="M384.5,134.12v73.59c-2.31.55-4.67,1.08-7.06,1.61h-.05v-80.37l7.12,5.17Z"/>
        <path class="cls-2" d="M348.69,309.62v15.83c-2.35-.14-4.72-.34-7.11-.58v-10.39c2.1-1.76,4.49-3.39,7.11-4.85Z"/>
        <path class="cls-2" d="M366.59,302.91v22.83c-.6.01-1.2.02-1.8.02-1.55,0-3.14-.03-4.73-.09h-.15s-.15,0-.15,0c-.09,0-.19,0-.28,0v-20.69c2.29-.76,4.67-1.44,7.11-2.08Z"/>
        <path class="cls-2" d="M384.5,298.78v25.19c-1.66.33-3.34.61-5.02.83-.69.09-1.38.18-2.09.26v-24.71c.7-.16,1.41-.31,2.12-.47,1.65-.36,3.32-.73,4.99-1.11Z"/>
        <path class="cls-2" d="M259.17,192.66v117.28c-2.32-.31-4.63-.58-6.94-.8-4.93-.49-9.83-.73-14.56-.73-16.02,0-30.46,2.73-43,8.13v-77.01l64.5-46.86Z"/>
        <path class="cls-5" d="M435.3,214.87c-3.24,5.75-8.48,11.13-14.58,15.03-2.78,1.78-5.89,3.38-9.24,4.78-15.85,7.78-36.59,9.39-53.99,15.39-19.94,6.88-31.54,19.91-33.04,34.45-.43,4.19-.45,8.43-.51,12.63-.01,1-.46,3.19.03,4.25.35.76.22-.68.25-.93,1.17-11.38,11.15-22.33,25.17-28.93,11.94-5.62,26.56-7.88,40.17-11.19,14.74-3.58,27.25-8.9,35.94-17.63,8.73-8.78,12.58-19.13,13.73-29.51.3-2.73.54-5.48.71-8.22-.82,3.34-2.44,6.69-4.64,9.87Z"/>
        <path class="cls-8" d="M395.91,295.91c-.67.2-1.35.39-2.03.58l2.03-.58Z"/>
        <path class="cls-8" d="M432.02,245.45c-3.15,5.59-8.25,10.83-14.19,14.63-2.7,1.73-5.73,3.29-9,4.65-15.42,7.57-35.61,9.14-52.54,14.98-19.4,6.69-30.7,19.38-32.15,33.53-.42,4.08-.44,8.2-.49,12.29-.01.97-.45,3.1.03,4.13.34.74.22-.67.24-.9,1.14-11.07,10.85-21.73,24.49-28.15,11.62-5.47,25.85-7.67,39.09-10.89,14.34-3.48,26.52-8.66,34.97-17.16,8.49-8.54,12.24-18.62,13.36-28.71.3-2.66.52-5.33.69-8-.8,3.25-2.37,6.51-4.52,9.61Z"/>
        <path class="cls-9" d="M294.98,316.52c-2.36-.5-4.73-1.01-7.12-1.5l7.12,1.5Z"/>
        <path class="cls-9" d="M418.2,315.13c-10.42,7.43-24.08,12.61-38.06,14.52-6.37.87-13.19,1.16-20.26.9-34.4.84-72.43-13.04-108.12-16.56-40.91-4.03-72.07,9.39-86.58,33.59-4.18,6.98-7.67,14.36-11.2,21.66-.84,1.74-3.41,5.2-3.41,7.45,0,1.61.95-1.02,1.19-1.42,11.35-18.93,37.95-30.03,68.14-30.27,25.72-.21,53.45,7.61,80.24,12.79,29.01,5.61,55.49,6.39,77.99-1.88,22.61-8.31,37.87-23.3,48.37-40.49,2.77-4.53,5.41-9.14,7.97-13.79-4.17,5.17-9.77,9.73-16.27,13.51Z"/>
        <path class="cls-7" d="M432.11,188.95c-3.15,5.59-8.25,10.83-14.19,14.63-2.7,1.73-5.73,3.29-9,4.65-15.42,7.57-35.61,9.14-52.54,14.98-19.4,6.69-30.7,19.38-32.15,33.53-.42,4.08-.44,8.2-.49,12.29-.01.97-.45,3.1.03,4.13.34.74.22-.67.24-.9,1.14-11.07,10.85-21.73,24.49-28.15,11.62-5.47,25.85-7.67,39.09-10.89,14.34-3.48,26.52-8.66,34.97-17.16,8.49-8.54,12.24-18.62,13.36-28.71.3-2.66.52-5.33.69-8-.8,3.25-2.37,6.51-4.52,9.61Z"/>
        <path class="cls-8" d="M446.26,99.19s-6.88,18.96-17.46,24.72c-3.27,1.77-6.61,2.28-9.69,2.12h0s-6.17.2-9.04,1.81c-.97.54-1.52,42.83-1.83,71.78-.67.32-1.36.63-2.06.93l.51-78.49s-.84-13.79,9.44-20.08c10.27-6.3,30.13-2.79,30.13-2.79Z"/>
        <path class="cls-5" d="M434.01,68.31s-6.88,18.96-17.46,24.72c-3.26,1.78-6.62,2.28-9.69,2.13h0s-6.17.2-9.04,1.81c-1.4.79-1.94,66.51-2.13,107.73-.68.21-1.36.42-2.05.62l.79-114.14s-.83-13.79,9.44-20.09c10.27-6.29,30.13-2.79,30.13-2.79Z"/>
        <path class="cls-8" d="M408.67,291.32c-.13,7.99-.23,16.35-.33,24.2l-2.08,1.09s-.02,0-.03.01l.16-24.34c.77-.31,1.53-.63,2.27-.96Z"/>
        <path class="cls-5" d="M395.91,295.9c-.07,8.62-.13,17.16-.17,25.09-.67.23-1.35.45-2.04.66l.18-25.17,2.03-.58Z"/>
        <rect class="cls-1" x="76.56" y="500.05" width="431.02" height="1.63"/>
        <path class="cls-2" d="M312.88,82.09v238.18c-2.37-.48-4.75-.97-7.12-1.46v-92.3l-10.79-7.84v97.85l-7.12-1.5v-101.52l-10.79-7.84v107.21c-2.37-.45-4.75-.89-7.12-1.29v-111.08l-10.79-7.84v-71.54l53.71-39.02Z"/>
        <path class="cls-2" d="M330.79,95.1v133.43c-1.09.98-2.14,2.01-3.13,3.06-1.46,1.55-2.79,3.16-3.98,4.83V89.93l7.12,5.17Z"/>
        <path class="cls-2" d="M348.69,108.11v109.33c-2.5,1.05-4.87,2.2-7.11,3.45v-117.95l7.11,5.17Z"/>
        <path class="cls-2" d="M366.59,121.11v90.7c-2.38.58-4.76,1.21-7.11,1.88v-97.75l7.11,5.17Z"/>
        <path class="cls-2" d="M384.5,134.12v73.59c-2.31.55-4.67,1.08-7.06,1.61h-.05v-80.37l7.12,5.17Z"/>
        <path class="cls-2" d="M348.69,309.62v15.83c-2.35-.14-4.72-.34-7.11-.58v-10.39c2.1-1.76,4.49-3.39,7.11-4.85Z"/>
        <path class="cls-2" d="M366.59,302.91v22.83c-.6.01-1.2.02-1.8.02-1.55,0-3.14-.03-4.73-.09h-.15s-.15,0-.15,0c-.09,0-.19,0-.28,0v-20.69c2.29-.76,4.67-1.44,7.11-2.08Z"/>
        <path class="cls-2" d="M384.5,298.78v25.19c-1.66.33-3.34.61-5.02.83-.69.09-1.38.18-2.09.26v-24.71c.7-.16,1.41-.31,2.12-.47,1.65-.36,3.32-.73,4.99-1.11Z"/>
        <path class="cls-2" d="M259.17,192.66v117.28c-2.32-.31-4.63-.58-6.94-.8-4.93-.49-9.83-.73-14.56-.73-16.02,0-30.46,2.73-43,8.13v-77.01l64.5-46.86Z"/>
        <path class="cls-5" d="M435.3,214.87c-3.24,5.75-8.48,11.13-14.58,15.03-2.78,1.78-5.89,3.38-9.24,4.78-15.85,7.78-36.59,9.39-53.99,15.39-19.94,6.88-31.54,19.91-33.04,34.45-.43,4.19-.45,8.43-.51,12.63-.01,1-.46,3.19.03,4.25.35.76.22-.68.25-.93,1.17-11.38,11.15-22.33,25.17-28.93,11.94-5.62,26.56-7.88,40.17-11.19,14.74-3.58,27.25-8.9,35.94-17.63,8.73-8.78,12.58-19.13,13.73-29.51.3-2.73.54-5.48.71-8.22-.82,3.34-2.44,6.69-4.64,9.87Z"/>
        <path class="cls-8" d="M395.91,295.91c-.67.2-1.35.39-2.03.58l2.03-.58Z"/>
        <path class="cls-8" d="M432.02,245.45c-3.15,5.59-8.25,10.83-14.19,14.63-2.7,1.73-5.73,3.29-9,4.65-15.42,7.57-35.61,9.14-52.54,14.98-19.4,6.69-30.7,19.38-32.15,33.53-.42,4.08-.44,8.2-.49,12.29-.01.97-.45,3.1.03,4.13.34.74.22-.67.24-.9,1.14-11.07,10.85-21.73,24.49-28.15,11.62-5.47,25.85-7.67,39.09-10.89,14.34-3.48,26.52-8.66,34.97-17.16,8.49-8.54,12.24-18.62,13.36-28.71.3-2.66.52-5.33.69-8-.8,3.25-2.37,6.51-4.52,9.61Z"/>
        <path class="cls-9" d="M294.98,316.52c-2.36-.5-4.73-1.01-7.12-1.5l7.12,1.5Z"/>
        <path class="cls-9" d="M418.2,315.13c-10.42,7.43-24.08,12.61-38.06,14.52-6.37.87-13.19,1.16-20.26.9-34.4.84-72.43-13.04-108.12-16.56-40.91-4.03-72.07,9.39-86.58,33.59-4.18,6.98-7.67,14.36-11.2,21.66-.84,1.74-3.41,5.2-3.41,7.45,0,1.61.95-1.02,1.19-1.42,11.35-18.93,37.95-30.03,68.14-30.27,25.72-.21,53.45,7.61,80.24,12.79,29.01,5.61,55.49,6.39,77.99-1.88,22.61-8.31,37.87-23.3,48.37-40.49,2.77-4.53,5.41-9.14,7.97-13.79-4.17,5.17-9.77,9.73-16.27,13.51Z"/>
        <path class="cls-7" d="M432.11,188.95c-3.15,5.59-8.25,10.83-14.19,14.63-2.7,1.73-5.73,3.29-9,4.65-15.42,7.57-35.61,9.14-52.54,14.98-19.4,6.69-30.7,19.38-32.15,33.53-.42,4.08-.44,8.2-.49,12.29-.01.97-.45,3.1.03,4.13.34.74.22-.67.24-.9,1.14-11.07,10.85-21.73,24.49-28.15,11.62-5.47,25.85-7.67,39.09-10.89,14.34-3.48,26.52-8.66,34.97-17.16,8.49-8.54,12.24-18.62,13.36-28.71.3-2.66.52-5.33.69-8-.8,3.25-2.37,6.51-4.52,9.61Z"/>
      </g>
      <g>
        <path class="cls-6" d="M78.22,543.67l.52-1.22c1.43.48,3.3.85,4.78.85,3.83,0,5.83-1.69,5.83-4.09,0-2.91-2.81-3.76-5.37-4.63-3.87-1.29-5.45-2.73-5.45-5.4,0-3.39,2.54-5.26,6.44-5.26,1.71,0,3.65.47,5.27,1.15l-.5,1.21c-1.64-.69-3.28-1.1-4.79-1.1-3,0-4.92,1.43-4.92,3.82,0,2.83,2.53,3.64,4.91,4.45,4.37,1.5,5.9,2.83,5.9,5.55,0,3.42-2.4,5.56-7.23,5.56-1.69,0-3.86-.34-5.38-.89Z"/>
        <path class="cls-6" d="M110.53,524.21h11.2v1.26h-9.69v7.58h8.58v1.25h-8.58v8.72h9.69v1.26h-11.2v-20.08Z"/>
        <path class="cls-6" d="M141.41,524.21h6.29c6.3,0,9.29,3.21,9.29,9.85,0,6.98-2.99,10.23-9.91,10.23h-5.67v-20.08ZM146.96,543.02c6.37,0,8.53-2.77,8.53-8.91s-2.14-8.64-8.08-8.64h-4.49v17.55h4.04Z"/>
        <path class="cls-6" d="M176.67,524.21h5.84c4.95,0,6.43,1.91,6.43,5.78,0,3.24-.95,5.15-3.84,5.79l5.05,8.5h-1.58l-4.95-8.29c-.35.03-.71.04-1.1.04h-4.33v8.25h-1.51v-20.08ZM181.87,534.77c4.6,0,5.56-1.26,5.56-4.67,0-3.23-.85-4.63-5.14-4.63h-4.11v9.3h3.69Z"/>
        <path class="cls-6" d="M216.36,524.12h1.36l8.13,20.16h-1.52l-2.85-7.04h-8.89l-2.88,7.04h-1.5l8.15-20.16ZM221.01,535.96l-3.98-10.34-3.97,10.34h7.95Z"/>
        <path class="cls-6" d="M247.57,525.47h-6.68v-1.26h14.86v1.26h-6.67v18.81h-1.51v-18.81Z"/>
        <path class="cls-6" d="M303.43,524.12h1.36l8.13,20.16h-1.52l-2.85-7.04h-8.89l-2.88,7.04h-1.5l8.15-20.16ZM308.09,535.96l-3.98-10.34-3.97,10.34h7.95Z"/>
        <path class="cls-6" d="M331.58,524.21h1.51v18.81h9.62v1.26h-11.13v-20.08Z"/>
        <path class="cls-6" d="M382.44,524.21h1.61l4.68,17.73,4.95-17.73h1.69l5.14,17.76,4.72-17.76h1.57l-5.63,20.08h-1.24l-5.38-18.46-5.24,18.46h-1.27l-5.59-20.08Z"/>
        <path class="cls-6" d="M430.76,524.12h1.36l8.13,20.16h-1.52l-2.85-7.04h-8.89l-2.88,7.04h-1.5l8.15-20.16ZM435.41,535.96l-3.98-10.34-3.97,10.34h7.95Z"/>
        <path class="cls-6" d="M458.9,524.21h6.29c6.3,0,9.29,3.21,9.29,9.85,0,6.98-2.99,10.23-9.91,10.23h-5.67v-20.08ZM464.45,543.02c6.37,0,8.53-2.77,8.53-8.91s-2.14-8.64-8.08-8.64h-4.49v17.55h4.04Z"/>
        <path class="cls-6" d="M498.99,536.62l-6.79-12.41h1.64l5.9,10.88,5.94-10.88h1.64l-6.85,12.39v7.69h-1.47v-7.66Z"/>
      </g>
      <g>
        <path class="cls-1" d="M71.67,446.14c0-2.37.45-4.69,1.34-6.83h6.09c-1.14,2.68-1.68,5.49-1.68,8.25,0,8.88,5.9,16.95,17.24,16.95,14.57,0,27.84.09,42.31.09,3.27,0,6.54-.27,9.31-1.83,2.97-1.65,4.16-3.44,4.16-5.13,0-3.48-5.9-7.18-11.99-7.18-7.53,0-15.36,0-22.89-.04-5.55-.04-10.21-2.63-13.03-7.67-.79-1.34-1.09-2.63-1.09-4.02,0-3.44,2.33-6.6,5.75-8.66,4.61-2.77,10.65-2.9,16-3.12,7.33-.27,15.16-1.47,18.73-7.27.05.13-3.12,6.11-8.13,9.46-3.72,2.5-8.47,2.86-13.18,2.86-2.58,0-5.05-.04-7.43-.04-4.56.13-9.56,3.48-9.56,6.83,0,5.09,8.37,7.41,12.24,7.81,4.41,0,8.87-.09,13.33-.09,7.23,0,15.36-.09,20.56,4.77,2.23,2.1,3.22,4.37,3.22,6.47,0,3.66-2.92,6.87-7.68,8.03-2.82.71-5.55.71-8.42.71h-40.73c-3.42,0-6.09-.13-9.22-1.12-8.42-2.59-15.26-9.55-15.26-19.23Z"/>
        <path class="cls-1" d="M158.08,463.28c2.08.8,4.41,1.16,6.74,1.16,11.25,0,15.8-8.57,15.8-16.78,0-11.02-7.38-18.69-17.69-18.69-1.59,0-3.22.18-4.86.58v-1.92c1.83-.36,3.67-.49,5.6-.49,14.22,0,22.74,8.74,22.74,19.01,0,12.89-11.54,20.34-23.29,20.34-1.68,0-3.37-.13-5.05-.45v-2.77Z"/>
        <path class="cls-1" d="M195.98,409.42c-.1-2.28-1.14-2.86-3.47-2.9-.35,0-.45-.13-.45-.27,0-.22.35-.54.89-.54h12.34c.54,0,.89.31.89.54,0,.13-.15.27-.45.27-2.48.04-4.16.18-4.31,2.9-.3,4.51-.2,9.1-.1,51.09,0,4.86,1.09,5.09,4.41,5.13.3.04.45.13.45.31,0,.22-.35.54-.89.54h-12.34c-.54,0-.89-.31-.89-.54,0-.18.1-.27.45-.31,3.02-.09,3.42-1.25,3.52-3.88l-.05-52.33Z"/>
        <path class="cls-1" d="M234.28,427.14c14.07,0,22.79,7.94,22.79,18.92,0,6.56-.5,17.89,11.59,18.43v2.01c-4.66-.36-8.82-2.01-11.79-5.09.4,8.3-8.37,15.39-12.58,15.08,6.69-3.35,7.53-11.33,7.53-17.09-4.36,4.42-10.31,7.09-17.89,7.09-16.7,0-22.59-11.47-22.59-19.72s6.94-19.63,22.94-19.63ZM235.56,464.39c-.1,0,15.66,1.16,15.66-17,0-11.82-8.13-18.34-17.29-18.34-9.71,0-16.6,5.44-16.6,16.33,0,12.45,8.37,19.01,18.23,19.01Z"/>
        <path class="cls-1" d="M268.66,464.53c10.45-.67,11.54-9.15,11.54-15.71v-13.88c0-.71,0-22.84-.05-23.33,0-3.03.05-4.46-1.98-4.91-.5-.13-2.87-.09-2.87-.62,0-.4.45-.4.94-.4h12.34c.64,0,.89.09.89.4,0,.18-.25.4-.45.4-3.07,0-3.52,1.03-3.52,3.88v27.35c0,12.67,2.18,27.39-16.85,28.78v-1.96Z"/>
        <path class="cls-1" d="M299.03,409.42c-.1-2.28-1.14-2.86-3.47-2.9-.35,0-.45-.13-.45-.27,0-.22.35-.54.89-.54h12.34c.54,0,.89.31.89.54,0,.13-.15.27-.45.27-2.48.04-4.16.18-4.31,2.9-.3,4.51-.2,9.1-.1,51.09,0,4.86,1.09,5.09,4.41,5.13.3.04.45.13.45.31,0,.22-.35.54-.89.54h-12.34c-.54,0-.89-.31-.89-.54,0-.18.1-.27.45-.31,3.02-.09,3.42-1.25,3.52-3.88l-.05-52.33Z"/>
        <path class="cls-1" d="M349.07,427.09c12.58,0,22.79,6.78,22.79,18.83,0,14.05-11.49,20.21-23.14,20.57-17.89-.62-22.49-12.22-22.49-19.72,0-9.73,8.22-19.68,22.84-19.68ZM350.36,464.39c8.62,0,15.66-5.35,15.66-17,0-10.98-7.23-18.47-17.29-18.47-10.6,0-16.25,6.16-16.6,16.46.4,12.14,8.08,19.01,18.23,19.01ZM348.33,417.41c0,2.23-1.93,3.93-4.36,3.93s-4.36-1.7-4.36-3.93,2.03-3.93,4.36-3.93,4.36,1.74,4.36,3.93ZM358.98,417.41c0,2.23-2.03,3.93-4.36,3.93s-4.36-1.7-4.36-3.93,1.93-3.93,4.36-3.93,4.36,1.74,4.36,3.93Z"/>
        <path class="cls-1" d="M385.49,452.75c0,5.84-.3,10.89-.94,13.07-1.54,5.31-6.19,9.55-12.58,11.42,6.14-4.46,8.22-6.74,8.22-21.01s.1-22.04.1-24.27c0-1.47-.4-3.84-2.53-3.84-.3-.13-2.43.13-2.43-.58,0-.18,0-.27.2-.36,4.26,0,8.67-.09,12.98-.09.84,0,.89.18.89.4,0,.4-.3.45-.59.45-2.77,0-3.37,1.61-3.37,3.93v9.77c0,3.66.05,7.54.05,11.11Z"/>
        <path class="cls-1" d="M394.5,463.28c2.18.8,4.46,1.16,6.79,1.16,11.25,0,15.76-8.61,15.76-16.91,0-10.98-7.43-18.56-17.69-18.56-1.59,0-3.22.18-4.86.58v-1.92c1.83-.36,3.72-.49,5.6-.49,14.37,0,22.84,8.7,22.84,19.01,0,.45,0,.89-.05,1.34,0,5.4-.15,12.09,5.7,15.35,1.78,1.03,3.91,1.56,5.9,1.65v2.01c-6.59-.45-12.58-3.66-14.62-10.04-4.16,6.47-11.99,9.99-20.36,9.99-1.68,0-3.32-.13-5-.4v-2.77Z"/>
        <path class="cls-1" d="M476.8,459.4c-2.63,4.42-8.42,7.09-14.12,7.09-7.68-.58-11.74-3.3-13.97-7.09-2.23,3.79-6.39,6.6-14.22,7.09v-2.01c2.03,0,4.06-.62,5.9-1.7,5.3-2.99,5.7-8.7,5.7-14.01v-17.09c0-.89-.1-2.41-1.04-3.17-.64-.45-3.86-.36-3.86-.94,0-.22,0-.45.94-.45h13.18c.84,0,.89.13.89.45,0,.4-.5.45-1.83.45-2.77,0-3.07,1.43-3.07,2.68,0,.18,0,6.2.05,18.07,0,6.65,1.83,15.71,11.35,15.71s11.49-8.88,11.49-15.71v-15.17c0-.13,0-.76-.05-1.87-.05-1.16-.15-1.92-.35-2.32s-.5-.71-.89-.94c-1.34-.67-3.86-.31-3.57-.89,0-.22-.05-.45.89-.45h13.18c.64,0,.94.13.94.45,0,.4-.64.45-1.83.45-2.33,0-2.97,1.12-2.97,2.86,0,3.7-.1,5.98-.1,17.89,0,5.26.4,11.02,5.7,14.01,1.93,1.07,3.77,1.7,5.9,1.7,9.66,0,11.54-8.75,11.54-15.71-.05-11.42-.1-17.36-.15-17.76,0-.4-.25-1.03-.74-1.83-.5-.8-1.24-1.2-2.18-1.16-1.83.04-1.88-.22-1.88-.54,0-.18.1-.27.3-.27,4.36,0,8.67-.09,12.98-.09.64,0,.94.13.94.45,0,.94-3.96-.49-3.96,3.3v13.79c0,10.53-.94,21.82-16.85,21.82-7.83,0-11.94-3.26-14.22-7.09Z"/>
      </g>
    </g>
  </g>
</svg>