<?xml version="1.0" encoding="UTF-8"?>
<svg id="Layer_1" xmlns="http://www.w3.org/2000/svg" version="1.1" viewBox="0 0 93 93">
  <!-- Generator: Adobe Illustrator 29.8.1, SVG Export Plug-In . SVG Version: 2.1.1 Build 2)  -->
  <defs>
    <style>
      .st0 {
        fill: #3cab41;
      }
    </style>
  </defs>
  <circle class="st0" cx="2.5" cy="2.5" r="2.5"/>
  <circle class="st0" cx="2.5" cy="24.5" r="2.5"/>
  <circle class="st0" cx="2.5" cy="46.5" r="2.5"/>
  <circle class="st0" cx="2.5" cy="68.5" r="2.5"/>
  <circle class="st0" cx="2.5" cy="90.5" r="2.5"/>
  <circle class="st0" cx="24.5" cy="2.5" r="2.5"/>
  <circle class="st0" cx="24.5" cy="24.5" r="2.5"/>
  <circle class="st0" cx="24.5" cy="46.5" r="2.5"/>
  <circle class="st0" cx="24.5" cy="68.5" r="2.5"/>
  <circle class="st0" cx="24.5" cy="90.5" r="2.5"/>
  <circle class="st0" cx="46.5" cy="2.5" r="2.5"/>
  <circle class="st0" cx="46.5" cy="24.5" r="2.5"/>
  <circle class="st0" cx="46.5" cy="46.5" r="2.5"/>
  <circle class="st0" cx="46.5" cy="68.5" r="2.5"/>
  <circle class="st0" cx="46.5" cy="90.5" r="2.5"/>
  <circle class="st0" cx="68.5" cy="2.5" r="2.5"/>
  <circle class="st0" cx="68.5" cy="24.5" r="2.5"/>
  <circle class="st0" cx="68.5" cy="46.5" r="2.5"/>
  <circle class="st0" cx="68.5" cy="68.5" r="2.5"/>
  <circle class="st0" cx="68.5" cy="90.5" r="2.5"/>
  <circle class="st0" cx="90.5" cy="2.5" r="2.5"/>
  <circle class="st0" cx="90.5" cy="24.5" r="2.5"/>
  <circle class="st0" cx="90.5" cy="46.5" r="2.5"/>
  <circle class="st0" cx="90.5" cy="68.5" r="2.5"/>
  <circle class="st0" cx="90.5" cy="90.5" r="2.5"/>
</svg>